<svg width="315" height="287" viewBox="0 0 315 287" fill="none" xmlns="http://www.w3.org/2000/svg">
<g opacity="0.8">
<path d="M224.96 12.3967H119.469C113.535 12.3967 108.724 17.2076 108.724 23.1427V234.151C108.724 240.085 113.534 244.897 119.469 244.897H224.96C230.895 244.897 235.706 240.086 235.706 234.151V23.1427C235.706 17.2076 230.894 12.3967 224.96 12.3967Z" fill="#171B32"/>
<path d="M224.96 19.2488C227.107 19.2488 228.854 20.9957 228.854 23.1426V234.151C228.854 236.298 227.107 238.045 224.96 238.045H119.469C117.322 238.045 115.576 236.298 115.576 234.151V23.1426C115.576 20.9957 117.322 19.2488 119.469 19.2488H224.96Z" fill="#323649"/>
<path d="M214.546 38.9351H129.882C127.365 38.9351 125.324 40.9764 125.324 43.4939V67.5904C125.324 70.108 127.365 72.1493 129.882 72.1493H214.546C217.064 72.1493 219.105 70.108 219.105 67.5904V43.4939C219.105 40.9764 217.065 38.9351 214.546 38.9351Z" fill="#95999D"/>
<path d="M176.094 44.0159H133.836C132.378 44.0159 131.194 45.1987 131.194 46.6582C131.194 48.1177 132.377 49.3006 133.836 49.3006H176.094C177.554 49.3006 178.737 48.1177 178.737 46.6582C178.737 45.1987 177.554 44.0159 176.094 44.0159Z" fill="#323649"/>
<path d="M206.621 52.9006H132.984C131.996 52.9006 131.195 53.7013 131.195 54.69C131.195 55.6779 131.995 56.4793 132.984 56.4793H206.621C207.608 56.4793 208.41 55.6779 208.41 54.69C208.409 53.7013 207.608 52.9006 206.621 52.9006Z" fill="#BEBEBE"/>
<path d="M186.185 59.4946H132.983C131.995 59.4946 131.194 60.296 131.194 61.2839C131.194 62.2718 131.995 63.0733 132.983 63.0733H186.185C187.173 63.0733 187.975 62.2726 187.975 61.2839C187.975 60.2953 187.173 59.4946 186.185 59.4946Z" fill="#BEBEBE"/>
<path d="M149.348 65.4414H140.677C139.689 65.4414 138.888 66.2428 138.888 67.2307C138.888 68.2186 139.689 69.02 140.677 69.02H149.348C150.336 69.02 151.137 68.2186 151.137 67.2307C151.136 66.2428 150.336 65.4414 149.348 65.4414Z" fill="#323649"/>
<path d="M135.002 64.7419L132.129 69.72H137.877L135.002 64.7419Z" fill="#D7D7D7"/>
<path d="M174.992 65.4414H166.322C165.334 65.4414 164.532 66.2428 164.532 67.2307C164.532 68.2186 165.333 69.02 166.322 69.02H174.992C175.98 69.02 176.782 68.2186 176.782 67.2307C176.782 66.2428 175.98 65.4414 174.992 65.4414Z" fill="#323649"/>
<path d="M160.647 69.72L163.521 64.7419H157.773L160.647 69.72Z" fill="#9E9E9E"/>
<path d="M214.546 82.4067H129.882C127.365 82.4067 125.324 84.448 125.324 86.9656V111.062C125.324 113.58 127.365 115.621 129.882 115.621H214.546C217.064 115.621 219.105 113.58 219.105 111.062V86.9656C219.105 84.448 217.065 82.4067 214.546 82.4067Z" fill="#95999D"/>
<path d="M176.094 87.4875H133.836C132.378 87.4875 131.194 88.6704 131.194 90.1299C131.194 91.5894 132.377 92.7723 133.836 92.7723H176.094C177.554 92.7723 178.737 91.5894 178.737 90.1299C178.737 88.6704 177.554 87.4875 176.094 87.4875Z" fill="#323649"/>
<path d="M206.621 96.3726H132.984C131.996 96.3726 131.195 97.174 131.195 98.1619C131.195 99.1498 131.995 99.9512 132.984 99.9512H206.621C207.608 99.9512 208.41 99.1505 208.41 98.1619C208.409 97.1732 207.608 96.3726 206.621 96.3726Z" fill="#BEBEBE"/>
<path d="M186.185 102.966H132.983C131.995 102.966 131.194 103.767 131.194 104.756C131.194 105.744 131.995 106.545 132.983 106.545H186.185C187.173 106.545 187.975 105.744 187.975 104.756C187.975 103.767 187.173 102.966 186.185 102.966Z" fill="#BEBEBE"/>
<path d="M149.348 108.913H140.677C139.689 108.913 138.888 109.714 138.888 110.702C138.888 111.69 139.689 112.492 140.677 112.492H149.348C150.336 112.492 151.137 111.691 151.137 110.702C151.136 109.714 150.336 108.913 149.348 108.913Z" fill="#323649"/>
<path d="M135.002 108.213L132.129 113.191H137.877L135.002 108.213Z" fill="#D7D7D7"/>
<path d="M174.992 108.913H166.322C165.334 108.913 164.532 109.714 164.532 110.702C164.532 111.69 165.333 112.492 166.322 112.492H174.992C175.98 112.492 176.782 111.691 176.782 110.702C176.782 109.714 175.98 108.913 174.992 108.913Z" fill="#323649"/>
<path d="M160.647 113.191L163.521 108.213H157.773L160.647 113.191Z" fill="#9E9E9E"/>
<path d="M214.546 125.878H129.882C127.365 125.878 125.324 127.92 125.324 130.437V154.534C125.324 157.051 127.365 159.093 129.882 159.093H214.546C217.064 159.093 219.105 157.051 219.105 154.534V130.437C219.105 127.92 217.065 125.878 214.546 125.878Z" fill="#95999D"/>
<path d="M176.094 130.959H133.836C132.378 130.959 131.194 132.142 131.194 133.601C131.194 135.061 132.377 136.243 133.836 136.243H176.094C177.554 136.243 178.737 135.061 178.737 133.601C178.737 132.142 177.554 130.959 176.094 130.959Z" fill="#323649"/>
<path d="M206.621 139.844H132.984C131.996 139.844 131.195 140.644 131.195 141.633C131.195 142.621 131.995 143.422 132.984 143.422H206.621C207.608 143.422 208.41 142.622 208.41 141.633C208.409 140.644 207.608 139.844 206.621 139.844Z" fill="#BEBEBE"/>
<path d="M186.185 146.438H132.983C131.995 146.438 131.194 147.239 131.194 148.227C131.194 149.215 131.995 150.016 132.983 150.016H186.185C187.173 150.016 187.975 149.215 187.975 148.227C187.975 147.238 187.173 146.438 186.185 146.438Z" fill="#BEBEBE"/>
<path d="M149.348 152.385H140.677C139.689 152.385 138.888 153.185 138.888 154.174C138.888 155.162 139.689 155.963 140.677 155.963H149.348C150.336 155.963 151.137 155.163 151.137 154.174C151.136 153.185 150.336 152.385 149.348 152.385Z" fill="#323649"/>
<path d="M135.002 151.685L132.129 156.663H137.877L135.002 151.685Z" fill="#D7D7D7"/>
<path d="M174.992 152.385H166.322C165.334 152.385 164.532 153.185 164.532 154.174C164.532 155.162 165.333 155.963 166.322 155.963H174.992C175.98 155.963 176.782 155.163 176.782 154.174C176.782 153.185 175.98 152.385 174.992 152.385Z" fill="#323649"/>
<path d="M160.647 156.663L163.521 151.685H157.773L160.647 156.663Z" fill="#9E9E9E"/>
<path d="M214.546 169.35H129.882C127.365 169.35 125.324 171.391 125.324 173.909V198.005C125.324 200.523 127.365 202.564 129.882 202.564H214.546C217.064 202.564 219.105 200.523 219.105 198.005V173.909C219.105 171.391 217.065 169.35 214.546 169.35Z" fill="#95999D"/>
<path d="M176.094 174.431H133.836C132.378 174.431 131.194 175.614 131.194 177.073C131.194 178.533 132.377 179.715 133.836 179.715H176.094C177.554 179.715 178.737 178.533 178.737 177.073C178.737 175.614 177.554 174.431 176.094 174.431Z" fill="#323649"/>
<path d="M206.621 183.316H132.984C131.996 183.316 131.195 184.116 131.195 185.105C131.195 186.093 131.995 186.894 132.984 186.894H206.621C207.608 186.894 208.41 186.094 208.41 185.105C208.409 184.116 207.608 183.316 206.621 183.316Z" fill="#BEBEBE"/>
<path d="M186.185 189.909H132.983C131.995 189.909 131.194 190.71 131.194 191.699C131.194 192.687 131.995 193.488 132.983 193.488H186.185C187.173 193.488 187.975 192.687 187.975 191.699C187.975 190.71 187.173 189.909 186.185 189.909Z" fill="#BEBEBE"/>
<path d="M149.348 195.856H140.677C139.689 195.856 138.888 196.657 138.888 197.646C138.888 198.633 139.689 199.435 140.677 199.435H149.348C150.336 199.435 151.137 198.634 151.137 197.646C151.136 196.657 150.336 195.856 149.348 195.856Z" fill="#323649"/>
<path d="M135.002 195.156L132.129 200.134H137.877L135.002 195.156Z" fill="#D7D7D7"/>
<path d="M174.992 195.856H166.322C165.334 195.856 164.532 196.657 164.532 197.646C164.532 198.633 165.333 199.435 166.322 199.435H174.992C175.98 199.435 176.782 198.634 176.782 197.646C176.782 196.657 175.98 195.856 174.992 195.856Z" fill="#323649"/>
<path d="M160.647 200.134L163.521 195.156H157.773L160.647 200.134Z" fill="#9E9E9E"/>
<path d="M206.94 210.38H137.49C134.972 210.38 132.931 212.421 132.931 214.938V224.707C132.931 227.225 134.972 229.266 137.49 229.266H206.94C209.457 229.266 211.499 227.225 211.499 224.707V214.938C211.499 212.421 209.457 210.38 206.94 210.38Z" fill="#4B5067"/>
<path d="M193.343 217.181H151.085C149.627 217.181 148.443 218.364 148.443 219.823C148.443 221.283 149.626 222.465 151.085 222.465H193.343C194.802 222.465 195.986 221.283 195.986 219.823C195.986 218.364 194.803 217.181 193.343 217.181Z" fill="white"/>
<g opacity="0.3">
<path d="M70.7663 -16.2756L51.6031 -6.69405L70.7663 2.88754L89.9295 -6.69405L70.7663 -16.2756Z" stroke="white" stroke-width="1.43762" stroke-miterlimit="10" stroke-linejoin="round"/>
<path d="M51.6031 -6.69409V16.2103L70.7663 25.7911V2.8875L51.6031 -6.69409Z" stroke="white" stroke-width="1.43762" stroke-miterlimit="10" stroke-linejoin="round"/>
<path d="M70.7662 25.7911L89.9294 16.2103V-6.69409L70.7662 2.8875V25.7911Z" stroke="white" stroke-width="1.43762" stroke-miterlimit="10" stroke-linejoin="round"/>
</g>
<g opacity="0.3">
<path d="M288.046 243.906L268.883 253.487L288.046 263.069L307.209 253.487L288.046 243.906Z" stroke="white" stroke-width="1.43762" stroke-miterlimit="10" stroke-linejoin="round"/>
<path d="M268.883 253.487V276.392L288.046 285.973V263.069L268.883 253.487Z" stroke="white" stroke-width="1.43762" stroke-miterlimit="10" stroke-linejoin="round"/>
<path d="M288.046 285.973L307.209 276.392V253.487L288.046 263.069V285.973Z" stroke="white" stroke-width="1.43762" stroke-miterlimit="10" stroke-linejoin="round"/>
</g>
<g opacity="0.3">
<path d="M73.9701 239.206L64.5265 243.928L73.9701 248.649L83.413 243.928L73.9701 239.206Z" stroke="white" stroke-width="0.708408" stroke-miterlimit="10" stroke-linejoin="round"/>
<path d="M64.5265 243.928V255.215L73.9701 259.936V248.649L64.5265 243.928Z" stroke="white" stroke-width="0.708408" stroke-miterlimit="10" stroke-linejoin="round"/>
<path d="M73.9703 259.936L83.4132 255.215V243.928L73.9703 248.649V259.936Z" stroke="white" stroke-width="0.708408" stroke-miterlimit="10" stroke-linejoin="round"/>
</g>
<path d="M288.046 41.0661C300.095 41.0661 309.863 31.2982 309.863 19.249C309.863 7.19973 300.095 -2.56812 288.046 -2.56812C275.996 -2.56812 266.229 7.19973 266.229 19.249C266.229 31.2982 275.996 41.0661 288.046 41.0661Z" fill="#4D5062"/>
<path d="M288.045 36.5072C297.577 36.5072 305.304 28.7804 305.304 19.249C305.304 9.7175 297.577 1.99072 288.045 1.99072C278.514 1.99072 270.787 9.7175 270.787 19.249C270.787 28.7804 278.514 36.5072 288.045 36.5072Z" fill="#95999D"/>
<path d="M298.466 23.6547C298.466 27.0075 295.806 28.9463 290.708 28.9463H282.211C281.365 28.9463 280.679 28.2605 280.679 27.4144V11.084C280.679 10.2378 281.365 9.552 282.211 9.552H290.154C295.003 9.552 297.496 11.574 297.496 14.5948C297.496 16.5344 296.499 18.0301 294.92 18.8616C297.08 19.5536 298.466 21.2165 298.466 23.6547ZM285.139 12.9318V17.5038H289.599C291.789 17.5038 292.98 16.7278 292.98 15.2043C292.98 13.6809 291.789 12.9326 289.599 12.9326L285.139 12.9318ZM293.949 23.1831C293.949 21.5486 292.703 20.7726 290.375 20.7726H285.139V25.5657H290.375C292.703 25.5657 293.949 24.8452 293.949 23.1831Z" fill="#4D5062"/>
<path d="M290.224 25.5654H285.763V31.5083C285.763 32.7404 286.761 33.7384 287.993 33.7384C289.225 33.7384 290.223 32.7397 290.223 31.5083V25.5654H290.224Z" fill="#4D5062"/>
<path d="M287.993 4.75806C286.761 4.75806 285.763 5.75675 285.763 6.98816V12.931H290.224V6.98816C290.224 5.75675 289.225 4.75806 287.993 4.75806Z" fill="#4D5062"/>
<path d="M82.5264 107.225C87.0593 96.06 81.6831 83.3345 70.5182 78.8015C59.3534 74.2686 46.6278 79.6448 42.0949 90.8097C37.562 101.975 42.9382 114.7 54.103 119.233C65.2679 123.766 77.9934 118.39 82.5264 107.225Z" fill="#4D5062"/>
<path d="M62.2999 116.272C71.8313 116.272 79.5581 108.545 79.5581 99.0139C79.5581 89.4824 71.8313 81.7556 62.2999 81.7556C52.7684 81.7556 45.0416 89.4824 45.0416 99.0139C45.0416 108.545 52.7684 116.272 62.2999 116.272Z" fill="#95999D"/>
<path d="M62.2996 99.0137H53.8339L62.2996 114.156L70.7662 99.0137H62.2996Z" fill="#212330"/>
<path d="M62.2996 83.8723L53.8339 99.0137L62.2996 102.759L70.7662 99.0137L62.2996 83.8723Z" fill="#4D5062"/>
<path d="M276.326 164.303C288.375 164.303 298.143 154.535 298.143 142.486C298.143 130.436 288.375 120.668 276.326 120.668C264.276 120.668 254.509 130.436 254.509 142.486C254.509 154.535 264.276 164.303 276.326 164.303Z" fill="#4D5062"/>
<path d="M276.326 159.744C285.857 159.744 293.584 152.017 293.584 142.486C293.584 132.954 285.857 125.227 276.326 125.227C266.794 125.227 259.068 132.954 259.068 142.486C259.068 152.017 266.794 159.744 276.326 159.744Z" fill="#95999D"/>
<path d="M276.326 132.423L267.159 137.007V147.964L276.326 152.548L285.493 147.964V137.007L276.326 132.423Z" fill="#4D5062"/>
<path d="M267.159 137.007V137.009L276.326 141.592L285.493 137.009V137.007L276.326 132.423L267.159 137.007Z" fill="#212330"/>
<path opacity="0.3" d="M223.51 56.4787H287.993V46.6582" stroke="white" stroke-width="1.37035" stroke-miterlimit="10" stroke-linecap="round"/>
<path opacity="0.3" d="M87.8859 99.0142H121.426" stroke="white" stroke-width="1.37035" stroke-miterlimit="10" stroke-linecap="round"/>
<path opacity="0.3" d="M73.9702 51.5684H108.723" stroke="white" stroke-width="1.37035" stroke-miterlimit="10" stroke-linecap="round"/>
<path opacity="0.3" d="M249.023 143.422H222.697" stroke="white" stroke-width="1.37035" stroke-miterlimit="10" stroke-linecap="round"/>
<path opacity="0.3" d="M263.369 269.73H219.105" stroke="white" stroke-width="1.37035" stroke-miterlimit="10" stroke-linecap="round"/>
<path opacity="0.3" d="M216.285 272.55C217.842 272.55 219.105 271.288 219.105 269.73C219.105 268.172 217.842 266.91 216.285 266.91C214.727 266.91 213.464 268.172 213.464 269.73C213.464 271.288 214.727 272.55 216.285 272.55Z" stroke="white" stroke-width="1.37035" stroke-miterlimit="10" stroke-linecap="round"/>
<path opacity="0.3" d="M71.1494 54.389C72.707 54.389 73.9697 53.1263 73.9697 51.5687C73.9697 50.011 72.707 48.7483 71.1494 48.7483C69.5917 48.7483 68.329 50.011 68.329 51.5687C68.329 53.1263 69.5917 54.389 71.1494 54.389Z" stroke="white" stroke-width="1.37035" stroke-miterlimit="10" stroke-linecap="round"/>
<path opacity="0.3" d="M216.285 266.91V244.896" stroke="white" stroke-width="1.37035" stroke-miterlimit="10" stroke-linecap="round"/>
<path opacity="0.3" d="M71.149 48.7481V30.2515" stroke="white" stroke-width="1.37035" stroke-miterlimit="10" stroke-linecap="round"/>
<g opacity="0.3">
<path d="M10.3998 183.316L0.956177 188.037L10.3998 192.759L19.8427 188.037L10.3998 183.316Z" stroke="white" stroke-width="0.708408" stroke-miterlimit="10" stroke-linejoin="round"/>
<path d="M0.956177 188.037V199.324L10.3998 204.045V192.759L0.956177 188.037Z" stroke="white" stroke-width="0.708408" stroke-miterlimit="10" stroke-linejoin="round"/>
<path d="M10.3999 204.045L19.8428 199.324V188.037L10.3999 192.759V204.045Z" stroke="white" stroke-width="0.708408" stroke-miterlimit="10" stroke-linejoin="round"/>
<path d="M37.5919 196.501C39.1495 196.501 40.4122 195.238 40.4122 193.68C40.4122 192.123 39.1495 190.86 37.5919 190.86C36.0342 190.86 34.7715 192.123 34.7715 193.68C34.7715 195.238 36.0342 196.501 37.5919 196.501Z" stroke="white" stroke-width="1.37035" stroke-miterlimit="10" stroke-linecap="round"/>
<path d="M40.4124 193.68H115.576" stroke="white" stroke-width="1.37035" stroke-miterlimit="10" stroke-linecap="round"/>
<path d="M34.7707 193.68H25.9181" stroke="white" stroke-width="1.37035" stroke-miterlimit="10" stroke-linecap="round"/>
</g>
</g>
</svg>
