<svg width="382" height="301" viewBox="0 0 382 301" fill="none" xmlns="http://www.w3.org/2000/svg">
<g opacity="0.8">
<path d="M87.1213 111.822C95.6339 116.875 108.275 116.531 115.679 113.959C129.431 108.037 130.236 85.7933 126.301 78.6262L87.1213 111.822ZM87.1213 111.822C76.5433 105.615 65.7424 92.4231 66.9829 81.2801L87.1213 111.822ZM125.973 79.0741C126.788 80.6586 127.396 82.9891 127.679 85.75C128.001 88.8959 127.895 92.5478 127.224 96.1828C125.879 103.469 122.294 110.557 115.498 113.493C111.865 114.751 106.925 115.472 101.838 115.25C96.7408 115.028 91.5404 113.863 87.3766 111.392L87.3744 111.391C82.0667 108.276 76.6924 103.374 72.853 97.8635C69.1596 92.5621 66.9322 86.765 67.4633 81.4915C68.853 82.1433 70.0205 83.0414 71.1881 84.0045C71.3753 84.1589 71.563 84.3153 71.7517 84.4727C72.8911 85.4229 74.0714 86.4072 75.4525 87.181L75.9416 87.455L76.1581 86.9378C77.8961 82.7847 78.3294 78.4735 78.7564 74.2255C78.7856 73.9351 78.8148 73.6449 78.8443 73.3551C79.3084 68.8036 79.8675 64.3233 82.0449 60.0015L82.045 60.0015L82.0473 59.9968C83.6268 56.778 85.6743 52.6448 88.1015 48.6946C90.3774 44.9908 92.9672 41.4817 95.7901 39.0438C96.1705 40.7384 95.9498 42.821 95.561 45.0853C95.4536 45.7111 95.3333 46.3505 95.212 46.995C94.8422 48.9605 94.4634 50.9737 94.4135 52.7932L94.413 52.813L94.414 52.8328C94.6398 57.1986 94.957 62.2301 95.9973 66.5359C97.0797 71.1361 99.074 76.3111 102.97 79.948L103.475 80.4199L103.765 79.792C104.496 78.2083 104.964 76.4645 105.426 74.7423C105.568 74.2134 105.709 73.6865 105.857 73.1669C106.412 71.2233 107.071 69.3394 108.212 67.649C109.669 71.8624 111.61 75.9335 113.581 79.9728C113.764 80.3497 113.949 80.7263 114.133 81.1027C116.069 85.0616 117.995 89.0003 119.514 93.0616L119.818 93.8728L120.369 93.2043C122.365 90.7804 123.028 88.0612 123.626 85.5023L123.663 85.344C124.195 83.064 124.693 80.9333 125.973 79.0741Z" fill="#12172E" stroke="#515561"/>
<path d="M126.391 64.8652C126.75 66.6469 126.481 68.4636 125.531 70.1795C125.381 69.5238 125.121 68.8885 124.816 68.2744C124.547 67.7324 124.237 67.1933 123.925 66.6622C123.876 66.5781 123.827 66.4943 123.778 66.4107C123.514 65.9616 123.253 65.5178 123.009 65.0677C122.431 63.9986 121.984 62.9493 121.88 61.8677C121.792 60.9399 121.954 59.961 122.556 58.8996C124.695 60.7263 125.973 62.7952 126.391 64.8652Z" fill="#12172E" stroke="#515561"/>
<path d="M87.0081 59.749C87.2713 57.9254 88.1375 56.1868 89.6114 54.6833C89.5492 55.3141 89.5804 55.9494 89.6555 56.5779C89.726 57.1681 89.8369 57.7638 89.951 58.3507C89.9691 58.4436 89.9872 58.5363 90.0053 58.6287C90.1025 59.1251 90.1984 59.6149 90.2757 60.1072C90.4587 61.2739 90.5268 62.3992 90.2563 63.4915C90.0214 64.4401 89.5238 65.3928 88.5691 66.3351C87.2008 64.1303 86.7034 61.8605 87.0081 59.749Z" fill="#494C58" stroke="#515561"/>
<path d="M90.4011 106.105C85.5042 103.141 81.2769 99.2371 78.7863 95.6744C80.9039 96.1337 83.0371 96.7538 85.1897 97.3796C86.4777 97.754 87.7728 98.1304 89.0754 98.4756L89.933 98.7029L89.6833 97.8516C87.5446 90.5593 87.1441 79.5483 88.3543 72.1702C92.2285 74.7438 93.9808 78.7111 95.454 83.1724C95.732 84.0144 96.0002 84.8753 96.2716 85.7465C97.499 89.6866 98.7918 93.8369 101.36 97.4012L102.129 98.4682L102.263 97.1599C102.504 94.8106 103.881 92.3399 105.474 89.5156L105.514 89.4444C106.885 87.0148 108.382 84.3589 109.269 81.4241C111.708 86.2558 111.721 90.2816 111.432 93.8702C111.387 94.4294 111.334 94.9841 111.282 95.5328C111.154 96.8649 111.03 98.1616 111.034 99.3997C111.04 101.171 111.304 102.888 112.2 104.57L112.414 104.972L112.834 104.797C114.67 104.031 116.569 102.296 118.374 100.614C118.465 100.529 118.556 100.444 118.646 100.36C120.185 98.9243 121.661 97.5478 123.053 96.6942C123.47 99.2067 122.245 102.234 119.644 104.891C116.84 107.754 112.509 110.099 107.24 110.75C101.839 111.417 95.7614 109.35 90.4011 106.105Z" fill="#494C58" stroke="#515561"/>
<path d="M69.0079 73.4539C67.3992 70.1388 67.0779 66.6983 67.1252 63.1703C67.1434 61.811 67.2155 60.4552 67.2882 59.0879C67.3249 58.3983 67.3618 57.7058 67.3919 57.0085C67.4422 55.8473 67.4732 54.6807 67.4513 53.514C69.0584 57.3966 70.228 61.8624 70.3118 65.839L70.3117 65.839L70.3122 65.8508C70.3767 67.2907 70.015 68.8085 69.6285 70.4134L69.6191 70.4523C69.3834 71.4309 69.1397 72.4426 69.0079 73.4539Z" fill="#12172E" stroke="#515561"/>
<path d="M91.8695 33.3748C91.6552 34.4464 91.0815 35.5488 89.9289 36.6839C87.4781 32.1414 87.914 28.406 88.5917 23.5095C88.9077 24.2476 89.2682 24.9753 89.6291 25.6885C89.7028 25.834 89.7764 25.9789 89.8497 26.1231C90.46 27.3242 91.0495 28.4843 91.4552 29.6403C91.907 30.9279 92.1119 32.1624 91.8695 33.3748Z" fill="#12172E" stroke="#515561"/>
<path d="M79.0006 37.7778C78.1577 35.386 77.4048 33.0057 77.1243 30.4838C77.5427 31.2525 78.045 32.011 78.5773 32.7566C79.0692 33.4457 79.5814 34.1178 80.0896 34.7847C80.8716 35.8109 81.6441 36.8246 82.3184 37.8684C83.4182 39.571 84.1491 41.2062 84.1071 42.8124C84.0707 44.2069 83.4472 45.6659 81.7791 47.1928C81.3611 44.3584 80.4081 41.7051 79.4742 39.1048C79.3149 38.6611 79.1561 38.219 79.0006 37.7778Z" fill="#12172E" stroke="#515561"/>
<path d="M112.597 49.407C113.099 48.859 113.593 48.3417 114.09 47.8896C114.2 48.6315 114.169 49.5902 113.984 50.636C113.733 52.0534 113.212 53.5545 112.464 54.7662C111.711 55.9859 110.769 56.8494 109.7 57.1186C108.66 57.3808 107.363 57.1116 105.805 55.7679L105.798 55.7623L105.792 55.757C104.807 54.9646 104.553 53.9447 104.732 52.6915C104.916 51.4023 105.554 49.9345 106.302 48.364C106.425 48.106 106.551 47.8453 106.678 47.5828C107.308 46.2781 107.959 44.9297 108.374 43.6505C108.508 43.2395 108.62 42.8266 108.7 42.4164C108.91 43.3049 109.047 44.2859 109.145 45.2917C109.245 46.3089 109.303 47.3377 109.358 48.3114C109.364 48.4137 109.37 48.5154 109.375 48.6164C109.436 49.6702 109.497 50.6595 109.613 51.4551L109.759 52.4589L110.466 51.7317C110.949 51.2349 111.433 50.6974 111.908 50.1686C112.14 49.9107 112.37 49.6549 112.597 49.407Z" fill="#12172E" stroke="#515561"/>
<path d="M257.31 50.5153C254.643 47.4572 253.131 44.1322 253.578 41.0738C254.595 41.4298 255.446 41.9296 256.301 42.4697C256.441 42.5582 256.582 42.6481 256.724 42.7388C257.582 43.2874 258.481 43.8627 259.541 44.3026L259.951 44.4724L260.168 44.0866C261.636 41.4875 262.084 38.8214 262.519 36.2363C262.549 36.0573 262.579 35.8787 262.609 35.7006C263.08 32.9317 263.617 30.2408 265.382 27.6029L265.382 27.6029L265.385 27.5982C267.901 23.7472 271.803 17.8679 276.4 14.6482C276.459 14.9902 276.469 15.3687 276.438 15.7828C276.387 16.4577 276.23 17.1952 276.028 17.9757C275.933 18.3463 275.826 18.7294 275.718 19.1187C275.381 20.3267 275.028 21.5936 274.942 22.7268L274.94 22.7519L274.941 22.7771C275.008 25.4177 275.128 28.4942 275.835 31.1169C276.568 33.9182 278.007 37.0668 280.982 39.2147L281.418 39.5293L281.7 39.072C282.316 38.074 282.732 36.9772 283.133 35.9166C283.255 35.5952 283.375 35.2772 283.499 34.9662C283.958 33.8203 284.486 32.7158 285.344 31.7068C286.369 34.182 287.744 36.5595 289.134 38.9026C289.266 39.1265 289.399 39.35 289.532 39.5732C290.933 41.931 292.318 44.2613 293.387 46.6743L293.674 47.3221L294.188 46.8348C295.823 45.2848 296.417 43.5773 296.946 42.0015L296.976 41.9111C297.435 40.5415 297.853 39.2935 298.821 38.179C299.345 39.0732 299.722 40.3785 299.863 41.9511C300.032 43.82 299.862 46.0084 299.261 48.2042C298.058 52.5918 295.15 56.9501 289.835 58.895C286.993 59.7489 283.153 60.3083 279.223 60.2999C275.283 60.2915 271.297 59.7123 268.153 58.3223L268.151 58.3214C264.134 56.568 260.12 53.7386 257.31 50.5153Z" fill="#12172E" stroke="#515561"/>
<path d="M299.389 29.3387C299.593 30.2747 299.4 31.2668 298.728 32.2516C298.613 31.9161 298.449 31.5984 298.269 31.3002C298.069 30.9684 297.837 30.6418 297.609 30.3271C297.572 30.2767 297.536 30.2267 297.5 30.1769C297.307 29.9108 297.119 29.6525 296.945 29.3899C296.529 28.762 296.24 28.1817 296.193 27.5971C296.154 27.1249 296.27 26.5972 296.71 25.9883C298.272 27.0244 299.139 28.1944 299.389 29.3387Z" fill="#12172E" stroke="#515561"/>
<path d="M269.26 27.2521C269.48 26.2653 270.096 25.2814 271.139 24.3867C271.125 24.6584 271.139 24.9275 271.168 25.1911C271.21 25.5611 271.283 25.9307 271.357 26.2846C271.369 26.3414 271.381 26.3978 271.393 26.4538C271.456 26.7528 271.516 27.0405 271.563 27.3305C271.672 28.0145 271.691 28.6461 271.474 29.2599C271.29 29.7832 270.918 30.3387 270.194 30.9139C269.276 29.6817 268.998 28.4245 269.26 27.2521Z" fill="#494C58" stroke="#515561"/>
<path d="M270.625 55.0388C267.152 53.4702 264.169 51.3939 262.316 49.4363C263.813 49.6581 265.317 49.9558 266.835 50.2561C267.822 50.4516 268.816 50.6482 269.817 50.8258L270.648 50.9731L270.378 50.1738C268.937 45.899 268.884 39.3688 269.958 34.9036C272.788 36.3452 274.003 38.6367 275.012 41.2558C275.203 41.7506 275.386 42.2601 275.573 42.7782C276.425 45.1419 277.342 47.6841 279.275 49.8214L279.965 50.5849L280.138 49.5703C280.252 48.9062 280.575 48.1931 281.049 47.4111C281.523 46.6304 282.126 45.8169 282.773 44.9448L282.817 44.8863C283.896 43.4324 285.091 41.8232 285.864 40.0588C287.485 42.7902 287.395 45.1122 287.094 47.2221C287.047 47.5509 286.994 47.8821 286.94 48.2128C286.807 49.0314 286.675 49.8469 286.647 50.6153C286.606 51.7263 286.774 52.8208 287.462 53.8763L287.677 54.2061L288.048 54.0745C289.493 53.562 291.012 52.4566 292.451 51.3903C292.523 51.337 292.595 51.2838 292.667 51.2307C293.852 50.3516 294.984 49.5117 296.045 48.9596C296.089 49.5252 295.948 50.1544 295.61 50.8254C295.154 51.7317 294.352 52.6828 293.238 53.5812C291.013 55.3769 287.611 56.9083 283.514 57.4343C279.32 57.9729 274.676 56.8684 270.625 55.0388Z" fill="#494C58" stroke="#515561"/>
<path d="M254.838 35.6053C253.826 33.7596 253.68 31.8147 253.798 29.7805C253.845 28.9611 253.933 28.1478 254.023 27.3202C254.069 26.8992 254.115 26.4745 254.156 26.0434C254.21 25.484 254.254 24.9197 254.277 24.3536C255.309 26.5516 256.003 29.0306 255.972 31.2585L255.972 31.2661L255.972 31.2737C255.985 32.0919 255.686 32.9782 255.343 33.9741L255.327 34.0205C255.153 34.5259 254.968 35.0612 254.838 35.6053Z" fill="#12172E" stroke="#515561"/>
<path d="M273.464 10.9512C273.293 11.537 272.866 12.1806 271.987 12.8769C270.394 10.3988 270.725 8.29734 271.325 5.48698C271.523 5.85062 271.738 6.20533 271.95 6.54892C272.003 6.63554 272.056 6.72143 272.109 6.80668C272.554 7.52401 272.969 8.1953 273.246 8.86641C273.551 9.60562 273.66 10.2847 273.464 10.9512Z" fill="#12172E" stroke="#515561"/>
<path d="M263.595 13.9572C263.066 12.6806 262.602 11.4289 262.402 10.1198C262.662 10.4721 262.952 10.8143 263.248 11.1457C263.603 11.542 263.985 11.9399 264.361 12.3316C264.467 12.4419 264.572 12.5516 264.676 12.6608C265.155 13.1626 265.613 13.6549 266.009 14.147C266.813 15.1486 267.28 16.055 267.216 16.9242C267.162 17.649 266.725 18.4806 265.488 19.411C265.202 17.7591 264.551 16.2212 263.926 14.7448C263.814 14.4804 263.703 14.2179 263.595 13.9572Z" fill="#12172E" stroke="#515561"/>
<path d="M289.255 20.4461C289.612 20.1395 289.963 19.8487 290.313 19.5878C290.327 19.9467 290.276 20.39 290.145 20.8871C289.924 21.7227 289.497 22.62 288.904 23.3538C288.311 24.0882 287.577 24.6297 286.746 24.8191C285.929 25.0053 284.947 24.8678 283.808 24.1131L283.801 24.1084L283.794 24.1039C283.434 23.8822 283.253 23.6459 283.167 23.4139C283.078 23.1758 283.068 22.8866 283.147 22.5287C283.311 21.7885 283.818 20.9135 284.441 19.9343C284.54 19.7771 284.643 19.6175 284.747 19.4561C285.267 18.6489 285.814 17.7984 286.174 16.9957C286.239 16.8527 286.299 16.7072 286.353 16.5601C286.434 16.9656 286.488 17.4007 286.526 17.8501C286.577 18.4578 286.597 19.0738 286.615 19.6645C286.617 19.7262 286.619 19.7877 286.621 19.8489C286.641 20.4838 286.665 21.0982 286.737 21.5957L286.864 22.4667L287.547 21.9119C287.935 21.5972 288.325 21.2565 288.706 20.923C288.892 20.7611 289.075 20.6009 289.255 20.4461Z" fill="#12172E" stroke="#515561"/>
<path d="M225.44 81.0968C228.261 77.0485 229.965 72.6417 229.617 68.631C228.615 69.1237 227.759 69.784 226.895 70.4961C226.751 70.6153 226.606 70.7362 226.46 70.8581C225.576 71.5949 224.652 72.3659 223.571 72.9717L223.081 73.2457L222.865 72.7285C221.51 69.4906 221.172 66.1304 220.841 62.8381C220.819 62.6116 220.796 62.3855 220.773 62.1597C220.413 58.6285 219.98 55.1718 218.301 51.8396L218.301 51.8396L218.299 51.8349C217.074 49.3378 215.487 46.1357 213.608 43.0764C211.883 40.27 209.931 37.6159 207.81 35.742C207.575 36.9969 207.739 38.5236 208.027 40.1988C208.109 40.6799 208.202 41.173 208.296 41.6712C208.583 43.1981 208.88 44.7729 208.919 46.1942L208.919 46.214L208.918 46.2337C208.743 49.6194 208.497 53.5325 207.687 56.8843C206.845 60.4615 205.291 64.5013 202.246 67.3448L201.74 67.8166L201.45 67.1888C200.879 65.9506 200.513 64.5849 200.154 63.247C200.044 62.8383 199.935 62.4322 199.821 62.0331C199.412 60.6009 198.933 59.2204 198.134 57.9731C197.009 61.1727 195.534 64.2665 194.038 67.3312C193.896 67.6235 193.753 67.9154 193.61 68.2072C192.108 71.2793 190.616 74.3299 189.439 77.4751L189.136 78.2863L188.585 77.6178C187.018 75.7149 186.499 73.5809 186.036 71.5971L186.009 71.4846C185.61 69.7741 185.241 68.1941 184.339 66.8077C183.758 68.0134 183.321 69.7379 183.112 71.7752C182.863 74.2051 182.945 77.0274 183.464 79.8368C184.504 85.4718 187.271 90.9238 192.491 93.1809C195.294 94.1512 199.11 94.708 203.042 94.5368C206.984 94.3652 210.999 93.4643 214.208 91.5592L214.21 91.5579C218.314 89.1502 222.471 85.3587 225.44 81.0968Z" fill="#12172E" stroke="#515561"/>
<path d="M184.11 55.5846C183.854 56.8516 184.016 58.1433 184.631 59.3765C184.753 58.9564 184.926 58.5497 185.121 58.1573C185.332 57.733 185.574 57.3118 185.816 56.8997C185.854 56.8342 185.893 56.769 185.931 56.704C186.136 56.3556 186.337 56.0133 186.525 55.6662C186.971 54.8408 187.309 54.0428 187.387 53.2263C187.45 52.5651 187.345 51.8673 186.943 51.1099C185.362 52.4919 184.421 54.0421 184.11 55.5846Z" fill="#12172E" stroke="#515561"/>
<path d="M214.44 51.6094C214.253 50.3106 213.664 49.0653 212.665 47.9678C212.681 48.3631 212.655 48.7578 212.609 49.1467C212.554 49.6089 212.467 50.0746 212.378 50.53C212.364 50.6024 212.35 50.6745 212.336 50.7463C212.261 51.1314 212.187 51.509 212.127 51.8886C211.986 52.7882 211.936 53.6438 212.14 54.4697C212.309 55.1507 212.658 55.8378 213.319 56.522C214.312 54.8694 214.667 53.1792 214.44 51.6094Z" fill="#494C58" stroke="#515561"/>
<path d="M211.861 87.4589C215.541 85.2314 218.729 82.319 220.669 79.6352C219.125 79.9829 217.571 80.4346 216.001 80.8913C215 81.1821 213.993 81.475 212.976 81.7443L212.119 81.9716L212.368 81.1203C214.006 75.5375 214.326 67.127 213.424 61.4206C210.553 63.3968 209.229 66.3989 208.106 69.7995C207.891 70.4489 207.684 71.1141 207.474 71.7883C206.522 74.8456 205.513 78.0867 203.509 80.868L202.74 81.935L202.606 80.6267C202.422 78.8324 201.368 76.9377 200.128 74.7402L200.094 74.6794C199.075 72.8719 197.958 70.8914 197.259 68.7088C195.503 72.3206 195.498 75.3436 195.716 78.0543C195.75 78.4839 195.791 78.9119 195.832 79.3363C195.931 80.3722 196.028 81.3868 196.025 82.3532C196.02 83.7385 195.814 85.0902 195.108 86.4167L194.894 86.8185L194.474 86.6432C193.027 86.0396 191.539 84.6778 190.142 83.3767C190.074 83.3129 190.006 83.2492 189.938 83.1857C188.791 82.1166 187.702 81.1004 186.675 80.4404C186.439 82.3084 187.368 84.5468 189.314 86.5341C191.471 88.7368 194.807 90.5447 198.87 91.0464C203.024 91.5595 207.713 89.9695 211.861 87.4589Z" fill="#494C58" stroke="#515561"/>
<path d="M228.572 61.8391C229.673 59.3938 229.898 56.8581 229.864 54.249C229.849 53.1966 229.794 52.1487 229.737 51.0895C229.709 50.554 229.68 50.0156 229.657 49.4722C229.626 48.7669 229.605 48.058 229.605 47.3479C228.478 50.2168 227.676 53.4374 227.616 56.32L227.616 56.32L227.615 56.3319C227.566 57.4301 227.842 58.5915 228.143 59.84L228.152 59.8778C228.305 60.5141 228.464 61.1739 228.572 61.8391Z" fill="#12172E" stroke="#515561"/>
<path d="M210.89 31.1114C211.044 31.8838 211.448 32.6843 212.258 33.5139C213.998 30.2044 213.751 27.4453 213.266 23.8878C213.061 24.3397 212.839 24.7849 212.618 25.2213C212.561 25.3343 212.504 25.4466 212.447 25.5583C211.973 26.4912 211.519 27.3842 211.207 28.2734C210.86 29.262 210.707 30.198 210.89 31.1114Z" fill="#12172E" stroke="#515561"/>
<path d="M220.657 34.5118C221.248 32.8355 221.779 31.1735 222.035 29.4351C221.773 29.8694 221.484 30.2977 221.183 30.719C220.797 31.26 220.398 31.7836 220.003 32.3013C219.399 33.0937 218.805 33.8726 218.284 34.6802C217.434 35.9959 216.882 37.2405 216.914 38.4518C216.94 39.4528 217.369 40.5099 218.529 41.6255C218.87 39.4931 219.59 37.4912 220.291 35.5392C220.414 35.1953 220.537 34.853 220.657 34.5118Z" fill="#12172E" stroke="#515561"/>
<path d="M194.618 43.6462C194.284 43.2812 193.955 42.9355 193.627 42.6253C193.578 43.1502 193.61 43.7981 193.735 44.5044C193.928 45.5926 194.328 46.7432 194.899 47.6691C195.476 48.6029 196.186 49.2453 196.975 49.4441C197.736 49.6359 198.706 49.447 199.897 48.4201L199.903 48.4145L199.91 48.4092C200.634 47.826 200.826 47.0791 200.691 46.1344C200.551 45.1536 200.064 44.0296 199.482 42.8096C199.388 42.6108 199.29 42.4094 199.192 42.2063C198.704 41.1943 198.194 40.1398 197.87 39.1395C197.818 38.9815 197.771 38.8226 197.728 38.6635C197.624 39.2102 197.548 39.793 197.49 40.3889C197.413 41.1756 197.368 41.9714 197.325 42.7271C197.321 42.8064 197.316 42.8852 197.312 42.9636C197.265 43.78 197.217 44.5525 197.126 45.1755L196.98 46.1793L196.273 45.4521C195.897 45.0652 195.519 44.6452 195.15 44.234C194.97 44.0344 194.793 43.8369 194.618 43.6462Z" fill="#12172E" stroke="#515561"/>
<path d="M196.643 273.467C194.565 270.484 193.305 267.258 193.498 264.32C194.172 264.675 194.764 265.132 195.367 265.63C195.475 265.719 195.583 265.809 195.693 265.901C196.36 266.457 197.067 267.047 197.894 267.511L198.383 267.785L198.6 267.267C199.63 264.806 199.887 262.252 200.136 259.77C200.153 259.598 200.17 259.426 200.188 259.255C200.46 256.589 200.785 254 202.041 251.507L202.041 251.507L202.043 251.502C202.968 249.617 204.164 247.205 205.579 244.901C206.833 242.86 208.243 240.934 209.766 239.542C209.884 240.421 209.767 241.475 209.567 242.644C209.505 243.002 209.436 243.371 209.365 243.746C209.148 244.9 208.922 246.103 208.892 247.187L208.891 247.207L208.892 247.227C209.024 249.781 209.211 252.746 209.825 255.288C210.462 257.998 211.643 261.075 213.968 263.246L214.473 263.718L214.763 263.09C215.199 262.145 215.48 261.099 215.751 260.088C215.833 259.781 215.915 259.477 215.999 259.18C216.283 258.185 216.61 257.233 217.126 256.364C217.966 258.701 219.046 260.963 220.137 263.2C220.244 263.42 220.352 263.64 220.459 263.86C221.594 266.18 222.717 268.478 223.604 270.846L223.907 271.657L224.458 270.989C225.661 269.528 226.058 267.89 226.407 266.394L226.424 266.321C226.709 265.101 226.968 263.99 227.552 263.009C227.935 263.888 228.227 265.095 228.373 266.513C228.559 268.336 228.498 270.454 228.109 272.564C227.327 276.798 225.254 280.863 221.371 282.544C219.272 283.27 216.409 283.688 213.455 283.56C210.493 283.431 207.484 282.754 205.084 281.329L205.082 281.328C202 279.519 198.875 276.67 196.643 273.467Z" fill="#12172E" stroke="#515561"/>
<path d="M227.621 254.303C227.79 255.136 227.712 255.985 227.367 256.807C227.286 256.587 227.191 256.373 227.088 256.166C226.927 255.842 226.742 255.521 226.559 255.21C226.53 255.16 226.501 255.11 226.472 255.061C226.318 254.798 226.167 254.542 226.027 254.282C225.692 253.663 225.446 253.079 225.389 252.487C225.348 252.053 225.407 251.595 225.641 251.099C226.747 252.101 227.4 253.209 227.621 254.303Z" fill="#12172E" stroke="#515561"/>
<path d="M204.967 251.296C205.091 250.438 205.454 249.609 206.062 248.861C206.068 249.054 206.084 249.245 206.107 249.434C206.149 249.787 206.215 250.143 206.282 250.487C206.293 250.542 206.304 250.596 206.314 250.651C206.371 250.941 206.427 251.224 206.471 251.508C206.577 252.181 206.612 252.808 206.463 253.408C206.351 253.861 206.129 254.32 205.715 254.782C205.041 253.601 204.807 252.405 204.967 251.296Z" fill="#494C58" stroke="#515561"/>
<path d="M206.857 278.235C204.211 276.633 201.908 274.563 200.441 272.628C201.494 272.877 202.553 273.185 203.626 273.497C204.383 273.717 205.146 273.939 205.92 274.144L206.777 274.371L206.528 273.52C205.316 269.388 205.063 263.184 205.704 258.899C207.726 260.366 208.687 262.55 209.511 265.048C209.672 265.534 209.827 266.033 209.985 266.54C210.704 268.849 211.473 271.319 212.999 273.436L213.768 274.503L213.902 273.195C214.038 271.871 214.817 270.465 215.756 268.799L215.786 268.747C216.508 267.466 217.301 266.059 217.836 264.514C219.018 267.092 219.016 269.265 218.858 271.23C218.833 271.55 218.802 271.871 218.772 272.19C218.697 272.974 218.622 273.75 218.625 274.486C218.628 275.544 218.786 276.586 219.331 277.61L219.545 278.012L219.965 277.837C221.082 277.371 222.222 276.325 223.271 275.348C223.321 275.302 223.37 275.256 223.419 275.21C224.227 274.456 224.987 273.747 225.702 273.257C225.787 274.577 225.11 276.142 223.725 277.556C222.117 279.198 219.625 280.55 216.585 280.926C213.487 281.308 209.976 280.123 206.857 278.235Z" fill="#494C58" stroke="#515561"/>
<path d="M194.131 258.575C193.448 256.868 193.302 255.1 193.326 253.272C193.337 252.48 193.379 251.694 193.421 250.896C193.443 250.491 193.465 250.083 193.482 249.67C193.496 249.352 193.508 249.033 193.514 248.713C194.239 250.708 194.737 252.879 194.778 254.837L194.778 254.837L194.779 254.849C194.815 255.657 194.612 256.516 194.384 257.463L194.375 257.499C194.291 257.847 194.204 258.208 194.131 258.575Z" fill="#12172E" stroke="#515561"/>
<path d="M207.406 235.781C207.302 236.299 207.042 236.842 206.523 237.409C205.379 235.141 205.481 233.211 205.799 230.783C205.902 230.996 206.007 231.207 206.112 231.414C206.156 231.5 206.199 231.584 206.241 231.668C206.6 232.374 206.938 233.04 207.171 233.703C207.429 234.438 207.538 235.121 207.406 235.781Z" fill="#12172E" stroke="#515561"/>
<path d="M200.269 238.331C199.892 237.261 199.549 236.205 199.337 235.118C199.441 235.274 199.548 235.428 199.657 235.58C199.953 235.996 200.256 236.393 200.555 236.784C201.008 237.378 201.45 237.958 201.842 238.565C202.48 239.553 202.879 240.466 202.856 241.343C202.839 242.011 202.573 242.725 201.841 243.487C201.568 241.952 201.048 240.505 200.545 239.104C200.452 238.845 200.359 238.587 200.269 238.331Z" fill="#12172E" stroke="#515561"/>
<path d="M219.9 245.35C220.086 245.146 220.269 244.952 220.45 244.771C220.458 245.1 220.428 245.481 220.355 245.893C220.212 246.702 219.915 247.556 219.493 248.239C219.066 248.931 218.552 249.386 218 249.525C217.476 249.657 216.784 249.536 215.905 248.778L215.898 248.772L215.892 248.767C215.387 248.361 215.249 247.846 215.346 247.163C215.449 246.443 215.808 245.611 216.248 244.688C216.319 244.54 216.392 244.389 216.465 244.236C216.813 243.517 217.178 242.761 217.426 242.038C217.463 242.292 217.494 242.554 217.52 242.82C217.577 243.411 217.611 244.01 217.643 244.58C217.647 244.64 217.65 244.7 217.654 244.759C217.689 245.374 217.725 245.963 217.794 246.439L217.94 247.443L218.648 246.716C218.933 246.422 219.221 246.102 219.501 245.79C219.636 245.64 219.769 245.492 219.9 245.35Z" fill="#12172E" stroke="#515561"/>
<path d="M52.1061 111.504C49.6045 109.45 46.929 107.608 44.1179 106.004L42.5852 114.859" stroke="#23222D" stroke-width="1.5" stroke-miterlimit="10" stroke-linecap="round" stroke-linejoin="round"/>
<path d="M44.1177 106.004C50.4624 118.67 64.7944 131.737 78.6668 134.609C92.5392 137.48 108.172 132.231 116.283 120.617" stroke="#23222D" stroke-width="1.5" stroke-miterlimit="10" stroke-linecap="round" stroke-linejoin="round" stroke-dasharray="5 7 5 7 5 7"/>
<path opacity="0.15" d="M68.9798 89.6772C69.1403 84.5956 69.0782 79.5065 68.7953 74.4297C68.5679 70.3534 65.4624 67.033 61.4072 66.5629C50.0879 65.2519 38.5356 65.1897 26.9908 65.9083C22.689 66.1768 19.2816 69.6483 19.1459 73.9558C18.9739 79.3775 19.0112 84.8527 19.3122 90.6518C19.531 94.8628 22.882 98.2215 27.0883 98.5197C38.3683 99.3175 49.7955 99.1541 61.6097 97.7342C65.7252 97.2392 68.8488 93.8203 68.9798 89.6772Z" fill="#23222D"/>
<path d="M63.3878 84.4274C63.5484 79.3459 63.4863 74.2567 63.2034 69.18C62.976 65.1037 59.8705 61.7832 55.8153 61.3131C44.496 60.0021 32.9436 59.94 21.3989 60.6586C17.0971 60.9271 13.6897 64.3985 13.554 68.706C13.382 74.1277 13.4193 79.6029 13.7203 85.402C13.9391 89.6131 17.2901 92.9718 21.4964 93.2699C32.7764 94.0678 44.2036 93.9044 56.0178 92.4844C60.1333 91.9895 63.2569 88.5706 63.3878 84.4274Z" fill="white"/>
<path d="M24.9655 71.3175C34.4558 71.0012 43.9586 71.0624 53.4451 71.5" stroke="#23222D" stroke-width="1.5" stroke-miterlimit="10" stroke-linecap="round" stroke-linejoin="round"/>
<path d="M24.3709 81.9106C30.9325 82.0148 37.4942 82.1199 44.0558 82.2241" stroke="#23222D" stroke-width="1.5" stroke-miterlimit="10" stroke-linecap="round" stroke-linejoin="round"/>
<path d="M63.3878 84.4274C63.5484 79.3459 63.4863 74.2567 63.2034 69.18C62.976 65.1037 59.8705 61.7832 55.8153 61.3131C44.496 60.0021 32.9436 59.94 21.3989 60.6586C17.0971 60.9271 13.6897 64.3985 13.554 68.706C13.382 74.1277 13.4193 79.6029 13.7203 85.402C13.9391 89.6131 17.2901 92.9718 21.4964 93.2699C32.7764 94.0678 44.2036 93.9044 56.0178 92.4844C60.1333 91.9895 63.2569 88.5706 63.3878 84.4274Z" stroke="#23222D" stroke-width="1.5" stroke-miterlimit="10" stroke-linecap="round" stroke-linejoin="round"/>
<path d="M176.037 208.684C165.99 240.519 169.521 278.721 182.731 309.378" stroke="#23222D" stroke-width="1.5" stroke-miterlimit="10" stroke-linecap="round" stroke-linejoin="round" stroke-dasharray="5 7 5 7 5 7"/>
<path d="M174.146 304.864C176.873 306.607 179.749 308.118 182.731 309.378L183.202 300.403" stroke="#23222D" stroke-width="1.5" stroke-miterlimit="10" stroke-linecap="round" stroke-linejoin="round"/>
<path d="M138.777 211.059C135.659 226.794 130.515 242.468 120.861 255.28C111.209 268.092 96.5123 277.766 80.489 278.529C64.4657 279.293 46.2045 265.028 41.2596 249.768" stroke="#23222D" stroke-width="1.5" stroke-miterlimit="10" stroke-linecap="round" stroke-linejoin="round" stroke-dasharray="5 7 5 7 5 7"/>
<path d="M39.0198 259.047C39.7661 255.954 40.5133 252.86 41.2596 249.767L48.1824 255.417" stroke="#23222D" stroke-width="1.5" stroke-miterlimit="10" stroke-linecap="round" stroke-linejoin="round"/>
<path opacity="0.15" d="M67.6048 246.3H17.4404C10.9074 246.3 5.6109 241.004 5.6109 234.471V184.306C5.6109 177.773 10.9074 172.477 17.4404 172.477H67.6048C74.1378 172.477 79.4343 177.773 79.4343 184.306V234.471C79.4343 241.005 74.1378 246.3 67.6048 246.3Z" fill="#23222D"/>
<path d="M62.7697 241.227H12.6053C6.07233 241.227 0.775818 235.931 0.775818 229.398V179.233C0.775818 172.7 6.07233 167.404 12.6053 167.404H62.7697C69.3027 167.404 74.5992 172.7 74.5992 179.233V229.398C74.5992 235.931 69.3027 241.227 62.7697 241.227Z" fill="white"/>
<path d="M62.7698 241.227H12.6053C6.07233 241.227 0.775818 235.931 0.775818 229.398V179.233C0.775818 172.7 6.07233 167.404 12.6053 167.404H62.7698C69.3027 167.404 74.5992 172.7 74.5992 179.233V229.398C74.5992 235.931 69.3027 241.227 62.7698 241.227Z" stroke="#23222D" stroke-width="1.5" stroke-miterlimit="10" stroke-linecap="round" stroke-linejoin="round"/>
<path d="M54.9097 189.429C49.0628 195.693 42.9856 201.743 36.6667 207.532C35.5267 198.651 34.2788 190.284 32.5426 181.735C28.8418 182.397 25.2987 183.887 22.3222 186.196C14.463 192.295 11.1396 203.626 14.4611 213.005C17.7815 222.382 27.4955 229.097 37.4426 228.89C47.3887 228.683 56.8141 221.57 59.7418 212.062C62.08 204.471 60.2243 195.675 54.9097 189.429Z" fill="#3A405D"/>
<path d="M34.9908 175.318C36.726 183.867 37.974 192.233 39.1149 201.115C45.4328 195.325 51.51 189.276 57.3579 183.012C56.0163 181.435 54.4645 180.012 52.692 178.823C47.5598 175.376 41.0613 174.231 34.9908 175.318Z" fill="#23222D"/>
<path d="M324.39 123.215C327.596 123.658 330.841 123.828 334.076 123.724L330.75 115.376" stroke="#23222D" stroke-width="1.5" stroke-miterlimit="10" stroke-linecap="round" stroke-linejoin="round"/>
<path d="M334.076 123.725C321.926 113.745 305.194 105.418 289.523 104.132C273.854 102.845 257.42 107.744 246.177 118.735" stroke="#23222D" stroke-width="1.5" stroke-miterlimit="10" stroke-linecap="round" stroke-linejoin="round" stroke-dasharray="5 7 5 7 5 7"/>
<path opacity="0.15" d="M373.581 177.351C365.87 177.572 358.148 177.384 350.457 176.787C346.343 176.466 343.097 173.188 342.804 169.073C342.216 160.814 342.064 152.714 342.278 144.66C342.393 140.366 345.822 136.92 350.109 136.662C358.258 136.17 366.484 136.378 374.82 137.54C378.808 138.096 381.815 141.486 381.911 145.512C382.104 153.563 381.973 161.595 381.622 169.476C381.428 173.798 377.905 177.226 373.581 177.351Z" fill="#23222D"/>
<path d="M367.542 172.353C359.832 172.574 352.109 172.386 344.418 171.789C340.304 171.469 337.058 168.19 336.765 164.076C336.177 155.816 336.025 147.716 336.239 139.662C336.354 135.369 339.783 131.922 344.07 131.664C352.219 131.172 360.445 131.38 368.781 132.542C372.769 133.098 375.776 136.489 375.872 140.514C376.065 148.565 375.934 156.597 375.583 164.478C375.389 168.8 371.866 172.229 367.542 172.353Z" fill="white"/>
<path d="M367.542 172.353C359.832 172.574 352.109 172.386 344.418 171.789C340.304 171.469 337.058 168.19 336.765 164.076C336.177 155.816 336.025 147.716 336.239 139.662C336.354 135.369 339.783 131.922 344.07 131.664C352.219 131.172 360.445 131.38 368.781 132.542C372.769 133.098 375.776 136.489 375.872 140.514C376.065 148.565 375.934 156.597 375.583 164.478C375.389 168.8 371.866 172.229 367.542 172.353Z" stroke="#23222D" stroke-width="1.5" stroke-miterlimit="10" stroke-linecap="round" stroke-linejoin="round"/>
<path d="M356.054 149.323L350.546 139.783L345.039 149.323H348.501V164.074H352.592V149.323H356.054Z" fill="#1B2036"/>
<path d="M356.054 154.535L361.561 164.074L367.069 154.535H363.607V139.783H359.516V154.535H356.054Z" fill="#3A405D"/>
<path opacity="0.15" d="M241.784 259.317C232.88 253.851 220.517 254.772 212.52 261.497C204.522 268.222 201.492 280.244 205.349 289.954C209.205 299.665 219.656 306.333 230.088 305.74C240.521 305.147 250.148 297.334 252.877 287.251C255.608 277.164 251.44 265.242 241.784 259.317Z" fill="#23222D"/>
<path d="M238.903 259.09C230 253.624 217.636 254.545 209.639 261.271C201.641 267.996 198.611 280.017 202.469 289.727C206.324 299.438 216.775 306.107 227.208 305.514C237.64 304.92 247.267 297.108 249.996 287.024C252.726 276.938 248.559 265.016 238.903 259.09Z" fill="#4D5062"/>
<path d="M234.049 263.427C226.965 259.979 217.761 261.561 212.236 267.178C206.712 272.792 205.283 282.023 208.846 289.048C212.411 296.073 220.703 300.369 228.498 299.227C236.291 298.083 243.006 291.59 244.405 283.838C245.804 276.085 241.974 267.287 234.049 263.427Z" fill="#3E4155"/>
<path opacity="0.15" d="M249.996 287.025C251.507 281.441 250.896 275.298 248.418 269.917C250.466 279.935 248.514 292.583 237.571 299.131C226.331 305.857 216.614 302.951 210.943 300.498C215.616 303.927 221.412 305.844 227.206 305.514C237.639 304.921 247.267 297.109 249.996 287.025Z" fill="#23222D"/>
<path d="M209.639 261.271C204.042 265.978 200.889 273.277 200.817 280.565C201.584 275.169 203.891 266.542 213.661 260.805C220.433 256.829 228.565 256.209 236.436 257.797C227.821 253.854 216.922 255.146 209.639 261.271Z" fill="#3E4155"/>
<path d="M234.049 263.427C226.965 259.979 217.761 261.561 212.236 267.178C206.712 272.792 205.283 282.023 208.846 289.048C212.411 296.073 220.703 300.369 228.498 299.227C236.291 298.083 243.006 291.59 244.405 283.838C245.804 276.085 241.974 267.287 234.049 263.427Z" stroke="#23222D" stroke-width="1.5" stroke-miterlimit="10" stroke-linecap="round" stroke-linejoin="round"/>
<path d="M233.368 279.035C234.742 279.983 235.739 281.471 235.998 283.244L236.048 283.585C236.542 286.962 234.194 290.099 230.815 290.577L230.665 290.598L230.929 292.405L226.994 292.962L226.729 291.155L225.116 291.383L225.381 293.19L221.445 293.747L221.18 291.94L220.262 292.07L218.31 292.347L217.733 288.414L219.686 288.137L218.994 283.412L218.418 279.477L217.795 275.222L215.842 275.499L215.266 271.564L217.218 271.288L218.138 271.158L217.814 268.947L221.75 268.389L222.074 270.601L223.686 270.372L223.363 268.161L227.298 267.605L227.625 269.835C230.742 269.586 233.573 271.801 234.033 274.933L234.08 275.256C234.278 276.614 233.995 277.927 233.368 279.035ZM232.112 284.142L232.063 283.801C231.886 282.592 230.757 281.749 229.548 281.92L229.039 281.991L222.93 282.855L223.621 287.58L224.458 287.462L230.239 286.644C231.448 286.474 232.289 285.35 232.112 284.142ZM221.73 274.666L222.353 278.921L228.462 278.058C229.548 277.904 230.302 276.898 230.143 275.813L230.095 275.49C229.937 274.405 228.924 273.649 227.839 273.803L222.567 274.549L221.73 274.666Z" fill="#95999D"/>
<path opacity="0.15" d="M311.853 50.2991C306.41 41.3821 294.979 36.5806 284.799 38.9331C274.618 41.2856 266.453 50.6135 265.472 61.0164C264.489 71.4193 270.764 82.1107 280.325 86.3265C289.886 90.5414 302.013 87.9624 309.03 80.2226C316.048 72.4809 317.757 59.9672 311.853 50.2991Z" fill="#23222D"/>
<path d="M309.39 48.7872C303.946 39.8701 292.515 35.0686 282.336 37.4211C272.154 39.7736 263.989 49.1015 263.008 59.5044C262.026 69.9073 268.301 80.5987 277.862 84.8145C287.423 89.0294 299.55 86.4504 306.566 78.7106C313.584 70.9689 315.294 58.4562 309.39 48.7872Z" fill="#4D5062"/>
<path d="M303.095 50.4421C298.354 44.149 289.437 41.3732 281.962 43.8633C274.489 46.3524 269.017 53.9231 268.996 61.7996C268.977 69.677 274.409 77.2744 281.87 79.8027C289.331 82.3282 298.264 79.5983 303.035 73.3309C307.807 67.0617 308.398 57.4834 303.095 50.4421Z" fill="#3E4155"/>
<path opacity="0.15" d="M306.566 78.7119C310.451 74.4253 312.7 68.6769 312.941 62.7583C310.209 72.6117 302.72 82.9879 289.996 83.844C276.927 84.7231 269.595 77.7162 265.659 72.9529C268.261 78.1319 272.552 82.4738 277.862 84.8158C287.423 89.0306 299.549 86.4507 306.566 78.7119Z" fill="#23222D"/>
<path d="M282.336 37.4212C275.21 39.0676 269.083 44.1358 265.704 50.5923C268.841 46.1357 274.818 39.5024 286.128 38.8354C293.967 38.3739 301.492 41.5195 307.78 46.5141C301.902 39.0839 291.607 35.2789 282.336 37.4212Z" fill="#95999D"/>
<path d="M303.095 50.4421C298.354 44.149 289.437 41.3732 281.962 43.8633C274.489 46.3524 269.017 53.9231 268.996 61.7996C268.977 69.677 274.409 77.2744 281.87 79.8027C289.331 82.3282 298.264 79.5983 303.035 73.3309C307.807 67.0617 308.398 57.4834 303.095 50.4421Z" stroke="#23222D" stroke-width="1.5" stroke-miterlimit="10" stroke-linecap="round" stroke-linejoin="round"/>
<path d="M295.39 64.033C296.182 65.5027 296.395 67.2799 295.819 68.9779L295.709 69.3047C294.613 72.5373 291.095 74.263 287.867 73.1517L287.725 73.103L287.138 74.8325L283.38 73.5387L283.966 71.8092L282.426 71.2789L281.84 73.0084L278.082 71.7146L278.669 69.9851L277.791 69.6831L275.927 69.041L277.203 65.2762L279.067 65.9183L280.6 61.3958L281.876 57.6291L283.256 53.5566L281.392 52.9145L282.668 49.1478L284.533 49.7899L285.41 50.0918L286.127 47.9753L289.886 49.2691L289.168 51.3856L290.708 51.9159L291.426 49.7994L295.184 51.0932L294.461 53.2279C297.349 54.4233 298.865 57.6835 297.849 60.682L297.744 60.9916C297.302 62.2902 296.453 63.3317 295.39 64.033ZM291.949 68.0109L292.06 67.6841C292.453 66.526 291.831 65.2628 290.676 64.8653L290.19 64.6981L284.357 62.6896L282.824 67.2121L283.623 67.4873L289.143 69.3878C290.298 69.7854 291.558 69.1671 291.949 68.0109ZM287.012 54.8504L285.632 58.9229L291.466 60.9314C292.502 61.2878 293.632 60.7346 293.984 59.6968L294.089 59.3873C294.441 58.3495 293.883 57.2153 292.847 56.858L287.811 55.1246L287.012 54.8504Z" fill="#95999D"/>
<path opacity="0.15" d="M334.952 221.223C328.695 205.54 324.937 188.529 315.105 174.802C302.967 157.855 283.224 148.234 263.562 141.162C259.87 125.254 255.088 109.674 249.662 94.0153C249.789 94.3841 249.882 94.7615 249.959 95.1447C249.773 94.4338 249.662 94.0153 249.662 94.0153C248.595 90.9174 245.813 88.3576 242.701 87.0781C238.624 85.4002 234.073 85.448 229.665 85.5206C227.999 85.5483 226.331 85.576 224.663 85.6037C223.248 82.8021 221.309 80.2241 218.815 78.0789C210.897 71.2641 198.544 70.2034 189.578 75.5678C185.184 78.1964 181.774 82.2737 179.695 86.9463C159.951 87.9821 140.334 89.8702 121.08 93.5576C113.313 88.9959 103.008 88.8134 95.2401 93.4601C86.2724 98.8245 81.3658 110.21 83.6256 120.411C85.8568 130.489 94.9181 138.649 105.158 139.884C105.416 142.13 105.657 144.269 105.888 146.324C104.172 147.436 102.879 149.167 102.049 151.051C101.085 153.243 100.691 155.639 100.434 158.02C99.9442 162.553 99.9222 167.134 100.492 171.817C100.531 172.141 100.585 172.462 100.654 172.775C101.62 177.216 105.41 180.544 110.018 180.857C110.939 187.158 112.041 193.639 113.562 201.319C106.194 207.154 102.373 217.322 104.415 226.539C106.674 236.74 115.928 244.989 126.322 246.066C136.715 247.143 147.464 240.965 151.766 231.446C153.43 227.763 154.108 223.645 153.83 219.551C162.811 218.884 171.771 218.092 180.71 217.188C180.288 218.194 179.965 219.239 179.781 220.33C179.442 222.349 179.765 224.754 181.48 225.871C182.65 226.633 184.203 226.584 185.506 226.088C186.81 225.593 187.922 224.704 189.009 223.83C192.645 220.908 196.28 217.985 199.915 215.064C200.403 215.006 200.891 214.948 201.38 214.889C199.332 217.621 197.595 220.585 196.237 223.717C195.52 225.373 194.897 227.197 195.324 228.949C195.893 231.277 198.283 232.847 200.673 233.036C203.064 233.224 205.413 232.271 207.442 230.995C211.806 228.253 215.012 224.091 218.293 220.092C224.139 229.087 230.629 237.589 238.482 244.871C240.789 247.01 243.197 249.029 245.657 250.989C251.936 255.992 258.544 260.608 264.632 265.848C289.867 287.565 304.773 318.619 318.768 348.827C318.768 348.827 339.925 336.329 351.322 324.832C362.718 313.334 377.549 286.824 377.549 286.824C360.45 266.754 344.671 245.583 334.952 221.223Z" fill="#23222D"/>
<path d="M263.185 134.154C283.464 140.879 304.082 150.16 316.86 167.283C326.959 180.815 331.048 197.75 337.611 213.308C347.804 237.473 363.994 258.333 381.486 278.066C381.486 278.066 367.177 304.86 356.007 316.579C344.837 328.298 323.928 341.206 323.928 341.206C309.346 311.277 293.835 280.52 268.18 259.3C261.991 254.181 255.294 249.696 248.919 244.816L216.628 189.944L263.185 134.154Z" fill="#7B7D8A"/>
<path d="M272.86 137.591C269.647 136.369 266.414 135.224 263.185 134.154L216.627 189.945L228.86 210.733C242.876 208.795 256.446 206.664 265.076 204.687C288.826 199.249 279.19 175.542 272.86 137.591Z" fill="#4B4C52"/>
<path d="M189.214 203.459C186.235 207.035 183.139 210.863 182.455 215.468C182.155 217.494 182.526 219.891 184.262 220.975C185.447 221.713 186.998 221.634 188.292 221.112C189.586 220.591 190.68 219.682 191.75 218.786C196.972 214.418 202.194 210.049 207.416 205.681L189.214 203.459Z" fill="#7B7D8A"/>
<path d="M196.417 214.882C200.084 211.815 203.75 208.748 207.416 205.681L189.214 203.459C186.235 207.035 183.139 210.863 182.455 215.468C182.405 215.804 182.382 216.152 182.373 216.501C186.048 216.09 190.883 215.538 196.417 214.882Z" fill="#4B4C52"/>
<path d="M189.214 203.459C186.235 207.035 183.139 210.863 182.455 215.468C182.155 217.494 182.526 219.891 184.262 220.975C185.447 221.713 186.998 221.634 188.292 221.112C189.586 220.591 190.68 219.682 191.75 218.786C196.972 214.418 202.194 210.049 207.416 205.681L189.214 203.459Z" stroke="#23222D" stroke-width="1.5" stroke-miterlimit="10" stroke-linecap="round" stroke-linejoin="round"/>
<path d="M208.549 204.177C204.448 208.264 201.172 213.176 198.974 218.532C198.29 220.201 197.703 222.038 198.164 223.781C198.779 226.098 201.198 227.621 203.593 227.763C205.986 227.904 208.316 226.905 210.32 225.59C215.072 222.474 218.38 217.655 221.945 213.232C225.51 208.807 229.751 204.483 235.254 203.066L208.549 204.177Z" fill="#7B7D8A"/>
<path d="M223.393 211.494C226.651 207.718 230.477 204.296 235.255 203.065L208.55 204.177C205.546 207.169 202.991 210.608 200.972 214.337C207.899 213.502 215.623 212.535 223.393 211.494Z" fill="#4B4C52"/>
<path d="M208.549 204.177C204.448 208.264 201.172 213.176 198.974 218.532C198.29 220.201 197.703 222.038 198.164 223.781C198.779 226.098 201.198 227.621 203.593 227.763C205.986 227.904 208.316 226.905 210.32 225.59C215.072 222.474 218.38 217.655 221.945 213.232C225.51 208.807 229.751 204.483 235.254 203.066L208.549 204.177Z" stroke="#23222D" stroke-width="1.5" stroke-miterlimit="10" stroke-linecap="round" stroke-linejoin="round"/>
<path d="M107.989 142.388C105.856 143.474 104.305 145.494 103.384 147.704C102.463 149.914 102.116 152.318 101.906 154.703C101.504 159.245 101.572 163.826 102.232 168.496C102.278 168.82 102.338 169.139 102.413 169.452L112.076 160.366L107.989 142.388Z" fill="#494D5E"/>
<path d="M107.99 142.388C105.856 143.474 104.305 145.494 103.384 147.704C102.741 149.246 102.388 150.884 102.155 152.543C102.434 152.935 102.765 153.288 103.139 153.579C105.13 155.135 107.837 155.363 110.363 155.304C110.55 155.299 110.734 155.284 110.92 155.276L107.99 142.388Z" fill="#1B2036"/>
<path d="M112.281 127.762C110.661 119.573 109.399 111.313 108.499 103.015C107.875 97.2699 111.653 91.9772 117.291 90.7035C153.834 82.4477 191.91 81.0488 229.693 79.6901C234.098 79.5314 238.647 79.3948 242.756 80.9925C245.892 82.2108 248.724 84.7152 249.851 87.792C249.851 87.792 252.676 97.5547 253.773 103.681C254.87 109.807 187.017 126.858 187.017 126.858L112.281 127.762Z" fill="#313548"/>
<path d="M249.851 87.792C248.723 84.7152 245.892 82.2108 242.756 80.9925C238.647 79.3948 234.098 79.5314 229.693 79.6901C191.91 81.0488 153.834 82.4477 117.291 90.7035C113.185 91.6313 110.076 94.6948 108.924 98.5074C150.068 90.757 191.887 86.588 233.752 86.0883C235.873 86.0625 238.088 86.0654 239.888 87.3687C240.644 87.9153 241.227 88.6998 241.442 89.5836C242.661 94.5935 242.208 97.4257 242.208 97.4257C242.208 97.4257 237.861 109.9 245.704 107.916C249.495 106.956 251.053 100.566 251.591 94.1654C250.666 90.6099 249.851 87.792 249.851 87.792Z" fill="#7B7D8A"/>
<path d="M218.699 72.4625C210.649 65.8034 198.278 64.9845 189.419 70.5237C180.558 76.0619 175.874 87.5408 178.334 97.6962C180.792 107.852 190.205 115.918 200.618 116.791C211.03 117.665 221.657 111.278 225.771 101.676C229.888 92.07 227.43 79.6815 218.699 72.4625Z" fill="#4D5062"/>
<path d="M213.286 76.0773C206.755 71.6704 197.421 71.9484 191.163 76.7356C184.907 81.5219 182.199 90.4609 184.744 97.9159C187.29 105.371 194.899 110.786 202.778 110.747C210.654 110.706 218.212 105.216 220.682 97.7373C223.153 90.2564 220.593 81.0078 213.286 76.0773Z" fill="#3E4155"/>
<path opacity="0.15" d="M225.771 101.675C228.05 96.3575 228.305 90.1896 226.606 84.5156C227.231 94.7217 223.527 106.971 211.775 111.922C199.704 117.008 190.49 112.771 185.218 109.547C189.364 113.596 194.834 116.305 200.618 116.791C211.03 117.664 221.657 111.277 225.771 101.675Z" fill="#23222D"/>
<path d="M189.419 70.5225C183.218 74.3991 179.075 81.1853 177.982 88.391C179.497 83.1556 182.99 74.938 193.466 70.6257C200.728 67.6368 208.867 68.1623 216.438 70.8369C208.46 65.7248 197.488 65.4783 189.419 70.5225Z" fill="#95999D"/>
<path d="M213.286 76.0773C206.755 71.6704 197.421 71.9484 191.163 76.7356C184.907 81.5219 182.199 90.4609 184.744 97.9159C187.29 105.371 194.899 110.786 202.778 110.747C210.654 110.706 218.212 105.216 220.682 97.7373C223.153 90.2564 220.593 81.0078 213.286 76.0773Z" stroke="#23222D" stroke-width="1.5" stroke-miterlimit="10" stroke-linecap="round" stroke-linejoin="round"/>
<path d="M210.425 91.4356C211.653 92.5669 212.432 94.1789 212.441 95.9715L212.443 96.3164C212.459 99.7286 209.695 102.506 206.281 102.506H206.13L206.139 104.332H202.164L202.155 102.506H200.526L200.535 104.332H196.56L196.551 102.506H195.623H193.652L193.633 98.5313H195.604L195.581 93.7566L195.562 89.7796L195.541 85.4797H193.57L193.551 81.5028H195.522H196.45L196.439 79.2678H200.414L200.425 81.5028H202.054L202.044 79.2678H206.019L206.029 81.521C209.15 81.7102 211.644 84.2997 211.659 87.4663L211.661 87.7931C211.666 89.1643 211.202 90.4256 210.425 91.4356ZM208.468 96.3164L208.466 95.9715C208.46 94.7493 207.46 93.7566 206.238 93.7566H205.725H199.555L199.578 98.5313H200.423H206.261C207.484 98.5313 208.473 97.5376 208.468 96.3164ZM199.514 85.4797L199.535 89.7796H205.705C206.801 89.7796 207.689 88.8891 207.684 87.7931L207.682 87.4663C207.676 86.3703 206.78 85.4797 205.684 85.4797H200.359H199.514Z" fill="#95999D"/>
<path d="M124.73 92.196C116.68 85.5379 104.309 84.718 95.4501 90.2573C86.5895 95.7955 81.9055 107.274 84.365 117.43C86.8226 127.585 96.2365 135.652 106.649 136.525C117.061 137.398 127.688 131.012 131.802 121.409C135.918 111.804 133.46 99.416 124.73 92.196Z" fill="#4D5062"/>
<path d="M119.316 95.8104C112.785 91.4035 103.451 91.6816 97.1929 96.4688C90.937 101.255 88.229 110.194 90.7736 117.649C93.3201 125.104 100.929 130.519 108.807 130.48C116.684 130.439 124.242 124.949 126.713 117.47C129.183 109.99 126.623 100.741 119.316 95.8104Z" fill="#3E4155"/>
<path opacity="0.15" d="M131.802 121.409C134.08 116.092 134.335 109.924 132.636 104.25C133.261 114.456 129.557 126.705 117.805 131.657C105.734 136.743 96.5204 132.505 91.2478 129.281C95.3939 133.331 100.865 136.04 106.648 136.525C117.061 137.398 127.687 131.012 131.802 121.409Z" fill="#23222D"/>
<path d="M95.4492 90.2569C89.2478 94.1335 85.1046 100.92 84.0115 108.125C85.5269 102.89 89.0194 94.6724 99.4959 90.3601C106.758 87.3712 114.897 87.8967 122.468 90.5712C114.491 85.4582 103.519 85.2117 95.4492 90.2569Z" fill="#95999D"/>
<path d="M119.316 95.8104C112.785 91.4035 103.451 91.6816 97.1929 96.4688C90.937 101.255 88.229 110.194 90.7736 117.649C93.3201 125.104 100.929 130.519 108.807 130.48C116.684 130.439 124.242 124.949 126.713 117.47C129.183 109.99 126.623 100.741 119.316 95.8104Z" stroke="#23222D" stroke-width="1.5" stroke-miterlimit="10" stroke-linecap="round" stroke-linejoin="round"/>
<path d="M116.456 111.169C117.683 112.3 118.462 113.912 118.471 115.705L118.473 116.05C118.489 119.462 115.726 122.239 112.311 122.239H112.161L112.169 124.066H108.194L108.185 122.239H106.556L106.565 124.066H102.59L102.581 122.239H101.653H99.6822L99.6631 118.264H101.634L101.611 113.49L101.592 109.513L101.571 105.213H99.6L99.5809 101.236H101.552H102.48L102.47 99.001H106.445L106.455 101.236H108.084L108.074 99.001H112.049L112.059 101.254C115.18 101.443 117.674 104.033 117.689 107.198L117.691 107.525C117.697 108.898 117.232 110.159 116.456 111.169ZM114.498 116.05L114.496 115.705C114.49 114.483 113.491 113.49 112.268 113.49H111.755H105.585L105.608 118.264H106.453H112.291C113.514 118.264 114.503 117.271 114.498 116.05ZM105.545 105.213L105.566 109.513H111.736C112.832 109.513 113.72 108.622 113.715 107.526L113.713 107.199C113.708 106.103 112.811 105.213 111.715 105.213H106.39H105.545Z" fill="#95999D"/>
<path d="M147.591 197.898C139.54 191.239 127.169 190.42 118.31 195.959C109.45 201.497 104.766 212.976 107.225 223.131C109.683 233.287 119.097 241.353 129.509 242.227C139.922 243.1 150.548 236.713 154.663 227.111C158.778 217.505 156.32 205.118 147.591 197.898Z" fill="#4D5062"/>
<path d="M142.177 201.513C135.646 197.106 126.311 197.384 120.054 202.172C113.798 206.958 111.09 215.897 113.635 223.352C116.182 230.807 123.79 236.222 131.669 236.183C139.545 236.142 147.104 230.653 149.574 223.174C152.044 215.692 149.484 206.443 142.177 201.513Z" fill="#3E4155"/>
<path opacity="0.15" d="M154.663 227.111C156.941 221.794 157.196 215.626 155.497 209.952C156.122 220.158 152.418 232.407 140.666 237.358C128.595 242.445 119.381 238.207 114.109 234.983C118.255 239.033 123.726 241.741 129.509 242.227C139.921 243.1 150.547 236.713 154.663 227.111Z" fill="#23222D"/>
<path d="M118.31 195.959C112.109 199.836 107.966 206.622 106.873 213.827C108.388 208.592 111.881 200.375 122.357 196.062C129.619 193.073 137.758 193.599 145.329 196.273C137.351 191.16 126.379 190.914 118.31 195.959Z" fill="#4D5062"/>
<path d="M142.177 201.513C135.646 197.106 126.311 197.384 120.054 202.172C113.798 206.958 111.09 215.897 113.635 223.352C116.182 230.807 123.79 236.222 131.669 236.183C139.545 236.142 147.104 230.653 149.574 223.174C152.044 215.692 149.484 206.443 142.177 201.513Z" stroke="#23222D" stroke-width="1.5" stroke-miterlimit="10" stroke-linecap="round" stroke-linejoin="round"/>
<path d="M139.317 216.871C140.544 218.002 141.323 219.614 141.332 221.407L141.334 221.752C141.351 225.164 138.587 227.942 135.172 227.942H135.021L135.03 229.768H131.055L131.046 227.942H129.417L129.426 229.768H125.451L125.442 227.942H124.514H122.543L122.524 223.967H124.495L124.472 219.192L124.453 215.215L124.432 210.915H122.461L122.442 206.938H124.413H125.341L125.33 204.703H129.305L129.316 206.938H130.945L130.935 204.703H134.91L134.92 206.956C138.041 207.145 140.535 209.735 140.55 212.901L140.551 213.227C140.557 214.601 140.092 215.861 139.317 216.871ZM137.358 221.752L137.356 221.407C137.35 220.185 136.351 219.192 135.128 219.192H134.615H128.446L128.468 223.967H129.313H135.151C136.375 223.967 137.363 222.973 137.358 221.752ZM128.405 210.915L128.426 215.215H134.596C135.692 215.215 136.58 214.324 136.575 213.228L136.573 212.902C136.568 211.806 135.671 210.915 134.575 210.915H129.25H128.405Z" fill="#95999D"/>
<path opacity="0.15" d="M164.798 23.2505C156.747 16.5923 144.376 15.7725 135.517 21.3117C126.657 26.85 121.973 38.3288 124.432 48.4842C126.89 58.6395 136.304 66.7062 146.716 67.5795C157.129 68.4529 167.755 62.0661 171.87 52.464C175.985 42.858 173.528 30.4695 164.798 23.2505Z" fill="#23222D"/>
<path d="M163.485 18.9717C155.435 12.3135 143.064 11.4937 134.205 17.0329C125.344 22.5712 120.66 34.05 123.12 44.2053C125.577 54.3607 134.991 62.4273 145.404 63.3007C155.816 64.1741 166.443 57.7873 170.557 48.1851C174.673 38.5792 172.216 26.1917 163.485 18.9717Z" fill="#4D5062"/>
<path d="M158.071 22.5864C151.54 18.1795 142.205 18.4576 135.949 23.2458C129.693 28.032 126.984 36.971 129.529 44.4261C132.076 51.8811 139.685 57.2961 147.563 57.2569C155.439 57.2159 162.998 51.7263 165.468 44.2474C167.938 36.7656 165.378 27.517 158.071 22.5864Z" fill="#3E4155"/>
<path opacity="0.15" d="M170.557 48.1853C172.836 42.8678 173.09 36.6998 171.391 31.0259C172.016 41.2319 168.313 53.4809 156.56 58.4324C144.489 63.5187 135.276 59.2809 130.003 56.057C134.149 60.1065 139.621 62.8155 145.404 63.3009C155.816 64.1742 166.443 57.7875 170.557 48.1853Z" fill="#23222D"/>
<path d="M134.205 17.0327C128.003 20.9093 123.86 27.6955 122.767 34.9012C124.283 29.6658 127.775 21.4483 138.251 17.1359C145.513 14.147 153.653 14.6726 161.223 17.3471C153.246 12.2341 142.273 11.9875 134.205 17.0327Z" fill="#95999D"/>
<path d="M158.071 22.5864C151.54 18.1795 142.205 18.4576 135.949 23.2458C129.693 28.032 126.984 36.971 129.529 44.4261C132.076 51.8811 139.685 57.2961 147.563 57.2569C155.439 57.2159 162.998 51.7263 165.468 44.2474C167.938 36.7656 165.378 27.517 158.071 22.5864Z" stroke="#23222D" stroke-width="1.5" stroke-miterlimit="10" stroke-linecap="round" stroke-linejoin="round"/>
<path d="M155.211 37.9444C156.439 39.0757 157.218 40.6877 157.226 42.4803L157.228 42.8252C157.244 46.2374 154.481 49.0151 151.067 49.0151H150.916L150.925 50.8412H146.95L146.941 49.0151H145.312L145.32 50.8412H141.345L141.337 49.0151H140.409H138.438L138.419 45.0401H140.39L140.367 40.2653L140.348 36.2884L140.327 31.9885H138.356L138.336 28.0116H140.308H141.236L141.224 25.7766H145.199L145.21 28.0116H146.839L146.828 25.7766H150.803L150.814 28.0298C153.935 28.219 156.428 30.8084 156.444 33.9741L156.446 34.3009C156.451 35.674 155.987 36.9344 155.211 37.9444ZM153.252 42.8252L153.25 42.4803C153.245 41.2581 152.245 40.2653 151.023 40.2653H150.51H144.34L144.363 45.0401H145.208H151.046C152.269 45.0411 153.259 44.0464 153.252 42.8252ZM144.3 31.9885L144.321 36.2884H150.491C151.587 36.2884 152.474 35.3979 152.47 34.3019L152.468 33.9751C152.462 32.8791 151.566 31.9885 150.47 31.9885H145.145H144.3Z" fill="#95999D"/>
<path d="M105.886 133.614L104.623 123.669C103.825 117.823 107.341 112.229 112.968 110.451C152.711 97.8966 195.698 103.335 235.946 94.7883C238.437 94.2599 241.436 93.14 241.537 90.4855C241.548 90.1778 241.515 89.8759 241.442 89.5835C241.442 89.5835 243.908 92.6087 246.177 104.987C246.177 104.987 208.753 120.956 174.543 125.304C140.332 129.652 105.886 133.614 105.886 133.614Z" fill="#7B7D8A"/>
<path d="M105.887 133.615C110.373 166.629 111.097 177.901 118.256 208.166C119.592 213.813 124.815 217.665 130.604 217.274C175.52 214.238 219.836 208.134 263.616 199.441C269.519 198.269 273.608 192.891 273.198 186.886C270.796 151.679 261.678 119.881 249.851 87.792C250.201 88.7475 250.386 89.7575 250.366 90.8019C250.304 94.0135 248.305 96.9546 245.715 98.8561C243.127 100.757 239.998 101.764 236.886 102.559C227.454 104.969 217.686 105.699 207.978 106.42C184.415 108.17 160.853 109.919 137.29 111.669C130.091 112.204 122.656 112.804 116.273 116.176C109.89 119.549 104.799 126.477 105.887 133.615Z" fill="#95999D"/>
<path opacity="0.15" d="M265.019 136.014C259.826 173.981 241.675 181.026 216.055 186.97L209.604 180.826C209.604 180.826 201.24 179.456 200.295 186.071C200.128 187.243 200.45 188.719 201.084 190.351C200.064 190.588 199.038 190.83 198.001 191.08C165.201 199 129.796 199.142 116.12 198.839C116.764 201.759 117.47 204.844 118.256 208.167C119.592 213.814 124.815 217.666 130.604 217.275C175.52 214.239 219.836 208.135 263.616 199.442C269.518 198.27 273.608 192.892 273.198 186.887C271.993 169.226 269.097 152.425 265.019 136.014Z" fill="#23222D"/>
<path opacity="0.15" d="M112.85 182.634C117.279 182.593 122.864 182.246 128.615 181.124C141.531 178.605 145.311 175.328 146.949 168.461C148.586 161.593 144.429 157.247 144.429 157.247L109.287 159.326C110.397 167.629 111.434 174.798 112.85 182.634Z" fill="#23222D"/>
<path d="M102.413 169.451C103.469 173.884 107.339 177.144 111.968 177.352C119.636 177.694 127.75 177.212 135.397 175.963C142.405 174.819 147.14 168.192 146.065 161.174C146.021 160.876 145.973 160.578 145.926 160.28C144.874 153.735 139.109 149.002 132.487 149.318C124.301 149.711 115.708 150.102 108.124 150.495L102.413 169.451Z" fill="#494D5E"/>
<path d="M132.488 149.318C124.301 149.711 115.708 150.102 108.124 150.495L106.744 155.077C107.927 155.29 109.165 155.333 110.363 155.304C116.631 155.158 122.783 153.634 129.025 153.037C134.008 152.562 139.253 152.752 143.566 154.631C141.065 151.213 136.976 149.103 132.488 149.318Z" fill="#1B2036"/>
<path d="M135.374 160.544C137.279 162.495 137.278 165.983 135.372 167.934C133.466 169.885 129.979 169.967 127.984 168.108C125.989 166.249 125.823 162.765 127.635 160.726C129.447 158.688 133.119 158.234 135.374 160.544Z" fill="#23222D"/>
<path d="M248.563 207.794C240.92 197.897 229.466 187.672 218.64 181.412C216.516 180.183 214.275 179.014 211.836 178.746C209.395 178.479 206.694 179.296 205.332 181.338C203.201 184.538 205.154 188.783 207.107 192.095C216.991 208.849 227.108 225.894 241.626 238.84C243.975 240.933 246.422 242.905 248.92 244.816" fill="#7B7D8A"/>
<path d="M248.563 207.794C240.92 197.897 229.466 187.672 218.64 181.412C216.516 180.183 214.275 179.014 211.836 178.746C209.395 178.479 206.694 179.296 205.332 181.338C203.201 184.538 205.154 188.783 207.107 192.095C216.991 208.849 227.108 225.894 241.626 238.84C243.975 240.933 246.422 242.905 248.92 244.816" stroke="#23222D" stroke-width="1.5" stroke-miterlimit="10" stroke-linecap="round" stroke-linejoin="round"/>
</g>
</svg>
