<svg width="224" height="200" viewBox="0 0 224 200" fill="none" xmlns="http://www.w3.org/2000/svg">
<path d="M221.251 88.2212L206.506 79.2983L144.977 180.974L159.722 189.897L221.251 88.2212Z" fill="#CBD3F9"/>
<path d="M195.5 81.9723L224 99.2196L220.874 72.9351L195.5 81.9723Z" fill="#CBD3F9"/>
<path d="M203.213 58.6136L192.763 52.2898L149.156 124.351L159.606 130.675L203.213 58.6136Z" fill="#CBD3F9"/>
<path d="M184.965 54.1856L205.164 66.4095L202.949 47.7808L184.965 54.1856Z" fill="#CBD3F9"/>
<path d="M171.302 186.27H122.533V193.524H171.302V186.27Z" fill="#1E212E"/>
<path d="M153.257 186.27H146.918V193.524H153.257V186.27Z" fill="#515561"/>
<path d="M158.433 186.27H156.48V193.524H158.433V186.27Z" fill="#515561"/>
<path d="M171.302 186.27H164.682V193.524H171.302V186.27Z" fill="#515561"/>
<path d="M171.302 191.998H122.533V193.525H171.302V191.998Z" fill="#515561"/>
<path d="M168.193 179.014H119.424V186.269H168.193V179.014Z" fill="#1E212E"/>
<path d="M150.148 179.014H143.808V186.269H150.148V179.014Z" fill="#515561"/>
<path d="M155.324 179.014H153.371V186.269H155.324V179.014Z" fill="#515561"/>
<path d="M168.193 179.014H161.573V186.269H168.193V179.014Z" fill="#515561"/>
<path d="M168.193 184.743H119.424V186.27H168.193V184.743Z" fill="#515561"/>
<path d="M173.404 171.759H124.635V179.014H173.404V171.759Z" fill="#1E212E"/>
<path d="M155.36 171.759H149.02V179.014H155.36V171.759Z" fill="#515561"/>
<path d="M160.535 171.759H158.582V179.014H160.535V171.759Z" fill="#515561"/>
<path d="M173.404 171.759H166.784V179.014H173.404V171.759Z" fill="#515561"/>
<path d="M173.404 177.489H124.635V179.015H173.404V177.489Z" fill="#515561"/>
<path d="M168.62 164.504H119.851V171.759H168.62V164.504Z" fill="#1E212E"/>
<path d="M150.576 164.504H144.236V171.759H150.576V164.504Z" fill="#515561"/>
<path d="M155.751 164.504H153.798V171.759H155.751V164.504Z" fill="#515561"/>
<path d="M168.62 164.504H162V171.759H168.62V164.504Z" fill="#515561"/>
<path d="M168.62 170.233H119.851V171.759H168.62V170.233Z" fill="#515561"/>
<path d="M173.404 157.249H124.635V164.504H173.404V157.249Z" fill="#1E212E"/>
<path d="M155.36 157.249H149.02V164.504H155.36V157.249Z" fill="#515561"/>
<path d="M160.535 157.249H158.582V164.504H160.535V157.249Z" fill="#515561"/>
<path d="M173.404 157.249H166.784V164.504H173.404V157.249Z" fill="#515561"/>
<path d="M173.404 162.978H124.635V164.504H173.404V162.978Z" fill="#515561"/>
<path d="M164.883 149.994H116.114V157.249H164.883V149.994Z" fill="#1E212E"/>
<path d="M146.838 149.994H140.499V157.249H146.838V149.994Z" fill="#515561"/>
<path d="M152.014 149.994H150.061V157.249H152.014V149.994Z" fill="#515561"/>
<path d="M164.883 149.994H158.263V157.249H164.883V149.994Z" fill="#515561"/>
<path d="M164.883 155.723H116.114V157.249H164.883V155.723Z" fill="#515561"/>
<path d="M172.694 142.739H123.925V149.994H172.694V142.739Z" fill="#1E212E"/>
<path d="M154.649 142.739H148.31V149.994H154.649V142.739Z" fill="#515561"/>
<path d="M159.825 142.739H157.872V149.994H159.825V142.739Z" fill="#515561"/>
<path d="M172.694 142.739H166.074V149.994H172.694V142.739Z" fill="#515561"/>
<path d="M172.694 148.468H123.925V149.994H172.694V148.468Z" fill="#515561"/>
<path d="M164.883 135.484H116.114V142.739H164.883V135.484Z" fill="#1E212E"/>
<path d="M146.838 135.484H140.499V142.739H146.838V135.484Z" fill="#515561"/>
<path d="M152.014 135.484H150.061V142.739H152.014V135.484Z" fill="#515561"/>
<path d="M164.883 135.484H158.263V142.739H164.883V135.484Z" fill="#515561"/>
<path d="M164.883 141.213H116.114V142.74H164.883V141.213Z" fill="#515561"/>
<path d="M171.79 128.229H123.021V135.484H171.79V128.229Z" fill="#1E212E"/>
<path d="M153.746 128.229H147.406V135.484H153.746V128.229Z" fill="#515561"/>
<path d="M158.921 128.229H156.968V135.484H158.921V128.229Z" fill="#515561"/>
<path d="M171.79 128.229H165.17V135.484H171.79V128.229Z" fill="#515561"/>
<path d="M171.79 133.958H123.021V135.484H171.79V133.958Z" fill="#515561"/>
<path d="M104.208 40.2811H103.201V14.4766L123.549 5.14038L123.969 6.05525L104.208 15.1224V40.2811Z" fill="#326068"/>
<path d="M127.003 8.45086C124.937 8.45086 123.256 6.76988 123.256 4.70322C123.256 2.6373 124.937 0.955566 127.003 0.955566C129.069 0.955566 130.752 2.6373 130.752 4.70322C130.751 6.76988 129.069 8.45086 127.003 8.45086ZM127.003 1.96312C125.492 1.96312 124.263 3.19264 124.263 4.70396C124.263 6.21527 125.492 7.44406 127.003 7.44406C128.515 7.44406 129.744 6.21453 129.744 4.70396C129.744 3.19264 128.515 1.96312 127.003 1.96312Z" fill="#326068"/>
<path d="M78.7264 22.4677H77.7196V-1.39274L90.3049 -20.8066L91.1495 -20.2588L78.7264 -1.096V22.4677Z" fill="#326068"/>
<path d="M28.0682 40.2811H27.0614V15.1224L7.29996 6.05525L7.72002 5.14038L28.0682 14.4766V40.2811Z" fill="#326068"/>
<path d="M4.26531 8.45086C2.1994 8.45086 0.51767 6.76988 0.51767 4.70322C0.51767 2.6373 2.1994 0.955566 4.26531 0.955566C6.33123 0.955566 8.01296 2.6373 8.01296 4.70322C8.01296 6.76988 6.33197 8.45086 4.26531 8.45086ZM4.26531 1.96312C2.754 1.96312 1.52447 3.19264 1.52447 4.70396C1.52447 6.21527 2.754 7.44406 4.26531 7.44406C5.77663 7.44406 7.00616 6.21453 7.00616 4.70396C7.00616 3.19264 5.77663 1.96312 4.26531 1.96312Z" fill="#326068"/>
<path d="M53.5498 22.4677H52.5422V-1.096L40.1191 -20.2588L40.963 -20.8066L53.5498 -1.39274V22.4677Z" fill="#326068"/>
<path d="M123.549 127.261L103.2 117.926V92.1218H104.208V117.281L123.969 126.346L123.549 127.261Z" fill="#326068"/>
<path d="M127.003 131.446C124.937 131.446 123.256 129.764 123.256 127.697C123.256 125.631 124.937 123.95 127.003 123.95C129.069 123.95 130.752 125.631 130.752 127.697C130.751 129.764 129.069 131.446 127.003 131.446ZM127.003 124.957C125.492 124.957 124.263 126.186 124.263 127.697C124.263 129.209 125.492 130.438 127.003 130.438C128.515 130.438 129.744 129.209 129.744 127.697C129.744 126.186 128.515 124.957 127.003 124.957Z" fill="#326068"/>
<path d="M92.1227 159.373C90.0568 159.373 88.3751 157.691 88.3751 155.625C88.3751 153.559 90.0568 151.877 92.1227 151.877C94.1887 151.877 95.8704 153.558 95.8704 155.625C95.8704 157.691 94.1894 159.373 92.1227 159.373ZM92.1227 152.885C90.6114 152.885 89.3819 154.113 89.3819 155.625C89.3819 157.136 90.6114 158.365 92.1227 158.365C93.6341 158.365 94.8636 157.136 94.8636 155.625C94.8636 154.113 93.6341 152.885 92.1227 152.885Z" fill="#326068"/>
<path d="M90.3049 153.209L77.7196 133.795V109.935H78.7264V133.498L91.1495 152.661L90.3049 153.209Z" fill="#326068"/>
<path d="M7.72002 127.261L7.29996 126.346L27.0614 117.281V92.1218H28.0682V117.926L7.72002 127.261Z" fill="#326068"/>
<path d="M4.26531 131.446C2.1994 131.446 0.51767 129.764 0.51767 127.697C0.51767 125.631 2.1994 123.95 4.26531 123.95C6.33123 123.95 8.01296 125.631 8.01296 127.697C8.01296 129.764 6.33197 131.446 4.26531 131.446ZM4.26531 124.957C2.754 124.957 1.52447 126.186 1.52447 127.697C1.52447 129.209 2.754 130.438 4.26531 130.438C5.77663 130.438 7.00616 129.209 7.00616 127.697C7.00616 126.186 5.77663 124.957 4.26531 124.957Z" fill="#326068"/>
<path d="M39.146 159.373C37.0801 159.373 35.3983 157.691 35.3983 155.625C35.3983 153.559 37.0801 151.877 39.146 151.877C41.2119 151.877 42.8936 153.558 42.8936 155.625C42.8936 157.691 41.2127 159.373 39.146 159.373ZM39.146 152.885C37.6347 152.885 36.4051 154.113 36.4051 155.625C36.4051 157.136 37.6347 158.365 39.146 158.365C40.6573 158.365 41.8868 157.136 41.8868 155.625C41.8868 154.113 40.6573 152.885 39.146 152.885Z" fill="#326068"/>
<path d="M40.963 153.209L40.1191 152.661L52.5422 133.498V109.935H53.5498V133.795L40.963 153.209Z" fill="#326068"/>
<path d="M39.3985 31.7716H37.5897V6.19282L18.2587 -13.1381L19.5376 -14.4177L39.3985 5.44315V31.7716Z" fill="white"/>
<path d="M93.7041 31.7716H91.8954V5.44315L111.756 -14.4177L113.035 -13.1381L93.7041 6.19282V31.7716Z" fill="white"/>
<path d="M66.5512 -17.1494H64.7424V21.4265H66.5512V-17.1494Z" fill="white"/>
<path d="M19.5376 146.533L18.2587 145.254L37.5897 125.922V100.344H39.3985V126.672L19.5376 146.533Z" fill="white"/>
<path d="M15.2279 154.039C12.2897 154.039 9.89941 151.65 9.89941 148.712C9.89941 145.773 12.2897 143.383 15.2279 143.383C18.1661 143.383 20.5564 145.773 20.5564 148.712C20.5564 151.65 18.1661 154.039 15.2279 154.039ZM15.2279 145.193C13.2875 145.193 11.7082 146.771 11.7082 148.712C11.7082 150.653 13.2868 152.231 15.2279 152.231C17.1682 152.231 18.7476 150.653 18.7476 148.712C18.7468 146.77 17.1682 145.193 15.2279 145.193Z" fill="white"/>
<path d="M111.756 146.533L91.8954 126.672V100.344H93.7042V125.922L113.035 145.254L111.756 146.533Z" fill="white"/>
<path d="M116.066 154.039C113.128 154.039 110.738 151.65 110.738 148.712C110.738 145.773 113.128 143.383 116.066 143.383C119.004 143.383 121.394 145.773 121.394 148.712C121.394 151.65 119.004 154.039 116.066 154.039ZM116.066 145.193C114.126 145.193 112.547 146.771 112.547 148.712C112.547 150.653 114.126 152.231 116.066 152.231C118.007 152.231 119.586 150.653 119.586 148.712C119.586 146.77 118.007 145.193 116.066 145.193Z" fill="white"/>
<path d="M66.5512 110.689H64.7424V149.265H66.5512V110.689Z" fill="white"/>
<path d="M65.6468 159.017C62.7086 159.017 60.3183 156.627 60.3183 153.689C60.3183 150.751 62.7086 148.36 65.6468 148.36C68.585 148.36 70.9753 150.751 70.9753 153.689C70.9753 156.626 68.585 159.017 65.6468 159.017ZM65.6468 150.169C63.7065 150.169 62.1271 151.748 62.1271 153.689C62.1271 155.63 63.7057 157.209 65.6468 157.209C67.5871 157.209 69.1665 155.63 69.1665 153.689C69.1657 151.748 67.5871 150.169 65.6468 150.169Z" fill="white"/>
<path d="M65.6469 114.239C92.8755 114.239 114.949 92.1662 114.949 64.9376C114.949 37.7091 92.8755 15.636 65.6469 15.636C38.4184 15.636 16.3453 37.7091 16.3453 64.9376C16.3453 92.1662 38.4184 114.239 65.6469 114.239Z" fill="#1E212E"/>
<path d="M65.6469 106.68C42.6297 106.68 23.9034 87.9542 23.9034 64.9376C23.9034 41.9196 42.6297 23.1941 65.6469 23.1941C88.6642 23.1941 107.391 41.9196 107.391 64.9376C107.391 87.9542 88.6642 106.68 65.6469 106.68ZM65.6469 26.2414C44.3099 26.2414 26.9507 43.6006 26.9507 64.9376C26.9507 86.2747 44.3099 103.633 65.6469 103.633C86.984 103.633 104.343 86.274 104.343 64.9376C104.343 43.6013 86.984 26.2414 65.6469 26.2414Z" fill="#515561"/>
<path d="M91.2796 70.6768C90.7257 69.4876 89.9566 68.4868 88.9723 67.6765C87.9871 66.8663 86.8279 66.2101 85.4944 65.7071C84.161 65.2048 82.7147 64.8198 81.1556 64.553C79.5964 64.2869 77.9551 64.1068 76.2322 64.0141C74.5094 63.9214 72.7761 63.8654 71.0323 63.8452C74.2523 63.825 77.017 63.6097 79.3251 63.1987C81.6324 62.7883 83.5137 62.1784 84.9705 61.3674C86.4272 60.5572 87.4998 59.5325 88.186 58.2902C88.8736 57.0495 89.2174 55.5666 89.2174 53.8437C89.2174 51.7307 88.7301 49.9817 87.7554 48.5967C86.7815 47.2125 85.4429 46.1153 83.7402 45.3043C82.0375 44.4941 80.0367 43.9305 77.7398 43.6121C76.0551 43.3789 74.2694 43.2324 72.3859 43.1704V37.7522H69.1159V43.1345H66.1142V37.7522H59.5741V43.1345H39.1833V45.5352H44.5992V84.307H39.1833V86.7384H59.5741V92.1207H66.1142V86.7384H69.1159V92.1207H72.3859V86.7384H72.6318C75.709 86.7384 78.4528 86.5643 80.8633 86.2152C83.2731 85.8669 85.3091 85.2458 86.9714 84.3541C88.6329 83.4616 89.9043 82.2515 90.787 80.723C91.6698 79.1953 92.11 77.2617 92.11 74.9229C92.11 73.2823 91.8342 71.8667 91.2796 70.6768ZM68.3864 45.6743C69.1861 45.8903 69.8827 46.3103 70.4784 46.9359C71.0734 47.5616 71.5398 48.4383 71.8784 49.5669C72.217 50.6955 72.3867 52.1822 72.3867 54.0284C72.3867 55.8745 72.217 57.3776 71.8784 58.5361C71.5398 59.6954 71.0734 60.5976 70.4784 61.2441C69.8827 61.8906 69.1861 62.3264 68.3864 62.5521C67.6793 62.7517 66.9169 62.8474 66.1149 62.8713V45.3701C66.9169 45.3932 67.6793 45.4844 68.3864 45.6743ZM71.986 80.2619C71.7184 81.3808 71.3141 82.2366 70.7699 82.8316C70.2266 83.4265 69.5434 83.8212 68.7235 84.0162C67.985 84.1919 67.103 84.2764 66.1142 84.2943V65.2152C68.189 65.293 69.746 66.1279 70.7699 67.7386C71.847 69.4308 72.3859 72.1231 72.3859 75.8161C72.3859 77.6616 72.2529 79.1445 71.986 80.2619Z" fill="#515561"/>
<path d="M43.2501 199.264H15.0164C12.4639 199.264 10.3943 197.195 10.3943 194.642V181.634C10.3943 179.081 12.4639 177.012 15.0164 177.012H43.2501C45.8026 177.012 47.8722 179.081 47.8722 181.634V194.642C47.8722 197.195 45.8026 199.264 43.2501 199.264Z" fill="white"/>
<path d="M20.9878 194.925L21.0259 192.591L21.0641 190.255C21.0641 189.407 21.0446 188.122 21.0072 186.402C20.9691 184.693 20.9504 183.408 20.9504 182.547V182.434C20.9504 182.105 20.9818 181.801 21.0454 181.522C21.1216 181.181 21.3234 181.01 21.653 181.01C22.5387 181.01 23.2413 181.295 23.7601 181.865C24.2788 182.434 24.5381 183.188 24.5381 184.124C24.5381 184.694 24.3864 185.289 24.0822 185.909C23.7787 186.53 23.4177 186.991 23.0007 187.296C23.7339 187.789 24.2758 188.425 24.6241 189.204C24.9716 189.982 25.1465 190.84 25.1465 191.777C25.1465 192.219 24.9941 192.771 24.6906 193.428C24.3229 194.214 23.8228 194.776 23.1905 195.118C22.8108 195.308 22.393 195.404 21.9378 195.404H21.8616C21.2793 195.401 20.9878 195.242 20.9878 194.925ZM22.887 186.192C23.0769 185.837 23.254 185.408 23.4185 184.901C23.4566 184.762 23.5201 184.584 23.6083 184.369V183.705C23.6083 183.325 23.4686 182.958 23.1905 182.603C22.9125 182.249 22.5955 182.072 22.2413 182.072C22.0641 182.072 21.9759 182.268 21.9759 182.661C21.9759 183.496 21.9886 184.242 22.014 184.901L22.0522 187.008C22.3803 186.933 22.6591 186.66 22.887 186.192ZM23.6083 193.558C23.9753 193.078 24.1592 192.502 24.1592 191.83C24.1592 191.249 24.1121 190.714 24.0172 190.226C23.9222 189.739 23.7982 189.369 23.6464 189.115C23.5074 188.875 23.3684 188.672 23.2294 188.508C23.0896 188.344 22.97 188.236 22.8684 188.185L22.7166 188.128H22.0327C22.0955 189.584 22.1276 191.679 22.1276 194.411C22.7473 194.325 23.2406 194.04 23.6083 193.558Z" fill="#1E3D44"/>
<path d="M28.3731 194.564C27.8798 193.869 27.5315 193.013 27.329 192.001C27.101 190.926 26.9553 189.773 26.8917 188.546C26.8282 187.432 26.7968 186.223 26.7968 184.919V183.344C26.8095 182.901 26.8162 182.433 26.8162 181.939C26.7146 181.838 26.6638 181.711 26.6638 181.56C26.6638 181.407 26.7206 181.272 26.8349 181.151C26.9485 181.031 27.0756 180.971 27.2146 180.971C27.6706 180.971 27.8985 181.421 27.8985 182.318C27.8985 182.901 27.9299 184.002 27.9934 185.622C28.0562 187.242 28.0884 188.343 28.0884 188.925C28.1512 189.09 28.2117 189.419 28.2685 189.912C28.3253 190.406 28.3537 190.811 28.3537 191.128C28.3537 191.406 28.3978 191.752 28.4868 192.162C28.575 192.575 28.702 192.988 28.8665 193.406C29.0309 193.849 29.2462 194.213 29.5122 194.498C29.7776 194.782 30.0564 194.925 30.3479 194.925C30.525 194.925 30.6738 194.867 30.7941 194.753C30.9144 194.64 30.9937 194.475 31.0318 194.26C31.108 193.905 31.1454 193.558 31.1454 193.216V189.514C31.1454 189.046 31.1013 188.45 31.0123 187.729C30.9369 186.932 30.8987 186.331 30.8987 185.926V185.792C30.8987 185.59 30.892 185.406 30.88 185.242L30.8606 184.691C30.8606 184.337 30.8412 183.799 30.8038 183.078C30.753 182.433 30.7276 181.888 30.7276 181.445C30.7276 181.306 30.8001 181.186 30.9458 181.084C31.0916 180.983 31.253 180.932 31.4302 180.932L31.9048 181.368V181.691C31.9048 181.844 31.8794 182.027 31.8293 182.243C31.7785 182.597 31.7531 182.8 31.7531 182.85C31.7531 184.002 31.8158 185.59 31.9429 187.615C32.0565 189.742 32.1141 191.393 32.1141 192.571C32.1141 193.204 32.0505 193.761 31.9242 194.241C31.848 194.533 31.7441 194.767 31.611 194.944C31.478 195.121 31.2979 195.273 31.0699 195.4C30.8546 195.526 30.5766 195.59 30.2343 195.59C29.4495 195.59 28.8291 195.248 28.3731 194.564Z" fill="#1E3D44"/>
<path d="M35.559 195.343C35.4641 195.254 35.4163 195.147 35.4163 195.02L35.4544 193.179C35.4925 192.356 35.5112 191.743 35.5112 191.338C35.5112 190.971 35.4544 190.427 35.34 189.705C35.213 188.996 35.1502 188.445 35.1502 188.053C35.1502 187.572 35.0807 187.021 34.9416 186.401C34.8019 185.781 34.6247 185.185 34.4102 184.615C34.2077 184.072 34.0365 183.487 33.8975 182.86C33.7584 182.233 33.6889 181.685 33.6889 181.217C33.6889 181.128 33.739 181.053 33.8407 180.989C33.9423 180.926 34.0499 180.895 34.1636 180.895C34.3026 180.895 34.4356 181.04 34.5619 181.331C34.7144 181.66 34.8594 182.122 34.9992 182.716C35.1382 183.312 35.2204 183.666 35.2458 183.78L35.4925 185.089L35.6823 185.925C35.7205 185.722 35.7511 185.457 35.7773 185.127C35.8528 184.076 35.9484 183.203 36.062 182.507C36.1502 182.026 36.2519 181.659 36.3655 181.406C36.4918 181.128 36.6436 180.989 36.8214 180.989C37.163 180.989 37.3342 181.052 37.3342 181.179C37.3342 181.901 37.1824 182.963 36.8782 184.369C36.5748 185.773 36.4223 186.843 36.4223 187.577L36.3842 187.88C36.3588 188.071 36.3528 188.184 36.3648 188.222V188.526C36.3648 189.07 36.3842 189.905 36.4216 191.031L36.4597 193.557L36.4978 193.993L36.5359 194.449V194.924C36.5359 195.076 36.4724 195.206 36.3461 195.313C36.219 195.42 36.0673 195.474 35.8901 195.474C35.7646 195.476 35.6539 195.431 35.559 195.343Z" fill="#1E3D44"/>
<path d="M116.772 199.264H88.5388C85.9863 199.264 83.9167 197.194 83.9167 194.642V181.634C83.9167 179.081 85.9863 177.011 88.5388 177.011H116.772C119.325 177.011 121.395 179.081 121.395 181.634V194.642C121.395 197.195 119.325 199.264 116.772 199.264Z" fill="white"/>
<path d="M93.3995 195.419C93.1969 195.305 93.096 195.173 93.096 195.02C93.096 194.868 93.1342 194.745 93.2096 194.65C93.2851 194.555 93.3928 194.508 93.5325 194.508C93.6589 194.508 93.8427 194.558 94.0826 194.659C94.3487 194.76 94.5132 194.811 94.5767 194.811C94.8166 194.811 95.0349 194.706 95.2315 194.498C95.4273 194.289 95.5828 194.014 95.6964 193.672C95.9243 193.039 96.038 192.469 96.038 191.963C96.038 191.42 95.952 190.847 95.7816 190.245C95.6104 189.644 95.3795 189.059 95.0887 188.489L94.7852 187.882C94.4683 187.249 94.2254 186.749 94.0543 186.382C93.8831 186.015 93.7343 185.616 93.608 185.186C93.4182 184.579 93.3233 183.99 93.3233 183.42C93.3233 182.964 93.4017 182.535 93.5609 182.129C93.7186 181.724 93.9563 181.383 94.2725 181.104C94.5887 180.8 94.9811 180.648 95.4497 180.648C95.6777 180.648 95.8989 180.714 96.1142 180.847C96.3294 180.98 96.4812 181.148 96.5701 181.351L96.2472 181.749C95.9184 181.749 95.6709 181.685 95.5065 181.559C95.2785 181.584 95.0797 181.695 94.9086 181.891C94.7374 182.087 94.6073 182.312 94.5192 182.565C94.4429 182.805 94.4055 183.046 94.4055 183.286C94.4055 183.768 94.4713 184.258 94.6044 184.758C94.7374 185.258 94.9108 185.73 95.1268 186.173L96.4558 188.831C96.671 189.287 96.8422 189.799 96.9685 190.368C97.0948 190.938 97.1584 191.507 97.1584 192.077C97.1584 192.913 96.9558 193.697 96.5507 194.431C96.3354 194.811 96.0574 195.112 95.7151 195.334C95.3735 195.556 94.9938 195.665 94.576 195.665C94.1208 195.665 93.7284 195.583 93.3995 195.419Z" fill="#1E3D44"/>
<path d="M99.7782 195.268C99.5622 195.204 99.4553 195.028 99.4553 194.736V183.706C99.4553 183.49 99.4172 183.167 99.3417 182.737C99.2527 182.344 99.2094 182.022 99.2094 181.769V181.711C99.4239 181.357 99.5823 181.13 99.684 181.027C99.8611 181.027 100.095 181.002 100.387 180.952C100.652 180.902 100.886 180.876 101.089 180.876C101.292 180.876 101.488 180.936 101.678 181.057C101.868 181.178 101.963 181.319 101.963 181.483C101.963 181.863 101.671 182.053 101.089 182.053H100.824C100.748 182.041 100.659 182.033 100.558 182.033C100.445 182.033 100.375 182.04 100.35 182.053C100.35 182.483 100.375 183.003 100.425 183.61L100.464 184.142L100.502 185.185C100.502 185.426 100.482 185.793 100.445 186.287L100.407 187.35L100.672 187.293C100.925 187.217 101.134 187.18 101.298 187.18C101.437 187.18 101.564 187.233 101.678 187.34C101.792 187.448 101.849 187.571 101.849 187.711C101.849 187.864 101.802 187.999 101.707 188.119C101.612 188.24 101.495 188.3 101.356 188.3L101.128 188.281H100.881C100.692 188.281 100.558 188.325 100.483 188.414V194.28L101.546 194.223C102.267 194.223 102.628 194.387 102.628 194.717V194.792C102.552 194.945 102.413 195.068 102.21 195.163C102.008 195.258 101.812 195.318 101.622 195.343L100.996 195.363H100.408C100.164 195.362 99.9553 195.33 99.7782 195.268Z" fill="#1E3D44"/>
<path d="M105.027 195.276C104.895 195.156 104.829 195.014 104.829 194.85C104.829 194.736 104.854 194.596 104.904 194.431C104.942 194.255 104.961 194.122 104.961 194.033C104.961 192.906 104.897 190.742 104.771 187.539C104.644 184.806 104.581 182.648 104.581 181.065C104.581 180.952 104.625 180.86 104.714 180.79C104.802 180.721 104.91 180.685 105.037 180.685C105.189 180.685 105.322 180.739 105.435 180.846C105.549 180.954 105.607 181.084 105.607 181.236C105.607 181.995 105.645 183.134 105.72 184.652C105.783 186.336 105.815 187.476 105.815 188.07L105.835 188.298V188.526V188.659V188.754C105.873 189.855 105.891 191.5 105.891 193.69V194.184H107.353C107.619 194.374 107.752 194.563 107.752 194.753C107.752 194.893 107.705 195.017 107.609 195.124C107.514 195.232 107.403 195.285 107.277 195.285C107.239 195.285 107.17 195.273 107.069 195.247L106.992 195.228C106.917 195.241 106.797 195.247 106.632 195.247H106.309C106.22 195.235 106.119 195.228 106.006 195.228C105.879 195.38 105.702 195.456 105.474 195.456C105.309 195.457 105.16 195.397 105.027 195.276Z" fill="#1E3D44"/>
<path d="M109.774 195.276C109.642 195.156 109.576 195.014 109.576 194.85C109.576 194.736 109.601 194.596 109.651 194.431C109.689 194.255 109.708 194.122 109.708 194.033C109.708 192.906 109.644 190.742 109.518 187.539C109.391 184.806 109.328 182.648 109.328 181.065C109.328 180.952 109.372 180.86 109.461 180.79C109.549 180.721 109.657 180.685 109.784 180.685C109.936 180.685 110.069 180.739 110.182 180.846C110.296 180.954 110.354 181.084 110.354 181.236C110.354 181.995 110.392 183.134 110.467 184.652C110.53 186.336 110.562 187.476 110.562 188.07L110.582 188.298V188.526V188.659V188.754C110.62 189.855 110.638 191.5 110.638 193.69V194.184H112.1C112.366 194.374 112.499 194.563 112.499 194.753C112.499 194.893 112.452 195.017 112.356 195.124C112.261 195.232 112.15 195.285 112.024 195.285C111.986 195.285 111.917 195.273 111.816 195.247L111.739 195.228C111.664 195.241 111.544 195.247 111.379 195.247H111.056C110.967 195.235 110.866 195.228 110.753 195.228C110.626 195.38 110.449 195.456 110.221 195.456C110.056 195.457 109.907 195.397 109.774 195.276Z" fill="#1E3D44"/>
<path d="M146.655 128.582C159.348 128.582 169.637 118.293 169.637 105.6C169.637 92.9074 159.348 82.6179 146.655 82.6179C133.963 82.6179 123.673 92.9074 123.673 105.6C123.673 118.293 133.963 128.582 146.655 128.582Z" fill="#1E212E"/>
<path d="M157.468 121.778C148.548 127.74 136.44 125.333 130.477 116.413C124.515 107.492 126.922 95.3836 135.843 89.4217C144.763 83.4598 156.871 85.8664 162.833 94.7873C168.795 103.708 166.388 115.816 157.468 121.778ZM136.632 90.6027C128.362 96.1297 126.132 107.354 131.659 115.623C137.186 123.893 148.41 126.124 156.679 120.597C164.948 115.07 167.18 103.846 161.653 95.5767C156.125 87.3072 144.901 85.0757 136.632 90.6027Z" fill="#515561"/>
<path d="M158.076 101.184C157.553 100.867 156.996 100.678 156.405 100.619C155.813 100.56 155.194 100.606 154.547 100.757C153.9 100.908 153.24 101.133 152.566 101.433C151.893 101.734 151.21 102.089 150.519 102.5C149.827 102.911 149.141 103.338 148.46 103.781C149.702 102.939 150.718 102.14 151.507 101.383C152.295 100.626 152.866 99.9022 153.22 99.2106C153.575 98.5195 153.725 97.844 153.67 97.1851C153.614 96.5263 153.364 95.8624 152.917 95.1949C152.37 94.3758 151.728 93.8246 150.991 93.54C150.255 93.2561 149.452 93.1775 148.582 93.3043C147.713 93.4312 146.791 93.7312 145.818 94.2032C145.105 94.5491 144.375 94.9555 143.629 95.4189L142.225 93.3192L140.958 94.1661L142.352 96.2522L141.189 97.0298L139.794 94.9438L137.26 96.6376L138.654 98.7237L130.752 104.006L131.373 104.936L133.473 103.533L143.516 118.559L141.417 119.963L142.046 120.905L149.949 115.623L151.343 117.709L153.878 116.015L152.484 113.929L153.647 113.151L155.041 115.237L156.309 114.39L154.914 112.304L155.01 112.241C156.202 111.444 157.221 110.665 158.064 109.905C158.908 109.146 159.536 108.378 159.949 107.602C160.362 106.826 160.541 106.027 160.488 105.207C160.434 104.386 160.104 103.523 159.498 102.616C159.073 101.979 158.599 101.502 158.076 101.184ZM142.727 97.4245C143.092 97.3008 143.472 97.2835 143.865 97.3713C144.257 97.4598 144.665 97.6788 145.088 98.0283C145.511 98.3779 145.962 98.9105 146.441 99.6257C146.919 100.341 147.242 100.968 147.411 101.505C147.58 102.042 147.633 102.512 147.57 102.917C147.507 103.321 147.349 103.671 147.098 103.966C146.876 104.226 146.605 104.46 146.3 104.678L141.767 97.8947C142.085 97.6961 142.404 97.534 142.727 97.4245ZM153.081 109.896C153.267 110.399 153.332 110.836 153.275 111.207C153.219 111.579 153.056 111.908 152.789 112.197C152.549 112.456 152.229 112.718 151.85 112.98L146.908 105.586C147.732 105.079 148.552 104.999 149.366 105.358C150.222 105.735 151.128 106.639 152.085 108.07C152.563 108.785 152.895 109.395 153.081 109.896Z" fill="#515561"/>
<path d="M199.041 117.945C207.064 117.945 213.568 111.442 213.568 103.419C213.568 95.3961 207.064 88.8923 199.041 88.8923C191.018 88.8923 184.515 95.3961 184.515 103.419C184.515 111.442 191.018 117.945 199.041 117.945Z" fill="#1E212E"/>
<path d="M195.024 115.044C188.614 112.829 185.201 105.812 187.416 99.4026C189.63 92.9928 196.647 89.5791 203.057 91.7938C209.467 94.0086 212.88 101.025 210.666 107.435C208.451 113.846 201.435 117.259 195.024 115.044ZM202.764 92.6426C196.822 90.5893 190.318 93.7537 188.264 99.6958C186.211 105.638 189.375 112.142 195.318 114.196C201.26 116.248 207.764 113.085 209.817 107.143C211.87 101.2 208.706 94.6953 202.764 92.6426Z" fill="#515561"/>
<path d="M205.627 107.483C205.588 107.098 205.47 106.746 205.274 106.425C205.077 106.105 204.818 105.81 204.495 105.542C204.172 105.274 203.806 105.028 203.397 104.804C202.989 104.58 202.549 104.371 202.078 104.18C201.606 103.989 201.129 103.807 200.646 103.633C201.545 103.937 202.336 104.143 203.018 104.251C203.7 104.358 204.282 104.37 204.766 104.284C205.25 104.199 205.647 104.016 205.958 103.737C206.269 103.457 206.507 103.077 206.673 102.598C206.876 102.009 206.909 101.475 206.771 100.996C206.633 100.517 206.365 100.082 205.969 99.6925C205.574 99.3034 205.071 98.9539 204.461 98.6439C204.015 98.4169 203.531 98.2041 203.013 98.0061L203.534 96.4972L202.624 96.1823L202.106 97.6813L201.27 97.3924L201.788 95.8934L199.967 95.2643L199.449 96.7633L193.77 94.8015L193.54 95.4703L195.048 95.9912L191.317 106.788L189.809 106.268L189.575 106.944L195.254 108.906L194.736 110.405L196.557 111.034L197.075 109.535L197.911 109.824L197.393 111.323L198.304 111.638L198.822 110.139L198.89 110.163C199.747 110.459 200.528 110.674 201.233 110.809C201.938 110.944 202.564 110.967 203.113 110.878C203.662 110.79 204.132 110.575 204.525 110.234C204.918 109.894 205.227 109.398 205.452 108.746C205.608 108.289 205.667 107.868 205.627 107.483ZM201.658 98.3179C201.86 98.4553 202.013 98.639 202.119 98.871C202.224 99.1024 202.27 99.3913 202.256 99.7383C202.242 100.085 202.146 100.515 201.968 101.029C201.791 101.544 201.599 101.946 201.393 102.236C201.187 102.526 200.97 102.733 200.743 102.855C200.514 102.978 200.279 103.032 200.034 103.018C199.818 103.005 199.597 102.959 199.371 102.888L201.055 98.0141C201.275 98.0983 201.479 98.1967 201.658 98.3179ZM199.332 108.296C199.15 108.582 198.955 108.782 198.746 108.895C198.538 109.008 198.309 109.053 198.063 109.028C197.84 109.006 197.586 108.944 197.309 108.854L199.145 103.541C199.715 103.762 200.068 104.144 200.198 104.691C200.335 105.266 200.226 106.068 199.871 107.096C199.693 107.611 199.514 108.011 199.332 108.296Z" fill="#515561"/>
<path d="M164.592 72.7883C173.077 72.7883 179.955 65.9103 179.955 57.426C179.955 48.9416 173.077 42.0637 164.592 42.0637C156.108 42.0637 149.23 48.9416 149.23 57.426C149.23 65.9103 156.108 72.7883 164.592 72.7883Z" fill="#1E212E"/>
<path d="M172.107 68.0425C166.253 72.1862 158.119 70.7942 153.976 64.9406C149.832 59.0863 151.224 50.9523 157.078 46.8092C162.931 42.6661 171.065 44.0575 175.209 49.9117C179.353 55.7654 177.961 63.8994 172.107 68.0425ZM157.626 47.5838C152.2 51.425 150.91 58.965 154.751 64.3918C158.592 69.8186 166.132 71.1085 171.559 67.2673C176.986 63.4261 178.276 55.886 174.434 50.4592C170.593 45.0331 163.053 43.7432 157.626 47.5838Z" fill="#515561"/>
<path d="M172.145 54.2713C171.79 54.0684 171.414 53.9527 171.018 53.9236C170.621 53.8952 170.208 53.9366 169.778 54.0486C169.349 54.1606 168.912 54.3233 168.467 54.5361C168.023 54.7489 167.572 54.9989 167.118 55.2853C166.663 55.5717 166.212 55.8699 165.765 56.1786C166.58 55.594 167.245 55.0415 167.757 54.5213C168.27 54.0016 168.639 53.5079 168.864 53.039C169.088 52.5707 169.177 52.1172 169.128 51.6773C169.079 51.2381 168.9 50.7989 168.589 50.3609C168.209 49.8233 167.77 49.4663 167.273 49.2894C166.776 49.1124 166.238 49.0747 165.659 49.1749C165.08 49.2751 164.47 49.4923 163.828 49.8251C163.358 50.0689 162.877 50.3534 162.387 50.6764L161.411 49.2986L160.58 49.8876L161.549 51.2567L160.785 51.7967L159.816 50.4277L158.153 51.605L159.122 52.974L153.936 56.6445L154.368 57.2551L155.746 56.2801L162.725 66.1413L161.348 67.1163L161.785 67.7344L166.971 64.0639L167.94 65.433L169.603 64.2557L168.635 62.8866L169.398 62.3465L170.367 63.7156L171.198 63.1267L170.229 61.7576L170.292 61.713C171.075 61.1594 171.741 60.6211 172.291 60.0978C172.841 59.5756 173.248 59.051 173.51 58.5245C173.771 57.9981 173.877 57.4617 173.826 56.9142C173.776 56.3667 173.54 55.7957 173.119 55.2005C172.825 54.7842 172.5 54.4742 172.145 54.2713ZM161.821 52.0337C162.064 51.9446 162.316 51.926 162.581 51.978C162.845 52.03 163.121 52.1692 163.41 52.395C163.7 52.6208 164.01 52.9685 164.342 53.438C164.675 53.9076 164.902 54.3202 165.025 54.6759C165.147 55.0316 165.191 55.3453 165.157 55.6169C165.121 55.8885 165.023 56.1248 164.86 56.3265C164.715 56.5046 164.539 56.6661 164.339 56.8164L161.189 52.3653C161.397 52.2267 161.607 52.1123 161.821 52.0337ZM168.963 60.1825C169.097 60.5153 169.147 60.8061 169.117 61.0548C169.086 61.3041 168.983 61.5275 168.809 61.7242C168.653 61.9017 168.443 62.0824 168.195 62.2649L164.761 57.4122C165.303 57.0583 165.849 56.9903 166.399 57.2161C166.977 57.4524 167.599 58.0401 168.264 58.9792C168.597 59.4488 168.83 59.8503 168.963 60.1825Z" fill="#515561"/>
</svg>
