<svg width="786" height="452" viewBox="0 0 786 452" fill="none" xmlns="http://www.w3.org/2000/svg">
<path opacity="0.4" d="M356.987 191.724C356.987 193.363 355.748 194.69 354.218 194.69C352.688 194.69 351.45 193.363 351.45 191.724C351.45 190.085 352.688 188.758 354.218 188.758C355.746 188.758 356.987 190.087 356.987 191.724Z" fill="#172F78"/>
<path opacity="0.6" d="M191.912 80.1991C191.912 82.6293 190.074 84.5972 187.807 84.5972C185.54 84.5972 183.702 82.6274 183.702 80.1991C183.702 77.7708 185.54 75.801 187.807 75.801C190.074 75.801 191.912 77.7689 191.912 80.1991Z" fill="#172F78"/>
<path opacity="0.8" d="M189.507 80.1991C189.507 81.2046 188.746 82.0203 187.807 82.0203C186.868 82.0203 186.107 81.2046 186.107 80.1991C186.107 79.1935 186.868 78.3778 187.807 78.3778C188.746 78.3778 189.507 79.1935 189.507 80.1991Z" fill="#172F78"/>
<path opacity="0.4" d="M397.406 147.915C397.406 154.406 392.493 159.667 386.435 159.667C380.376 159.667 375.465 154.404 375.465 147.915C375.465 141.423 380.378 136.162 386.435 136.162C392.493 136.16 397.406 141.423 397.406 147.915Z" fill="#172F78"/>
<path opacity="0.8" d="M386.435 152.799C388.954 152.799 390.995 150.612 390.995 147.914C390.995 145.217 388.954 143.03 386.435 143.03C383.917 143.03 381.876 145.217 381.876 147.914C381.876 150.612 383.917 152.799 386.435 152.799Z" fill="#172F78"/>
<path d="M410.637 233.098L385.793 147.33L589.371 177.872L589.244 178.831L387.078 148.499L411.498 232.81L410.637 233.098Z" fill="#172F78"/>
<path d="M632.416 261.127H631.474V280.962H632.416V261.127Z" fill="#172F78"/>
<path d="M632.416 285.614H631.474V291.97H632.416V285.614Z" fill="#03A7D3"/>
<path d="M200.09 218.787H197.099V238.62H200.09V218.787Z" fill="#03A7D3"/>
<path d="M200.09 243.176H197.099V248.843H200.09V243.176Z" fill="#172F78"/>
<path d="M200.09 253.59H197.099V259.255H200.09V253.59Z" fill="#172F78"/>
<path d="M307.992 0.27124H305.008V20.1039H307.992V0.27124Z" fill="#172F78"/>
<path d="M307.992 24.6598H305.008V30.3247H307.992V24.6598Z" fill="#03A7D3"/>
<path d="M307.992 35.0724H305.008V40.7391H307.992V35.0724Z" fill="#03A7D3"/>
<path d="M307.992 45.485H305.008V61.5624H307.992V45.485Z" fill="#03A7D3"/>
<path d="M517.437 419.164H516.495V425.523H517.437V419.164Z" fill="#172F78"/>
<path d="M517.437 368.682H516.495V388.797H517.437V368.682Z" fill="#172F78"/>
<path d="M624.003 180.284H621.004V189.271H624.003V180.284Z" fill="#172F78"/>
<path d="M624.003 145.678H621.004V173.709H624.003V145.678Z" fill="#03A7D3"/>
<path d="M624.003 108.93H621.004V137.36H624.003V108.93Z" fill="#172F78"/>
<path d="M624.003 66.7153H621.004V95.1454H624.003V66.7153Z" fill="#172F78"/>
<path opacity="0.4" d="M208.912 72.3372C214.61 72.3372 219.23 67.3884 219.23 61.2838C219.23 55.1791 214.61 50.2303 208.912 50.2303C203.214 50.2303 198.595 55.1791 198.595 61.2838C198.595 67.3884 203.214 72.3372 208.912 72.3372Z" fill="#03A7D3"/>
<path opacity="0.8" d="M208.912 66.7154C211.712 66.7154 213.982 64.2835 213.982 61.2836C213.982 58.2837 211.712 55.8518 208.912 55.8518C206.112 55.8518 203.842 58.2837 203.842 61.2836C203.842 64.2835 206.112 66.7154 208.912 66.7154Z" fill="#03A7D3"/>
<path opacity="0.4" d="M285.006 385.391C285.006 389.509 281.889 392.849 278.045 392.849C274.201 392.849 271.084 389.509 271.084 385.391C271.084 381.273 274.2 377.933 278.045 377.933C281.891 377.933 285.006 381.271 285.006 385.391Z" fill="#03A7D3"/>
<path opacity="0.8" d="M278.045 389.056C279.935 389.056 281.466 387.415 281.466 385.391C281.466 383.367 279.935 381.726 278.045 381.726C276.156 381.726 274.624 383.367 274.624 385.391C274.624 387.415 276.156 389.056 278.045 389.056Z" fill="#03A7D3"/>
<path opacity="0.4" d="M532.581 303.974C536.587 303.974 539.834 300.496 539.834 296.205C539.834 291.913 536.587 288.435 532.581 288.435C528.576 288.435 525.329 291.913 525.329 296.205C525.329 300.496 528.576 303.974 532.581 303.974Z" fill="#03A7D3"/>
<path opacity="0.8" d="M532.581 300.022C534.549 300.022 536.144 298.313 536.144 296.204C536.144 294.096 534.549 292.387 532.581 292.387C530.613 292.387 529.018 294.096 529.018 296.204C529.018 298.313 530.613 300.022 532.581 300.022Z" fill="#03A7D3"/>
<path opacity="0.4" d="M348.713 130.499C348.713 133.818 346.202 136.508 343.104 136.508C340.006 136.508 337.495 133.818 337.495 130.499C337.495 127.18 340.006 124.49 343.104 124.49C346.202 124.49 348.713 127.18 348.713 130.499Z" fill="#03A7D3"/>
<path opacity="0.8" d="M343.104 133.452C344.626 133.452 345.86 132.13 345.86 130.499C345.86 128.868 344.626 127.546 343.104 127.546C341.582 127.546 340.348 128.868 340.348 130.499C340.348 132.13 341.582 133.452 343.104 133.452Z" fill="#03A7D3"/>
<path opacity="0.4" d="M554.183 376.415C555.863 376.415 557.225 374.956 557.225 373.156C557.225 371.356 555.863 369.897 554.183 369.897C552.503 369.897 551.141 371.356 551.141 373.156C551.141 374.956 552.503 376.415 554.183 376.415Z" fill="#03A7D3"/>
<path opacity="0.4" d="M532.739 193.752C532.739 194.758 531.978 195.573 531.039 195.573C530.101 195.573 529.339 194.758 529.339 193.752C529.339 192.747 530.101 191.931 531.039 191.931C531.978 191.931 532.739 192.747 532.739 193.752Z" fill="#03A7D3"/>
<path opacity="0.4" d="M301.041 340.268C301.041 341.273 300.28 342.089 299.341 342.089C298.403 342.089 297.641 341.273 297.641 340.268C297.641 339.262 298.403 338.447 299.341 338.447C300.28 338.447 301.041 339.262 301.041 340.268Z" fill="#03A7D3"/>
<path d="M404.479 284.76C401.032 284.76 397.586 283.948 394.962 282.326L330.964 242.74C328.308 241.097 326.846 238.876 326.846 236.483C326.846 234.092 328.308 231.869 330.964 230.228L394.623 190.57C399.874 187.324 408.414 187.324 413.661 190.57L477.659 230.155C480.315 231.797 481.777 234.019 481.777 236.41C481.777 238.802 480.313 241.024 477.659 242.667L414 282.324C411.375 283.95 407.926 284.76 404.479 284.76ZM404.142 189.394C400.911 189.394 397.679 190.155 395.219 191.675L331.56 231.333C329.288 232.739 328.038 234.568 328.038 236.485C328.038 238.402 329.288 240.233 331.559 241.637L395.556 281.223C400.477 284.268 408.483 284.264 413.404 281.223L477.063 241.565C479.335 240.159 480.585 238.33 480.585 236.413C480.585 234.496 479.335 232.667 477.064 231.263L413.065 191.677C410.605 190.155 407.374 189.394 404.142 189.394Z" fill="#03A7D3"/>
<path d="M481.494 214.776L481.484 181.904L442.709 187.446L413.676 169.488C408.583 166.337 400.327 166.337 395.234 169.488L390.713 172.566L327.759 181.565V214.823C327.759 214.842 327.759 214.861 327.759 214.878V215.034L327.782 215.03C327.854 217.034 329.101 219.024 331.573 220.554L395.572 260.139C400.665 263.289 408.921 263.289 414.014 260.139L477.675 220.479C480.14 218.955 481.384 216.972 481.464 214.974L481.494 214.97V214.776Z" fill="url(#paint0_linear_2_5147)"/>
<path d="M477.675 175.953L413.678 136.369C408.585 133.219 400.329 133.219 395.236 136.369L331.575 176.026C326.482 179.177 326.482 184.283 331.575 187.433L395.574 227.018C400.667 230.168 408.923 230.168 414.016 227.018L477.677 187.36C482.768 184.21 482.768 179.103 477.675 175.953Z" fill="url(#paint1_radial_2_5147)"/>
<path d="M477.675 185.368L414.014 225.026C408.921 228.176 400.665 228.176 395.572 225.026L331.573 185.441C329.438 184.12 328.21 182.454 327.866 180.733C327.389 183.116 328.617 185.603 331.573 187.431L395.572 227.018C400.665 230.168 408.921 230.168 414.014 227.018L477.675 187.358C480.633 185.529 481.859 183.041 481.382 180.66C481.038 182.381 479.81 184.048 477.675 185.368Z" fill="white"/>
<path d="M422.619 235.793L419.59 237.667V233.92L422.619 232.046V235.793Z" fill="white"/>
<path d="M428.958 231.873L425.928 233.746V229.999L428.958 228.125V231.873Z" fill="white"/>
<path d="M435.297 227.952L432.267 229.826V226.078L435.297 224.204V227.952Z" fill="white"/>
<path d="M430.114 238.752L427.084 240.626V236.878L430.114 235.004V238.752Z" fill="white"/>
<path d="M435.694 235.301L432.665 237.175V233.425L435.694 231.551V235.301Z" fill="white"/>
<path d="M455.626 215.376L452.596 217.25V213.502L455.626 211.628V215.376Z" fill="white"/>
<path d="M473.088 204.576L470.058 206.45V202.702L473.088 200.828V204.576Z" fill="white"/>
<path d="M441.635 224.031L438.605 225.905V222.157L441.635 220.283V224.031Z" fill="white"/>
<path opacity="0.4" d="M401.004 210.296L357.946 183.663C356.195 182.58 356.416 180.69 358.436 179.44L400.511 153.414C402.532 152.164 405.588 152.029 407.339 153.111L450.396 179.744C452.147 180.827 451.926 182.718 449.907 183.967L407.832 209.993C405.811 211.243 402.755 211.378 401.004 210.296Z" fill="#06033E"/>
<path d="M384.064 239.124L348.532 217.147C347.685 216.622 346.997 215.214 346.997 214.002V211.175C346.997 209.963 347.685 209.407 348.532 209.931L384.064 231.908C384.911 232.433 385.599 233.84 385.599 235.051V237.878C385.599 239.092 384.913 239.648 384.064 239.124Z" fill="white"/>
<path d="M481.494 153.104L481.484 120.231L442.709 125.774L413.676 107.813C408.583 104.663 400.327 104.663 395.234 107.813L390.713 110.892L327.759 119.891V153.149C327.759 153.168 327.759 153.187 327.759 153.204V153.36L327.782 153.356C327.854 155.359 329.101 157.35 331.573 158.88L395.572 198.464C400.665 201.614 408.921 201.614 414.014 198.464L477.675 158.805C480.14 157.28 481.384 155.297 481.464 153.299L481.494 153.296V153.104Z" fill="url(#paint2_linear_2_5147)"/>
<path d="M477.675 114.282L413.678 74.6979C408.585 71.5478 400.329 71.5478 395.236 74.6979L331.575 114.356C326.482 117.506 326.482 122.612 331.575 125.762L395.574 165.347C400.667 168.497 408.923 168.497 414.016 165.347L477.677 125.689C482.768 122.539 482.768 117.432 477.675 114.282Z" fill="url(#paint3_radial_2_5147)"/>
<path opacity="0.4" d="M447.189 116.677L409.898 93.6116C406.932 91.7753 402.12 91.7753 399.153 93.6116L362.058 116.72C359.092 118.555 359.092 121.532 362.058 123.366L399.349 146.432C402.316 148.268 407.128 148.268 410.095 146.432L447.189 123.323C450.158 121.489 450.158 118.513 447.189 116.677Z" fill="#06033E"/>
<path d="M477.675 123.697L414.014 163.355C408.921 166.505 400.665 166.505 395.572 163.355L331.573 123.77C329.438 122.449 328.21 120.784 327.866 119.062C327.389 121.445 328.617 123.932 331.573 125.761L395.572 165.347C400.665 168.497 408.921 168.497 414.014 165.347L477.675 125.689C480.633 123.861 481.859 121.372 481.382 118.991C481.038 120.71 479.81 122.376 477.675 123.697Z" fill="white"/>
<path d="M422.619 174.121L419.59 175.997V172.249L422.619 170.373V174.121Z" fill="white"/>
<path d="M428.958 170.202L425.928 172.076V168.328L428.958 166.452V170.202Z" fill="white"/>
<path d="M435.297 166.281L432.267 168.155V164.407L435.297 162.533V166.281Z" fill="white"/>
<path d="M430.114 177.081L427.084 178.955V175.207L430.114 173.333V177.081Z" fill="white"/>
<path d="M435.694 173.628L432.665 175.502V171.754L435.694 169.88V173.628Z" fill="white"/>
<path d="M455.626 153.705L452.596 155.579V151.831L455.626 149.958V153.705Z" fill="white"/>
<path d="M473.088 142.906L470.058 144.779V141.032L473.088 139.158V142.906Z" fill="white"/>
<path d="M441.635 162.36L438.605 164.234V160.487L441.635 158.613V162.36Z" fill="white"/>
<path d="M481.494 91.4332L481.484 58.5604L442.709 64.1031L413.676 46.1425C408.583 42.9924 400.327 42.9924 395.234 46.1425L390.713 49.2211L327.759 58.2202V91.4783C327.759 91.4971 327.759 91.5159 327.759 91.5328V91.6888L327.782 91.6851C327.854 93.6886 329.101 95.679 331.573 97.2089L395.572 136.793C400.665 139.944 408.921 139.944 414.014 136.793L477.675 97.1338C480.14 95.6095 481.384 93.6266 481.464 91.6287L481.494 91.6249V91.4332Z" fill="url(#paint4_linear_2_5147)"/>
<path d="M477.675 52.6099L413.678 13.0254C408.585 9.87532 400.329 9.87532 395.236 13.0254L331.575 52.6832C326.482 55.8333 326.482 60.9399 331.575 64.09L395.574 103.675C400.667 106.825 408.923 106.825 414.016 103.675L477.677 64.0167C482.768 60.8666 482.768 55.76 477.675 52.6099Z" fill="url(#paint5_radial_2_5147)"/>
<path d="M477.675 62.0244L414.014 101.682C408.921 104.832 400.665 104.832 395.572 101.682L331.573 62.0977C329.438 60.7764 328.21 59.1112 327.866 57.3914C327.389 59.7746 328.617 62.2612 331.573 64.09L395.572 103.676C400.665 106.826 408.921 106.826 414.014 103.676L477.675 64.0167C480.633 62.188 481.859 59.6995 481.382 57.3181C481.038 59.0379 479.81 60.705 477.675 62.0244Z" fill="white"/>
<path d="M422.619 112.45L419.59 114.324V110.576L422.619 108.702V112.45Z" fill="white"/>
<path d="M428.958 108.529L425.928 110.403V106.655L428.958 104.781V108.529Z" fill="white"/>
<path d="M435.297 104.609L432.267 106.482V102.735L435.297 100.861V104.609Z" fill="white"/>
<path d="M430.114 115.408L427.084 117.282V113.534L430.114 111.661V115.408Z" fill="white"/>
<path d="M435.694 111.957L432.665 113.831V110.084L435.694 108.208V111.957Z" fill="white"/>
<path d="M455.626 92.0326L452.596 93.9064V90.1587L455.626 88.2848V92.0326Z" fill="white"/>
<path d="M473.088 81.233L470.058 83.1069V79.3591L473.088 77.4852V81.233Z" fill="white"/>
<path d="M441.635 100.688L438.605 102.562V98.8141L441.635 96.9402V100.688Z" fill="white"/>
<path opacity="0.5" d="M282.312 354.878C277.782 354.878 273.251 353.811 269.805 351.679L185.705 299.659C182.215 297.5 180.295 294.581 180.295 291.439C180.295 288.295 182.217 285.375 185.705 283.217L269.36 231.102C276.258 226.832 287.48 226.834 294.378 231.1L378.478 283.12C381.968 285.279 383.889 288.198 383.889 291.34C383.889 294.484 381.968 297.404 378.478 299.562L294.823 351.677C291.374 353.813 286.842 354.878 282.312 354.878ZM281.869 229.554C277.623 229.554 273.376 230.554 270.141 232.555L186.487 284.669C183.501 286.516 181.858 288.922 181.858 291.441C181.858 293.961 183.501 296.364 186.485 298.209L270.584 350.229C277.051 354.228 287.57 354.228 294.037 350.229L377.692 298.115C380.677 296.267 382.321 293.862 382.321 291.343C382.321 288.823 380.677 286.42 377.694 284.575L293.594 232.557C290.362 230.554 286.116 229.554 281.869 229.554Z" fill="#03A7D3"/>
<path d="M368.292 284.943L368.281 252.07L329.506 257.612L300.473 239.654C295.38 236.504 287.124 236.504 282.031 239.654L277.51 242.732L214.556 251.731V284.99C214.556 285.008 214.556 285.027 214.556 285.044V285.2L214.579 285.196C214.651 287.2 215.898 289.19 218.37 290.72L282.368 330.305C287.461 333.455 295.717 333.455 300.81 330.305L364.471 290.645C366.936 289.121 368.179 287.138 368.26 285.14L368.292 285.136V284.943Z" fill="url(#paint6_linear_2_5147)"/>
<path d="M364.472 246.121L300.475 206.537C295.382 203.387 287.126 203.387 282.033 206.537L218.372 246.195C213.279 249.345 213.279 254.451 218.372 257.601L282.37 297.186C287.463 300.336 295.719 300.336 300.812 297.186L364.472 257.528C369.565 254.378 369.565 249.271 364.472 246.121Z" fill="url(#paint7_radial_2_5147)"/>
<path d="M364.473 255.536L300.812 295.194C295.719 298.344 287.463 298.344 282.37 295.194L218.372 255.609C216.237 254.288 215.009 252.622 214.665 250.901C214.188 253.284 215.416 255.771 218.372 257.599L282.37 297.186C287.463 300.336 295.719 300.336 300.812 297.186L364.473 257.526C367.431 255.697 368.657 253.209 368.18 250.828C367.836 252.549 366.608 254.214 364.473 255.536Z" fill="white"/>
<path d="M309.417 305.961L306.387 307.835V304.087L309.417 302.214V305.961Z" fill="white"/>
<path d="M315.755 302.041L312.726 303.915V300.167L315.755 298.293V302.041Z" fill="white"/>
<path d="M322.092 298.12L319.064 299.994V296.246L322.092 294.372V298.12Z" fill="white"/>
<path d="M316.911 308.92L313.882 310.794V307.046L316.911 305.172V308.92Z" fill="white"/>
<path d="M322.493 305.467L319.463 307.341V303.593L322.493 301.719V305.467Z" fill="white"/>
<path d="M342.423 285.544L339.394 287.418V283.67L342.423 281.796V285.544Z" fill="white"/>
<path d="M359.885 274.744L356.855 276.618V272.871L359.885 270.997V274.744Z" fill="white"/>
<path d="M328.433 294.199L325.403 296.073V292.325L328.433 290.451V294.199Z" fill="white"/>
<path opacity="0.4" d="M287.801 280.464L244.744 253.831C242.993 252.748 243.214 250.858 245.233 249.608L287.308 223.582C289.329 222.332 292.385 222.197 294.136 223.279L337.194 249.912C338.945 250.995 338.725 252.886 336.704 254.135L294.629 280.161C292.608 281.411 289.55 281.546 287.801 280.464Z" fill="#06033E"/>
<path d="M270.861 309.29L235.33 287.313C234.482 286.788 233.795 285.381 233.795 284.17V281.343C233.795 280.131 234.482 279.575 235.33 280.099L270.861 302.076C271.708 302.601 272.396 304.008 272.396 305.221V308.048C272.396 309.258 271.708 309.814 270.861 309.29Z" fill="white"/>
<path d="M368.292 223.272L368.281 190.399L329.506 195.942L300.473 177.983C295.38 174.833 287.124 174.833 282.031 177.983L277.51 181.062L214.556 190.061V223.319C214.556 223.338 214.556 223.356 214.556 223.373V223.529L214.579 223.526C214.651 225.529 215.898 227.52 218.37 229.05L282.368 268.634C287.461 271.784 295.717 271.784 300.81 268.634L364.471 228.974C366.936 227.45 368.179 225.467 368.26 223.469L368.292 223.465V223.272Z" fill="url(#paint8_linear_2_5147)"/>
<path d="M364.472 184.449L300.475 144.864C295.382 141.714 287.126 141.714 282.033 144.864L218.372 184.522C213.279 187.672 213.279 192.779 218.372 195.929L282.37 235.515C287.463 238.665 295.719 238.665 300.812 235.515L364.472 195.857C369.565 192.707 369.565 187.599 364.472 184.449Z" fill="url(#paint9_radial_2_5147)"/>
<path opacity="0.4" d="M333.987 186.845L296.696 163.78C293.729 161.943 288.917 161.943 285.95 163.78L248.856 186.888C245.889 188.725 245.889 191.7 248.856 193.534L286.147 216.6C289.113 218.436 293.926 218.436 296.892 216.6L333.987 193.491C336.955 191.657 336.955 188.681 333.987 186.845Z" fill="#06033E"/>
<path d="M364.473 193.863L300.812 233.521C295.719 236.671 287.463 236.671 282.37 233.521L218.372 193.936C216.237 192.615 215.009 190.95 214.665 189.228C214.188 191.611 215.416 194.098 218.372 195.927L282.37 235.513C287.463 238.663 295.719 238.663 300.812 235.513L364.473 195.855C367.431 194.027 368.657 191.538 368.18 189.157C367.836 190.876 366.608 192.544 364.473 193.863Z" fill="white"/>
<path d="M309.417 244.289L306.387 246.163V242.415L309.417 240.541V244.289Z" fill="white"/>
<path d="M315.755 240.368L312.726 242.242V238.494L315.755 236.62V240.368Z" fill="white"/>
<path d="M322.092 236.447L319.064 238.321V234.573L322.092 232.7V236.447Z" fill="white"/>
<path d="M316.911 247.247L313.882 249.123V245.373L316.911 243.499V247.247Z" fill="white"/>
<path d="M322.493 243.796L319.463 245.67V241.922L322.493 240.048V243.796Z" fill="white"/>
<path d="M342.423 223.873L339.394 225.747V221.999L342.423 220.124V223.873Z" fill="white"/>
<path d="M359.885 213.072L356.855 214.946V211.198L359.885 209.324V213.072Z" fill="white"/>
<path d="M328.433 232.526L325.403 234.402V230.653L328.433 228.779V232.526Z" fill="white"/>
<path d="M368.292 161.599L368.281 128.726L329.506 134.269L300.473 116.31C295.38 113.16 287.124 113.16 282.031 116.31L277.51 119.389L214.556 128.388V161.646C214.556 161.665 214.556 161.684 214.556 161.701V161.857L214.579 161.853C214.651 163.856 215.898 165.847 218.37 167.377L282.368 206.961C287.461 210.111 295.717 210.111 300.81 206.961L364.471 167.302C366.936 165.777 368.179 163.794 368.26 161.797L368.292 161.793V161.599Z" fill="url(#paint10_linear_2_5147)"/>
<path d="M364.472 122.778L300.475 83.1934C295.382 80.0433 287.126 80.0433 282.033 83.1934L218.372 122.851C213.279 126.001 213.279 131.108 218.372 134.258L282.37 173.842C287.463 176.993 295.719 176.993 300.812 173.842L364.472 134.185C369.565 131.035 369.565 125.928 364.472 122.778Z" fill="url(#paint11_radial_2_5147)"/>
<path d="M364.472 122.778L300.475 83.1934C295.382 80.0433 287.126 80.0433 282.033 83.1934L218.372 122.851C213.279 126.001 213.279 131.108 218.372 134.258L282.37 173.842C287.463 176.993 295.719 176.993 300.812 173.842L364.472 134.185C369.565 131.035 369.565 125.928 364.472 122.778Z" fill="url(#paint12_linear_2_5147)"/>
<path d="M291.533 161.016C289.185 161.016 286.838 160.451 285.008 159.319L242.605 133.091C240.705 131.916 239.66 130.3 239.66 128.542C239.66 126.783 240.705 125.167 242.605 123.992L284.782 97.7144C288.445 95.4495 294.177 95.4495 297.834 97.7144L340.239 123.943C342.139 125.118 343.185 126.734 343.185 128.491C343.185 130.251 342.139 131.867 340.239 133.042L298.061 159.317C296.229 160.453 293.88 161.016 291.533 161.016ZM291.31 97.8008C289.249 97.8008 287.185 98.2857 285.615 99.2574L243.437 125.533C242.07 126.377 241.319 127.446 241.319 128.542C241.319 129.638 242.07 130.706 243.433 131.549L285.836 157.778C288.975 159.72 294.084 159.72 297.224 157.778L339.403 131.502C340.769 130.659 341.52 129.589 341.52 128.493C341.52 127.398 340.769 126.33 339.404 125.486L296.999 99.2574C295.435 98.2857 293.371 97.8008 291.31 97.8008Z" fill="#8B1E64"/>
<path d="M364.473 132.192L300.812 171.85C295.719 175 287.463 175 282.37 171.85L218.372 132.266C216.237 130.944 215.009 129.279 214.665 127.557C214.188 129.941 215.416 132.427 218.372 134.256L282.37 173.842C287.463 176.992 295.719 176.992 300.812 173.842L364.473 134.185C367.431 132.356 368.657 129.867 368.18 127.486C367.836 129.206 366.608 130.871 364.473 132.192Z" fill="white"/>
<path d="M309.417 182.618L306.387 184.492V180.744L309.417 178.87V182.618Z" fill="white"/>
<path d="M315.755 178.697L312.726 180.571V176.823L315.755 174.949V178.697Z" fill="white"/>
<path d="M322.092 174.777L319.064 176.65V172.903L322.092 171.029V174.777Z" fill="white"/>
<path d="M316.911 185.576L313.882 187.45V183.702L316.911 181.828V185.576Z" fill="white"/>
<path d="M322.493 182.123L319.463 183.997V180.25L322.493 178.376V182.123Z" fill="white"/>
<path d="M342.423 162.201L339.394 164.075V160.327L342.423 158.453V162.201Z" fill="white"/>
<path d="M359.885 151.401L356.855 153.275V149.527L359.885 147.653V151.401Z" fill="white"/>
<path d="M328.433 170.856L325.403 172.73V168.982L328.433 167.108V170.856Z" fill="white"/>
<path opacity="0.5" d="M526.557 351.179C522.027 351.179 517.499 350.112 514.05 347.981L429.951 295.96C426.463 293.802 424.54 290.882 424.54 287.743C424.54 284.599 426.463 281.677 429.951 279.518L513.605 227.406C520.503 223.136 531.726 223.138 538.624 227.404L622.725 279.422C626.216 281.581 628.136 284.5 628.136 287.642C628.136 290.786 626.216 293.703 622.725 295.861L539.069 347.976C535.62 350.115 531.087 351.179 526.557 351.179ZM526.114 225.858C521.868 225.858 517.621 226.858 514.389 228.859L430.735 280.971C427.749 282.82 426.103 285.226 426.105 287.743C426.105 290.262 427.749 292.665 430.732 294.51L514.832 346.531C521.298 350.53 531.818 350.53 538.285 346.531L621.939 294.417C624.927 292.569 626.571 290.163 626.571 287.647C626.571 285.127 624.927 282.724 621.942 280.879L537.842 228.859C534.608 226.858 530.361 225.858 526.114 225.858Z" fill="#03A7D3"/>
<path d="M594.288 284.875L594.277 252.002L555.502 257.545L526.469 239.586C521.376 236.436 513.12 236.436 508.027 239.586L503.506 242.665L440.552 251.664V284.922C440.552 284.941 440.552 284.959 440.552 284.976V285.132L440.577 285.129C440.649 287.132 441.896 289.123 444.368 290.653L508.366 330.237C513.459 333.387 521.715 333.387 526.808 330.237L590.468 290.577C592.933 289.053 594.177 287.07 594.258 285.072L594.288 285.068V284.875Z" fill="url(#paint13_linear_2_5147)"/>
<path d="M590.469 246.052L526.471 206.467C521.378 203.317 513.122 203.317 508.029 206.467L444.368 246.125C439.275 249.275 439.275 254.382 444.368 257.532L508.366 297.116C513.459 300.266 521.715 300.266 526.808 297.116L590.469 257.458C595.562 254.308 595.562 249.202 590.469 246.052Z" fill="url(#paint14_radial_2_5147)"/>
<path d="M590.468 255.466L526.807 295.124C521.715 298.274 513.458 298.274 508.366 295.124L444.368 255.54C442.233 254.218 441.005 252.553 440.661 250.831C440.184 253.215 441.412 255.701 444.368 257.53L508.366 297.116C513.458 300.266 521.715 300.266 526.807 297.116L590.468 257.457C593.426 255.628 594.652 253.139 594.175 250.758C593.831 252.48 592.605 254.145 590.468 255.466Z" fill="white"/>
<path d="M535.413 305.892L532.383 307.766V304.018L535.413 302.144V305.892Z" fill="white"/>
<path d="M541.751 301.971L538.722 303.845V300.097L541.751 298.223V301.971Z" fill="white"/>
<path d="M548.09 298.05L545.06 299.924V296.176L548.09 294.303V298.05Z" fill="white"/>
<path d="M542.907 308.85L539.878 310.724V306.976L542.907 305.102V308.85Z" fill="white"/>
<path d="M548.488 305.397L545.458 307.273V303.523L548.488 301.65V305.397Z" fill="white"/>
<path d="M568.421 285.474L565.391 287.348V283.601L568.421 281.727V285.474Z" fill="white"/>
<path d="M585.881 274.675L582.851 276.549V272.801L585.881 270.927V274.675Z" fill="white"/>
<path d="M554.429 294.13L551.399 296.004V292.256L554.429 290.382V294.13Z" fill="white"/>
<path opacity="0.4" d="M513.797 280.394L470.74 253.761C468.989 252.679 469.21 250.788 471.229 249.538L513.304 223.512C515.325 222.263 518.383 222.127 520.132 223.21L563.19 249.843C564.941 250.925 564.72 252.816 562.7 254.066L520.625 280.092C518.604 281.341 515.548 281.477 513.797 280.394Z" fill="#06033E"/>
<path d="M496.857 309.222L461.326 287.245C460.477 286.721 459.791 285.313 459.791 284.101V281.274C459.791 280.062 460.479 279.505 461.326 280.03L496.857 302.007C497.705 302.531 498.392 303.939 498.392 305.151V307.978C498.394 309.189 497.706 309.747 496.857 309.222Z" fill="white"/>
<path d="M594.288 223.202L594.277 190.33L555.502 195.872L526.469 177.913C521.376 174.763 513.12 174.763 508.027 177.913L503.506 180.992L440.552 189.991V223.249C440.552 223.268 440.552 223.287 440.552 223.304V223.46L440.577 223.456C440.649 225.46 441.896 227.45 444.368 228.98L508.366 268.564C513.459 271.715 521.715 271.715 526.808 268.564L590.468 228.905C592.933 227.38 594.177 225.398 594.258 223.4L594.288 223.396V223.202Z" fill="url(#paint15_linear_2_5147)"/>
<path d="M590.469 184.381L526.471 144.796C521.378 141.646 513.122 141.646 508.029 144.796L444.368 184.454C439.275 187.604 439.275 192.711 444.368 195.861L508.366 235.446C513.459 238.596 521.715 238.596 526.808 235.446L590.469 195.788C595.562 192.638 595.562 187.531 590.469 184.381Z" fill="url(#paint16_radial_2_5147)"/>
<path opacity="0.4" d="M559.983 186.775L522.692 163.71C519.725 161.874 514.913 161.874 511.946 163.71L474.852 186.819C471.885 188.655 471.885 191.63 474.852 193.465L512.143 216.53C515.11 218.366 519.922 218.366 522.888 216.53L559.983 193.421C562.951 191.587 562.951 188.612 559.983 186.775Z" fill="#06033E"/>
<path d="M590.468 193.795L526.807 233.453C521.715 236.603 513.458 236.603 508.366 233.453L444.368 193.869C442.233 192.547 441.005 190.882 440.661 189.16C440.184 191.544 441.412 194.03 444.368 195.859L508.366 235.444C513.458 238.594 521.715 238.594 526.807 235.444L590.468 195.786C593.426 193.957 594.652 191.469 594.175 189.087C593.831 190.809 592.605 192.474 590.468 193.795Z" fill="white"/>
<path d="M535.413 244.221L532.383 246.093V242.345L535.413 240.471V244.221Z" fill="white"/>
<path d="M541.751 240.3L538.722 242.174V238.424L541.751 236.552V240.3Z" fill="white"/>
<path d="M548.09 236.38L545.06 238.253V234.506L548.09 232.632V236.38Z" fill="white"/>
<path d="M542.907 247.179L539.878 249.053V245.305L542.907 243.432V247.179Z" fill="white"/>
<path d="M548.488 243.726L545.458 245.6V241.853L548.488 239.979V243.726Z" fill="white"/>
<path d="M568.421 223.804L565.391 225.678V221.93L568.421 220.056V223.804Z" fill="white"/>
<path d="M585.881 213.004L582.851 214.878V211.13L585.881 209.256V213.004Z" fill="white"/>
<path d="M554.429 232.459L551.399 234.333V230.585L554.429 228.711V232.459Z" fill="white"/>
<path d="M594.288 161.532L594.277 128.659L555.502 134.202L526.469 116.243C521.376 113.093 513.12 113.093 508.027 116.243L503.506 119.321L440.552 128.321V161.579C440.552 161.597 440.552 161.616 440.552 161.633V161.789L440.577 161.785C440.649 163.789 441.896 165.779 444.368 167.309L508.366 206.894C513.459 210.044 521.715 210.044 526.808 206.894L590.468 167.234C592.933 165.71 594.177 163.727 594.258 161.729L594.288 161.725V161.532Z" fill="url(#paint17_linear_2_5147)"/>
<path d="M590.469 122.708L526.471 83.1238C521.378 79.9737 513.122 79.9737 508.029 83.1238L444.368 122.782C439.275 125.932 439.275 131.038 444.368 134.188L508.366 173.773C513.459 176.923 521.715 176.923 526.808 173.773L590.469 134.115C595.562 130.965 595.562 125.858 590.469 122.708Z" fill="url(#paint18_radial_2_5147)"/>
<path d="M590.468 132.123L526.807 171.781C521.715 174.931 513.458 174.931 508.366 171.781L444.368 132.196C442.233 130.875 441.005 129.21 440.661 127.488C440.184 129.871 441.412 132.358 444.368 134.187L508.366 173.771C513.458 176.921 521.715 176.921 526.807 173.771L590.468 134.113C593.426 132.285 594.652 129.796 594.175 127.415C593.831 129.136 592.605 130.803 590.468 132.123Z" fill="white"/>
<path d="M535.413 182.548L532.383 184.422V180.675L535.413 178.801V182.548Z" fill="white"/>
<path d="M541.751 178.628L538.722 180.501V176.754L541.751 174.88V178.628Z" fill="white"/>
<path d="M548.09 174.707L545.06 176.581V172.833L548.09 170.959V174.707Z" fill="white"/>
<path d="M542.907 185.507L539.878 187.381V183.633L542.907 181.759V185.507Z" fill="white"/>
<path d="M548.488 182.054L545.458 183.93V180.18L548.488 178.306V182.054Z" fill="white"/>
<path d="M568.421 162.131L565.391 164.005V160.257L568.421 158.383V162.131Z" fill="white"/>
<path d="M585.881 151.331L582.851 153.205V149.458L585.881 147.584V151.331Z" fill="white"/>
<path d="M554.429 170.786L551.399 172.66V168.912L554.429 167.038V170.786Z" fill="white"/>
<path opacity="0.5" d="M404.556 428.445C400.026 428.445 395.498 427.378 392.049 425.246L307.947 373.226C304.457 371.067 302.536 368.148 302.536 365.006C302.536 361.862 304.457 358.942 307.947 356.784L391.602 304.669C398.502 300.404 409.725 300.404 416.62 304.667L500.72 356.687C504.21 358.846 506.13 361.765 506.13 364.907C506.13 368.051 504.21 370.971 500.72 373.129L417.065 425.244C413.619 427.38 409.086 428.445 404.556 428.445ZM404.113 303.121C399.867 303.121 395.62 304.121 392.388 306.122L308.733 358.236C305.748 360.083 304.104 362.489 304.104 365.008C304.104 367.528 305.748 369.931 308.731 371.776L392.833 423.796C399.3 427.795 409.819 427.795 416.286 423.796L499.94 371.682C502.926 369.834 504.57 367.429 504.57 364.91C504.57 362.39 502.926 359.987 499.943 358.142L415.843 306.122C412.606 304.121 408.36 303.121 404.113 303.121Z" fill="#03A7D3"/>
<path opacity="0.2" d="M461.119 372.22L410.993 341.215C407.003 338.748 400.537 338.748 396.549 341.215L346.686 372.278C342.697 374.746 342.697 378.746 346.686 381.213L396.812 412.218C400.802 414.686 407.268 414.686 411.256 412.218L461.119 381.155C465.108 378.687 465.106 374.686 461.119 372.22Z" fill="#03A7D3"/>
<path d="M481.085 355.041L481.074 322.168L442.299 327.711L413.266 309.752C408.173 306.602 399.917 306.602 394.824 309.752L390.303 312.831L327.349 321.83V355.088C327.349 355.107 327.349 355.126 327.349 355.143V355.299L327.374 355.295C327.446 357.298 328.693 359.289 331.165 360.819L395.163 400.403C400.256 403.553 408.512 403.553 413.605 400.403L477.266 360.744C479.731 359.219 480.974 357.236 481.055 355.239L481.085 355.235V355.041Z" fill="url(#paint19_linear_2_5147)"/>
<path d="M477.266 316.22L413.268 276.635C408.176 273.485 399.919 273.485 394.826 276.635L331.166 316.293C326.073 319.443 326.073 324.55 331.166 327.7L395.163 367.284C400.256 370.434 408.512 370.434 413.605 367.284L477.266 327.627C482.359 324.477 482.359 319.37 477.266 316.22Z" fill="url(#paint20_radial_2_5147)"/>
<path d="M477.266 325.634L413.605 365.292C408.512 368.442 400.256 368.442 395.163 365.292L331.166 325.708C329.031 324.386 327.803 322.721 327.459 320.999C326.982 323.383 328.21 325.869 331.166 327.698L395.163 367.284C400.256 370.434 408.512 370.434 413.605 367.284L477.266 327.625C480.222 325.796 481.45 323.307 480.973 320.926C480.629 322.648 479.401 324.313 477.266 325.634Z" fill="white"/>
<path d="M422.21 376.06L419.18 377.934V374.186L422.21 372.312V376.06Z" fill="white"/>
<path d="M428.549 372.139L425.519 374.013V370.265L428.549 368.391V372.139Z" fill="white"/>
<path d="M434.887 368.218L431.858 370.092V366.345L434.887 364.471V368.218Z" fill="white"/>
<path d="M429.705 379.018L426.675 380.892V377.144L429.705 375.27V379.018Z" fill="white"/>
<path d="M435.285 375.565L432.256 377.439V373.692L435.285 371.818V375.565Z" fill="white"/>
<path d="M455.217 355.642L452.187 357.516V353.769L455.217 351.895V355.642Z" fill="white"/>
<path d="M472.678 344.843L469.648 346.717V342.969L472.678 341.095V344.843Z" fill="white"/>
<path d="M441.226 364.298L438.196 366.172V362.424L441.226 360.55V364.298Z" fill="white"/>
<path opacity="0.4" d="M400.595 350.562L357.537 323.929C355.787 322.847 356.006 320.956 358.027 319.706L400.102 293.68C402.123 292.431 405.181 292.295 406.93 293.378L449.988 320.011C451.738 321.093 451.517 322.984 449.498 324.234L407.423 350.26C405.402 351.508 402.346 351.645 400.595 350.562Z" fill="#06033E"/>
<path d="M383.655 379.389L348.123 357.411C347.274 356.887 346.588 355.479 346.588 354.267V351.44C346.588 350.228 347.276 349.672 348.123 350.196L383.655 372.173C384.502 372.698 385.19 374.105 385.19 375.318V378.144C385.19 379.357 384.504 379.913 383.655 379.389Z" fill="white"/>
<path d="M481.085 293.37L481.074 260.498L442.299 266.04L413.266 248.082C408.173 244.931 399.917 244.931 394.824 248.082L390.303 251.16L327.349 260.159V293.417C327.349 293.436 327.349 293.455 327.349 293.472V293.628L327.374 293.624C327.446 295.628 328.693 297.618 331.165 299.148L395.163 338.733C400.256 341.883 408.512 341.883 413.605 338.733L477.266 299.073C479.731 297.549 480.974 295.566 481.055 293.568L481.085 293.564V293.37Z" fill="url(#paint21_linear_2_5147)"/>
<path d="M477.266 254.547L413.268 214.963C408.176 211.813 399.919 211.813 394.826 214.963L331.166 254.62C326.073 257.771 326.073 262.877 331.166 266.027L395.163 305.612C400.256 308.762 408.512 308.762 413.605 305.612L477.266 265.954C482.359 262.804 482.359 257.697 477.266 254.547Z" fill="url(#paint22_radial_2_5147)"/>
<path opacity="0.4" d="M446.78 256.944L409.489 233.878C406.523 232.042 401.71 232.042 398.744 233.878L361.649 256.987C358.683 258.823 358.683 261.798 361.649 263.633L398.94 286.698C401.907 288.534 406.719 288.534 409.686 286.698L446.78 263.589C449.749 261.755 449.749 258.778 446.78 256.944Z" fill="#06033E"/>
<path d="M477.266 263.962L413.605 303.619C408.512 306.769 400.256 306.769 395.163 303.619L331.166 264.035C329.031 262.714 327.803 261.048 327.459 259.327C326.982 261.71 328.21 264.197 331.166 266.025L395.163 305.612C400.256 308.762 408.512 308.762 413.605 305.612L477.266 265.954C480.222 264.125 481.45 261.637 480.973 259.255C480.629 260.975 479.401 262.642 477.266 263.962Z" fill="white"/>
<path d="M422.21 314.387L419.18 316.261V312.513L422.21 310.639V314.387Z" fill="white"/>
<path d="M428.549 310.466L425.519 312.34V308.592L428.549 306.719V310.466Z" fill="white"/>
<path d="M434.887 306.546L431.858 308.42V304.672L434.887 302.798V306.546Z" fill="white"/>
<path d="M429.705 317.345L426.675 319.219V315.472L429.705 313.598V317.345Z" fill="white"/>
<path d="M435.285 313.895L432.256 315.769V312.021L435.285 310.147V313.895Z" fill="white"/>
<path d="M455.217 293.972L452.187 295.846V292.096L455.217 290.222V293.972Z" fill="white"/>
<path d="M472.678 283.17L469.648 285.044V281.296L472.678 279.422V283.17Z" fill="white"/>
<path d="M441.226 302.625L438.196 304.499V300.751L441.226 298.877V302.625Z" fill="white"/>
<path d="M481.085 231.698L481.074 198.825L442.299 204.368L413.266 186.409C408.173 183.259 399.917 183.259 394.824 186.409L390.303 189.488L327.349 198.487V231.745C327.349 231.764 327.349 231.782 327.349 231.799V231.955L327.374 231.952C327.446 233.955 328.693 235.945 331.165 237.475L395.163 277.06C400.256 280.21 408.512 280.21 413.605 277.06L477.266 237.4C479.731 235.876 480.974 233.893 481.055 231.895L481.085 231.891V231.698Z" fill="url(#paint23_linear_2_5147)"/>
<path d="M477.266 192.876L413.268 153.292C408.176 150.142 399.919 150.142 394.826 153.292L331.166 192.95C326.073 196.1 326.073 201.206 331.166 204.356L395.163 243.941C400.256 247.091 408.512 247.091 413.605 243.941L477.266 204.283C482.359 201.133 482.359 196.026 477.266 192.876Z" fill="url(#paint24_radial_2_5147)"/>
<path d="M477.266 202.291L413.605 241.949C408.512 245.099 400.256 245.099 395.163 241.949L331.166 202.364C329.031 201.043 327.803 199.378 327.459 197.656C326.982 200.039 328.21 202.526 331.166 204.355L395.163 243.939C400.256 247.089 408.512 247.089 413.605 243.939L477.266 204.281C480.222 202.452 481.45 199.964 480.973 197.583C480.629 199.304 479.401 200.97 477.266 202.291Z" fill="white"/>
<path d="M422.21 252.716L419.18 254.59V250.843L422.21 248.969V252.716Z" fill="white"/>
<path d="M428.549 248.796L425.519 250.67V246.922L428.549 245.048V248.796Z" fill="white"/>
<path d="M434.887 244.875L431.858 246.749V243.001L434.887 241.127V244.875Z" fill="white"/>
<path d="M429.705 255.675L426.675 257.549V253.801L429.705 251.927V255.675Z" fill="white"/>
<path d="M435.285 252.222L432.256 254.096V250.348L435.285 248.474V252.222Z" fill="white"/>
<path d="M455.217 232.299L452.187 234.173V230.425L455.217 228.551V232.299Z" fill="white"/>
<path d="M472.678 221.499L469.648 223.373V219.626L472.678 217.752V221.499Z" fill="white"/>
<path d="M441.226 240.954L438.196 242.828V239.08L441.226 237.207V240.954Z" fill="white"/>
<g opacity="0.5">
<path d="M578.996 322.028L578.213 323.48L722.973 413.022L723.756 411.569L578.996 322.028Z" fill="#03A7D3"/>
<path d="M784.427 375.033L738.171 346.422C733.952 343.811 728.359 342.1 722.423 341.598L672.778 337.419C666.613 336.903 660.788 335.112 656.37 332.381L610.114 303.77L610.896 302.317L657.154 330.928C661.371 333.539 666.964 335.251 672.9 335.75L722.545 339.929C728.71 340.447 734.538 342.24 738.955 344.97L785.209 373.581L784.427 375.033Z" fill="#03A7D3"/>
<path d="M661.571 451.023L615.315 422.412C610.81 419.624 607.848 415.902 606.974 411.933L600.219 381.225C599.445 377.708 596.745 374.366 592.616 371.812L546.36 343.201L547.142 341.749L593.398 370.36C597.905 373.148 600.867 376.87 601.741 380.839L608.496 411.547C609.27 415.064 611.97 418.406 616.099 420.96L662.355 449.571L661.571 451.023Z" fill="#03A7D3"/>
<path d="M692.284 432.025L642.983 401.53C640.472 399.976 638.455 398.166 636.991 396.148L617.137 368.794C615.795 366.949 613.93 365.279 611.599 363.837L562.298 333.341L563.079 331.889L612.381 362.385C614.891 363.936 616.906 365.746 618.372 367.767L638.227 395.12C639.566 396.963 641.431 398.633 643.767 400.078L693.068 430.573L692.284 432.025Z" fill="#03A7D3"/>
<path d="M753.714 394.029L704.41 363.533C702.054 362.073 699.309 360.905 696.249 360.053L652.029 347.768C648.838 346.884 645.961 345.656 643.476 344.12L594.174 313.624L594.956 312.172L644.26 342.668C646.62 344.13 649.369 345.298 652.421 346.148L696.641 358.433C699.839 359.32 702.716 360.547 705.194 362.083L754.498 392.579L753.714 394.029Z" fill="#03A7D3"/>
</g>
<g opacity="0.5">
<path d="M196.706 305.232L47.1175 397.607L47.8992 399.06L197.488 306.685L196.706 305.232Z" fill="#03A7D3"/>
<path d="M218.089 318.457L68.5002 410.832L69.2819 412.285L218.87 319.91L218.089 318.457Z" fill="#03A7D3"/>
<path d="M239.471 331.684L89.8822 424.059L90.664 425.512L240.252 333.137L239.471 331.684Z" fill="#03A7D3"/>
<path d="M260.856 344.91L111.265 437.286L112.047 438.739L261.638 346.363L260.856 344.91Z" fill="#03A7D3"/>
</g>
<g opacity="0.5">
<path opacity="0.6" d="M750.327 280.953L713.377 258.099C711.285 256.805 709.589 253.333 709.589 250.344V175.368C709.589 172.38 711.285 171.007 713.377 172.3L750.327 195.155C752.419 196.449 754.115 199.92 754.115 202.909V277.885C754.115 280.873 752.419 282.247 750.327 280.953Z" fill="#172F78"/>
<path d="M751.833 281.772C751.308 281.772 750.743 281.594 750.172 281.242L713.222 258.387C711.049 257.041 709.281 253.434 709.281 250.344V175.368C709.281 173.675 709.814 172.374 710.745 171.798C711.531 171.312 712.522 171.389 713.533 172.013L750.483 194.867C752.657 196.213 754.425 199.82 754.425 202.909V277.885C754.425 279.578 753.892 280.878 752.961 281.455C752.618 281.666 752.237 281.772 751.833 281.772ZM750.483 280.665C751.292 281.168 752.063 281.242 752.652 280.878C753.385 280.425 753.806 279.334 753.806 277.884V202.908C753.806 200.03 752.176 196.68 750.172 195.442L713.222 172.587C712.412 172.083 711.641 172.007 711.054 172.373C710.321 172.826 709.9 173.918 709.9 175.367V250.343C709.9 253.221 711.53 256.572 713.533 257.81L750.483 280.665Z" fill="#03A7D3"/>
<path opacity="0.6" d="M655.082 280.953L692.032 258.099C694.124 256.805 695.82 253.333 695.82 250.344V175.368C695.82 172.38 694.124 171.007 692.032 172.3L655.082 195.155C652.99 196.449 651.294 199.92 651.294 202.909V277.885C651.295 280.873 652.99 282.247 655.082 280.953Z" fill="#172F78"/>
<path d="M653.576 281.772C653.172 281.772 652.791 281.666 652.449 281.455C651.518 280.88 650.985 279.578 650.985 277.885V202.909C650.985 199.819 652.754 196.213 654.926 194.867L691.876 172.013C692.887 171.388 693.877 171.311 694.665 171.799C695.596 172.375 696.129 173.675 696.129 175.368V250.344C696.129 253.434 694.361 257.041 692.187 258.387L655.237 281.242C654.666 281.593 654.102 281.772 653.576 281.772ZM693.537 172.147C693.12 172.147 692.66 172.294 692.187 172.587L655.237 195.442C653.234 196.68 651.604 200.029 651.604 202.908V277.884C651.604 279.334 652.025 280.425 652.758 280.88C653.344 281.242 654.116 281.167 654.926 280.665L691.876 257.81C693.88 256.572 695.51 253.222 695.51 250.343V175.367C695.51 173.918 695.089 172.827 694.355 172.373C694.111 172.222 693.835 172.147 693.537 172.147Z" fill="#03A7D3"/>
<path d="M701.741 323.707C699.95 323.708 698.16 323.286 696.797 322.443L663.556 301.882C662.177 301.029 661.418 299.875 661.418 298.633C661.418 297.39 662.177 296.236 663.556 295.383L696.622 274.785C699.35 273.095 703.785 273.097 706.511 274.784L739.752 295.344C741.131 296.197 741.891 297.351 741.891 298.593C741.891 299.836 741.131 300.989 739.752 301.843L706.687 322.442C705.323 323.286 703.532 323.707 701.741 323.707ZM701.567 274.173C699.888 274.173 698.21 274.568 696.933 275.359L663.867 295.957C662.687 296.688 662.038 297.636 662.038 298.633C662.038 299.629 662.687 300.577 663.867 301.307L697.108 321.868C699.663 323.45 703.822 323.449 706.376 321.868L739.442 301.269C740.622 300.538 741.272 299.589 741.272 298.593C741.272 297.598 740.622 296.648 739.442 295.919L706.201 275.359C704.923 274.568 703.245 274.173 701.567 274.173Z" fill="#03A7D3"/>
<path d="M741.744 287.356L741.739 270.282L721.599 273.161L706.519 263.832C703.874 262.196 699.585 262.196 696.94 263.832L694.591 265.432L661.892 270.106V287.38C661.892 287.39 661.892 287.4 661.892 287.409V287.491L661.904 287.489C661.942 288.53 662.589 289.563 663.873 290.358L697.114 310.919C699.759 312.555 704.048 312.555 706.693 310.919L739.759 290.319C741.039 289.527 741.686 288.497 741.727 287.46L741.743 287.457V287.356H741.744Z" fill="url(#paint25_linear_2_5147)"/>
<path d="M739.76 267.191L706.519 246.63C703.874 244.994 699.586 244.994 696.94 246.63L663.874 267.229C661.229 268.864 661.229 271.517 663.874 273.153L697.115 293.714C699.76 295.35 704.049 295.35 706.694 293.714L739.76 273.116C742.405 271.48 742.405 268.828 739.76 267.191Z" fill="url(#paint26_radial_2_5147)"/>
<path d="M739.76 272.082L706.694 292.68C704.049 294.316 699.76 294.316 697.115 292.68L663.874 272.119C662.765 271.432 662.127 270.568 661.948 269.674C661.7 270.912 662.338 272.204 663.874 273.154L697.115 293.715C699.76 295.351 704.049 295.351 706.694 293.715L739.76 273.116C741.296 272.165 741.934 270.873 741.686 269.636C741.507 270.53 740.869 271.395 739.76 272.082Z" fill="white"/>
<path d="M711.163 298.273L709.589 299.245V297.299L711.163 296.326V298.273Z" fill="white"/>
<path d="M714.455 296.236L712.882 297.21V295.263L714.455 294.289V296.236Z" fill="white"/>
<path d="M717.748 294.199L716.174 295.173V293.227L717.748 292.253V294.199Z" fill="white"/>
<path d="M715.056 299.809L713.482 300.783V298.836L715.056 297.862V299.809Z" fill="white"/>
<path d="M717.955 298.017L716.381 298.989V297.043L717.955 296.07V298.017Z" fill="white"/>
<path d="M728.308 287.669L726.734 288.641V286.695L728.308 285.721V287.669Z" fill="white"/>
<path d="M737.377 282.058L735.803 283.032V281.085L737.377 280.111V282.058Z" fill="white"/>
<path d="M721.04 292.164L719.466 293.137V291.19L721.04 290.217V292.164Z" fill="white"/>
<path opacity="0.4" d="M699.936 285.029L677.572 271.196C676.663 270.633 676.777 269.652 677.827 269.002L699.681 255.485C700.731 254.835 702.319 254.765 703.228 255.327L725.592 269.16C726.501 269.723 726.387 270.705 725.337 271.354L703.483 284.872C702.433 285.521 700.845 285.591 699.936 285.029Z" fill="#06033E"/>
<path d="M691.137 300.002L672.682 288.587C672.241 288.315 671.884 287.583 671.884 286.954V285.486C671.884 284.857 672.241 284.568 672.682 284.84L691.137 296.255C691.577 296.527 691.935 297.259 691.935 297.888V299.356C691.935 299.986 691.578 300.275 691.137 300.002Z" fill="white"/>
<path d="M741.744 255.324L741.739 238.25L721.599 241.129L706.519 231.801C703.874 230.165 699.585 230.165 696.94 231.801L694.591 233.4L661.892 238.074V255.348C661.892 255.358 661.892 255.368 661.892 255.377V255.459L661.904 255.457C661.942 256.498 662.589 257.531 663.873 258.326L697.114 278.887C699.759 280.523 704.048 280.523 706.693 278.887L739.759 258.287C741.039 257.495 741.686 256.466 741.727 255.428L741.743 255.426V255.324H741.744Z" fill="url(#paint27_linear_2_5147)"/>
<path d="M739.76 235.159L706.519 214.598C703.874 212.962 699.586 212.962 696.94 214.598L663.874 235.197C661.229 236.833 661.229 239.485 663.874 241.121L697.115 261.682C699.76 263.318 704.049 263.318 706.694 261.682L739.76 241.084C742.405 239.448 742.405 236.795 739.76 235.159Z" fill="url(#paint28_radial_2_5147)"/>
<path opacity="0.4" d="M723.925 236.403L704.556 224.422C703.015 223.469 700.516 223.469 698.975 224.422L679.708 236.424C678.167 237.378 678.167 238.924 679.708 239.876L699.077 251.857C700.618 252.81 703.117 252.81 704.658 251.857L723.925 239.855C725.467 238.902 725.467 237.356 723.925 236.403Z" fill="#06033E"/>
<path d="M739.76 240.049L706.694 260.647C704.049 262.283 699.76 262.283 697.115 260.647L663.874 240.086C662.765 239.4 662.127 238.535 661.948 237.642C661.7 238.879 662.338 240.171 663.874 241.121L697.115 261.682C699.76 263.318 704.049 263.318 706.694 261.682L739.76 241.084C741.296 240.133 741.934 238.841 741.686 237.604C741.507 238.497 740.869 239.363 739.76 240.049Z" fill="white"/>
<path d="M711.163 266.24L709.589 267.214V265.267L711.163 264.293V266.24Z" fill="white"/>
<path d="M714.455 264.203L712.882 265.177V263.23L714.455 262.256V264.203Z" fill="white"/>
<path d="M717.748 262.168L716.174 263.14V261.194L717.748 260.221V262.168Z" fill="white"/>
<path d="M715.056 267.777L713.482 268.75V266.803L715.056 265.83V267.777Z" fill="white"/>
<path d="M717.955 265.984L716.381 266.957V265.01L717.955 264.037V265.984Z" fill="white"/>
<path d="M728.308 255.636L726.734 256.608V254.662L728.308 253.689V255.636Z" fill="white"/>
<path d="M737.377 250.026L735.803 250.999V249.052L737.377 248.079V250.026Z" fill="white"/>
<path d="M721.04 260.131L719.466 261.104V259.157L721.04 258.184V260.131Z" fill="white"/>
<path d="M741.744 223.291L741.739 206.217L721.599 209.096L706.519 199.768C703.874 198.132 699.585 198.132 696.94 199.768L694.591 201.367L661.892 206.041V223.316C661.892 223.325 661.892 223.335 661.892 223.345V223.426L661.904 223.424C661.942 224.465 662.589 225.498 663.873 226.293L697.114 246.854C699.759 248.49 704.048 248.49 706.693 246.854L739.759 226.254C741.039 225.463 741.686 224.433 741.727 223.395L741.743 223.393V223.291H741.744Z" fill="url(#paint29_linear_2_5147)"/>
<path d="M739.76 203.126L706.519 182.565C703.874 180.929 699.586 180.929 696.94 182.565L663.874 203.164C661.229 204.8 661.229 207.452 663.874 209.088L697.115 229.649C699.76 231.285 704.049 231.285 706.694 229.649L739.76 209.051C742.405 207.415 742.405 204.762 739.76 203.126Z" fill="url(#paint30_radial_2_5147)"/>
<path d="M739.76 208.016L706.694 228.614C704.049 230.25 699.76 230.25 697.115 228.614L663.874 208.053C662.765 207.367 662.127 206.502 661.948 205.609C661.7 206.846 662.338 208.138 663.874 209.088L697.115 229.649C699.76 231.285 704.049 231.285 706.694 229.649L739.76 209.05C741.296 208.099 741.934 206.807 741.686 205.57C741.507 206.465 740.869 207.33 739.76 208.016Z" fill="white"/>
<path d="M711.163 234.207L709.589 235.181V233.234L711.163 232.26V234.207Z" fill="white"/>
<path d="M714.455 232.171L712.882 233.144V231.197L714.455 230.225V232.171Z" fill="white"/>
<path d="M717.748 230.135L716.174 231.109V229.162L717.748 228.188V230.135Z" fill="white"/>
<path d="M715.056 235.744L713.482 236.717V234.77L715.056 233.798V235.744Z" fill="white"/>
<path d="M717.955 233.951L716.381 234.925V232.978L717.955 232.004V233.951Z" fill="white"/>
<path d="M728.308 223.603L726.734 224.577V222.63L728.308 221.656V223.603Z" fill="white"/>
<path d="M737.377 217.993L735.803 218.967V217.019L737.377 216.047V217.993Z" fill="white"/>
<path d="M721.04 228.098L719.466 229.072V227.125L721.04 226.151V228.098Z" fill="white"/>
<path d="M691.137 268.685L672.682 257.269C672.241 256.997 671.884 256.266 671.884 255.637V254.169C671.884 253.54 672.241 253.251 672.682 253.523L691.137 264.938C691.577 265.21 691.935 265.942 691.935 266.571V268.039C691.935 268.668 691.578 268.958 691.137 268.685Z" fill="white"/>
<path d="M691.137 237.368L672.682 225.953C672.241 225.681 671.884 224.949 671.884 224.321V222.853C671.884 222.224 672.241 221.935 672.682 222.207L691.137 233.622C691.577 233.894 691.935 234.626 691.935 235.255V236.722C691.935 237.351 691.578 237.64 691.137 237.368Z" fill="white"/>
</g>
<g opacity="0.5">
<path opacity="0.6" d="M41.6543 196.937C55.3533 192.679 71.5604 190.282 88.8584 190.434C91.1414 190.454 93.4013 190.517 95.6363 190.625C110.825 192.11 116.227 209.296 107.07 216.814C102.867 220.265 97.8003 220.229 95.6363 220.214C93.4013 220.108 91.1404 220.043 88.8584 220.023C71.5604 219.871 55.3543 222.269 41.6543 226.526C27.8213 230.136 27.0043 215.076 31.8423 205.864C33.4683 202.765 36.4913 198.701 41.6543 196.937Z" fill="#172F78"/>
<path d="M37.7674 227.387C34.1074 227.387 32.0304 225.711 30.8724 224.075C27.5414 219.367 28.7534 211.099 31.5834 205.708C33.2364 202.56 36.3113 198.43 41.5633 196.635L41.5713 196.633C55.7583 192.223 72.1314 189.949 88.8584 190.117C91.1134 190.136 93.3974 190.2 95.6474 190.307C103.283 191.054 109.421 196.037 111.3 203.001C112.763 208.423 111.21 213.811 107.247 217.064C102.964 220.581 97.8353 220.544 95.6323 220.529C93.3913 220.422 91.1134 220.358 88.8544 220.338C72.1464 220.201 55.8683 222.436 41.7353 226.828C40.2413 227.219 38.9254 227.387 37.7674 227.387ZM41.7403 197.239C36.6723 198.972 33.7004 202.97 32.0994 206.017C29.3604 211.233 28.1643 219.199 31.3433 223.691C33.3743 226.561 36.9154 227.436 41.5834 226.216C55.7584 221.81 72.1324 219.556 88.8584 219.705C91.1264 219.724 93.4104 219.788 95.6474 219.896C97.7774 219.906 102.764 219.948 106.888 216.562C110.653 213.47 112.126 208.341 110.733 203.176C108.921 196.463 102.985 191.661 95.6073 190.938C93.3773 190.832 91.1004 190.769 88.8544 190.749C72.1514 190.605 55.8733 192.848 41.7403 197.239Z" fill="#03A7D3"/>
<path d="M86.5603 341.399C84.7663 341.399 82.9733 340.977 81.6073 340.131L48.3024 319.531C46.9214 318.677 46.1593 317.521 46.1593 316.275C46.1593 315.03 46.9214 313.874 48.3024 313.02L81.4314 292.383C84.1614 290.692 88.6063 290.692 91.3383 292.382L124.643 312.982C126.024 313.837 126.785 314.992 126.785 316.237C126.785 317.482 126.024 318.638 124.643 319.492L91.5144 340.13C90.1484 340.977 88.3543 341.399 86.5603 341.399ZM86.3854 291.771C84.7044 291.771 83.0233 292.168 81.7433 292.958L48.6143 313.595C47.4313 314.327 46.7814 315.279 46.7814 316.276C46.7814 317.274 47.4313 318.226 48.6143 318.957L81.9194 339.558C84.4784 341.142 88.6443 341.142 91.2053 339.558L124.334 318.92C125.516 318.188 126.167 317.237 126.167 316.24C126.167 315.242 125.516 314.29 124.334 313.558L91.0293 292.958C89.7483 292.167 88.0664 291.771 86.3854 291.771Z" fill="#03A7D3"/>
<path d="M126.639 304.979L126.634 287.873L106.456 290.757L91.3473 281.411C88.6973 279.771 84.4004 279.771 81.7504 281.411L79.3974 283.012L46.6363 287.695V305.002C46.6363 305.012 46.6363 305.022 46.6363 305.031V305.113L46.6484 305.111C46.6864 306.154 47.3354 307.189 48.6214 307.985L81.9253 328.585C84.5753 330.224 88.8724 330.224 91.5224 328.585L124.651 307.946C125.933 307.154 126.581 306.121 126.623 305.082L126.639 305.079V304.979Z" fill="url(#paint31_linear_2_5147)"/>
<path d="M124.651 284.777L91.3473 264.177C88.6973 262.538 84.4004 262.538 81.7504 264.177L48.6214 284.815C45.9714 286.454 45.9714 289.112 48.6214 290.751L81.9254 311.351C84.5754 312.99 88.8724 312.99 91.5224 311.351L124.651 290.713C127.301 289.073 127.301 286.416 124.651 284.777Z" fill="url(#paint32_radial_2_5147)"/>
<path d="M124.651 289.676L91.5224 310.314C88.8724 311.953 84.5753 311.953 81.9253 310.314L48.6214 289.714C47.5104 289.027 46.8713 288.16 46.6923 287.265C46.4443 288.505 47.0834 289.8 48.6214 290.751L81.9253 311.351C84.5753 312.99 88.8724 312.99 91.5224 311.351L124.651 290.713C126.19 289.761 126.829 288.466 126.581 287.227C126.401 288.121 125.762 288.988 124.651 289.676Z" fill="white"/>
<path d="M96.0004 315.916L94.4234 316.892V314.941L96.0004 313.966V315.916Z" fill="white"/>
<path d="M99.2993 313.876L97.7223 314.851V312.901L99.2993 311.926V313.876Z" fill="white"/>
<path d="M102.597 311.836L101.021 312.811V310.861L102.597 309.885V311.836Z" fill="white"/>
<path d="M99.9003 317.457L98.3244 318.432V316.481L99.9003 315.506V317.457Z" fill="white"/>
<path d="M102.805 315.66L101.228 316.635V314.685L102.805 313.709V315.66Z" fill="white"/>
<path d="M113.177 305.292L111.601 306.268V304.317L113.177 303.342V305.292Z" fill="white"/>
<path d="M122.264 299.671L120.687 300.646V298.696L122.264 297.722V299.671Z" fill="white"/>
<path d="M105.896 309.796L104.319 310.772V308.821L105.896 307.846V309.796Z" fill="white"/>
<path opacity="0.4" d="M84.7523 302.647L62.3454 288.788C61.4344 288.224 61.5484 287.241 62.6004 286.59L84.4964 273.046C85.5484 272.396 87.1393 272.325 88.0493 272.889L110.456 286.749C111.367 287.312 111.253 288.296 110.201 288.947L88.3053 302.491C87.2533 303.14 85.6633 303.211 84.7523 302.647Z" fill="#06033E"/>
<path d="M75.9364 317.649L57.4463 306.213C57.0053 305.94 56.6474 305.207 56.6474 304.577V303.106C56.6474 302.475 57.0053 302.186 57.4463 302.459L75.9364 313.895C76.3774 314.169 76.7353 314.9 76.7353 315.531V317.002C76.7363 317.632 76.3784 317.923 75.9364 317.649Z" fill="white"/>
<path d="M126.639 272.886L126.634 255.78L106.456 258.664L91.3473 249.317C88.6973 247.678 84.4004 247.678 81.7504 249.317L79.3974 250.919L46.6363 255.602V272.909C46.6363 272.919 46.6363 272.929 46.6363 272.938V273.02L46.6484 273.018C46.6864 274.061 47.3354 275.096 48.6214 275.892L81.9253 296.492C84.5753 298.131 88.8724 298.131 91.5224 296.492L124.651 275.853C125.933 275.061 126.581 274.028 126.623 272.989L126.639 272.986V272.886Z" fill="url(#paint33_linear_2_5147)"/>
<path d="M124.651 252.683L91.3473 232.083C88.6973 230.444 84.4004 230.444 81.7504 232.083L48.6214 252.721C45.9714 254.36 45.9714 257.018 48.6214 258.657L81.9254 279.257C84.5754 280.896 88.8724 280.896 91.5224 279.257L124.651 258.619C127.301 256.98 127.301 254.322 124.651 252.683Z" fill="url(#paint34_radial_2_5147)"/>
<path opacity="0.4" d="M108.787 253.93L89.3813 241.926C87.8373 240.971 85.3334 240.971 83.7894 241.926L64.4864 253.952C62.9424 254.908 62.9424 256.456 64.4864 257.412L83.8924 269.415C85.4364 270.37 87.9404 270.37 89.4844 269.415L108.787 257.389C110.331 256.433 110.331 254.884 108.787 253.93Z" fill="#06033E"/>
<path d="M124.651 257.582L91.5224 278.22C88.8724 279.859 84.5753 279.859 81.9253 278.22L48.6214 257.62C47.5104 256.933 46.8713 256.066 46.6923 255.17C46.4443 256.41 47.0834 257.705 48.6214 258.656L81.9253 279.256C84.5753 280.895 88.8724 280.895 91.5224 279.256L124.651 258.618C126.19 257.666 126.829 256.371 126.581 255.132C126.401 256.028 125.762 256.895 124.651 257.582Z" fill="white"/>
<path d="M96.0004 283.823L94.4234 284.798V282.848L96.0004 281.872V283.823Z" fill="white"/>
<path d="M99.2993 281.783L97.7223 282.758V280.807L99.2993 279.832V281.783Z" fill="white"/>
<path d="M102.597 279.742L101.021 280.718V278.768L102.597 277.793V279.742Z" fill="white"/>
<path d="M99.9003 285.363L98.3244 286.338V284.388L99.9003 283.413V285.363Z" fill="white"/>
<path d="M102.805 283.566L101.228 284.542V282.591L102.805 281.616V283.566Z" fill="white"/>
<path d="M113.177 273.199L111.601 274.174V272.224L113.177 271.248V273.199Z" fill="white"/>
<path d="M122.264 267.578L120.687 268.553V266.604L122.264 265.628V267.578Z" fill="white"/>
<path d="M105.896 277.703L104.319 278.678V276.728L105.896 275.752V277.703Z" fill="white"/>
<path d="M126.639 240.792L126.634 223.686L106.456 226.57L91.3473 217.224C88.6973 215.584 84.4004 215.584 81.7504 217.224L79.3974 218.825L46.6363 223.508V240.815C46.6363 240.825 46.6363 240.835 46.6363 240.844V240.926L46.6484 240.924C46.6864 241.967 47.3354 243.002 48.6214 243.798L81.9253 264.398C84.5753 266.037 88.8724 266.037 91.5224 264.398L124.651 243.759C125.933 242.967 126.581 241.934 126.623 240.895L126.639 240.893V240.792Z" fill="url(#paint35_linear_2_5147)"/>
<path d="M124.651 220.59L91.3473 199.99C88.6973 198.351 84.4004 198.351 81.7504 199.99L48.6214 220.628C45.9714 222.267 45.9714 224.925 48.6214 226.565L81.9254 247.164C84.5754 248.803 88.8724 248.803 91.5224 247.164L124.651 226.526C127.301 224.886 127.301 222.229 124.651 220.59Z" fill="url(#paint36_radial_2_5147)"/>
<path d="M124.651 220.59L91.3473 199.99C88.6973 198.351 84.4004 198.351 81.7504 199.99L48.6214 220.628C45.9714 222.267 45.9714 224.925 48.6214 226.565L81.9254 247.164C84.5754 248.803 88.8724 248.803 91.5224 247.164L124.651 226.526C127.301 224.886 127.301 222.229 124.651 220.59Z" fill="url(#paint37_linear_2_5147)"/>
<path d="M86.6944 240.49C85.4724 240.49 84.2513 240.195 83.2993 239.607L61.2334 225.957C60.2444 225.345 59.7003 224.505 59.7003 223.589C59.7003 222.673 60.2444 221.834 61.2334 221.222L83.1803 207.547C85.0883 206.37 88.0733 206.369 89.9733 207.547L112.04 221.196C113.029 221.808 113.573 222.648 113.573 223.564C113.573 224.48 113.029 225.32 112.04 225.931L90.0923 239.606C89.1393 240.195 87.9164 240.49 86.6944 240.49ZM86.5784 207.591C85.5054 207.591 84.4313 207.844 83.6143 208.35L61.6663 222.024C60.9553 222.463 60.5633 223.019 60.5633 223.589C60.5633 224.159 60.9554 224.715 61.6644 225.155L83.7303 238.805C85.3653 239.815 88.0233 239.815 89.6583 238.805L111.606 225.13C112.317 224.691 112.709 224.135 112.709 223.565C112.709 222.995 112.317 222.439 111.608 222L89.5423 208.35C88.7243 207.844 87.6514 207.591 86.5784 207.591Z" fill="#8B1E64"/>
<path d="M124.651 225.489L91.5224 246.126C88.8724 247.765 84.5753 247.765 81.9253 246.126L48.6214 225.526C47.5104 224.839 46.8713 223.972 46.6923 223.077C46.4443 224.317 47.0834 225.612 48.6214 226.564L81.9253 247.163C84.5753 248.802 88.8724 248.802 91.5224 247.163L124.651 226.525C126.19 225.574 126.829 224.278 126.581 223.039C126.401 223.934 125.762 224.801 124.651 225.489Z" fill="white"/>
<path d="M96.0004 251.729L94.4234 252.705V250.754L96.0004 249.779V251.729Z" fill="white"/>
<path d="M99.2993 249.689L97.7223 250.664V248.714L99.2993 247.738V249.689Z" fill="white"/>
<path d="M102.597 247.65L101.021 248.624V246.674L102.597 245.699V247.65Z" fill="white"/>
<path d="M99.9003 253.27L98.3244 254.245V252.294L99.9003 251.319V253.27Z" fill="white"/>
<path d="M102.805 251.473L101.228 252.448V250.498L102.805 249.522V251.473Z" fill="white"/>
<path d="M113.177 241.105L111.601 242.081V240.13L113.177 239.155V241.105Z" fill="white"/>
<path d="M122.264 235.484L120.687 236.459V234.51L122.264 233.535V235.484Z" fill="white"/>
<path d="M105.896 245.609L104.319 246.585V244.634L105.896 243.659V245.609Z" fill="white"/>
<path opacity="0.6" d="M92.4203 288.401C90.2403 288.464 88.0394 288.487 85.8204 288.467C68.4554 288.315 52.3674 285.614 38.9404 281.088C25.5284 277.249 24.7174 292.285 29.3984 301.571C32.7314 308.183 37.2424 309.995 38.9404 310.676C52.3674 315.204 68.4554 317.903 85.8204 318.057C88.0394 318.076 90.2403 318.053 92.4203 317.991C108.179 316.747 112.306 300.532 104.941 292.963C102.885 290.849 99.0443 288.343 92.4203 288.401Z" fill="#172F78"/>
<g opacity="0.3">
<path d="M174.021 269.968L173.781 269.455C173.561 268.985 173.303 268.313 172.988 267.4C170.059 258.236 161.501 249.927 148.235 243.364C139.014 237.754 136.783 229.646 136.25 226.42C135.621 222.611 136.335 217.215 139.388 214.365C141.625 212.277 144.674 211.883 148.451 213.188C161.899 219.839 170.566 228.276 173.546 237.599C174.172 240.234 174.661 242.293 174.667 251.592V267.367C174.665 268.751 174.665 268.834 174.3 269.478L174.021 269.968ZM136.832 226.31C137.351 229.448 139.525 237.336 148.505 242.802C161.899 249.427 170.565 257.864 173.545 267.187C173.729 267.721 173.893 268.17 174.04 268.541C174.073 268.318 174.073 267.996 174.074 267.366V251.592C174.068 242.373 173.588 240.347 172.979 237.783C170.059 228.647 161.501 220.339 148.235 213.776C144.703 212.556 141.844 212.91 139.776 214.842C136.896 217.53 136.231 222.671 136.832 226.31Z" fill="#03A7D3"/>
<path d="M0.602339 274.331L0.0113354 274.304V244.715C0.0113354 244.452 0.01635 244.188 0.02635 243.924C0.19535 239.023 1.93734 234.225 5.20534 229.663L5.33134 229.525C5.95934 228.859 6.81734 227.948 7.70634 227.812C8.89934 227.63 9.95235 228.272 10.7673 229.667C13.4873 234.326 13.2423 247.674 5.68535 259.621C1.26935 266.026 0.974339 269.691 0.602339 274.331ZM8.08735 228.417C7.99035 228.417 7.89236 228.424 7.79036 228.439C7.09536 228.547 6.31536 229.373 5.74736 229.976L5.64735 230.082C2.48335 234.504 0.781346 239.181 0.616346 243.948C0.608346 244.205 0.603346 244.46 0.603346 244.716V269.319C1.16835 266.445 2.33334 263.416 5.20234 259.256C12.6123 247.54 12.9013 234.52 10.2663 230.004C9.83134 229.26 9.11235 228.417 8.08735 228.417Z" fill="#03A7D3"/>
</g>
<path d="M6.89335 289.727C6.16535 289.727 5.20934 289.314 4.16334 287.782C0.570343 282.522 0.22235 277.395 0.0133495 274.331L0.0123425 244.716H0.604353C0.604353 249.187 1.96335 253.599 4.64635 257.829C10.5383 268.267 11.2343 278.571 10.7183 283.017C10.2953 286.663 9.02835 289.208 7.41035 289.657C7.25535 289.699 7.08235 289.727 6.89335 289.727ZM0.603346 249.877V274.304C0.806346 277.28 1.14736 282.295 4.63936 287.408C5.25836 288.314 6.21634 289.327 7.26134 289.044C8.61734 288.667 9.74333 286.27 10.1313 282.938C10.6373 278.574 9.94636 268.445 4.14836 258.17C2.43936 255.476 1.25435 252.7 0.603346 249.877Z" fill="#03A7D3"/>
<path d="M87.3483 318.379C86.8363 318.379 86.3273 318.377 85.8183 318.372C69.0023 318.225 52.7603 315.668 38.8513 310.978C37.1103 310.28 32.5244 308.439 29.1384 301.722C26.3424 296.174 25.2034 287.792 28.6004 283.182C30.0944 281.154 33.1183 279.094 39.0163 280.782C52.8833 285.457 69.0643 288.003 85.8223 288.15C88.0163 288.171 90.2313 288.148 92.4123 288.084H92.4184C92.4934 288.083 92.5684 288.083 92.6434 288.083C99.2304 288.083 103.074 290.604 105.145 292.732C108.589 296.272 109.69 301.905 107.951 307.084C105.791 313.513 99.9934 317.708 92.4414 318.305C90.7504 318.354 89.0453 318.379 87.3483 318.379ZM34.9983 280.793C32.4433 280.793 30.4254 281.729 29.0644 283.573C25.8244 287.97 26.9523 296.05 29.6583 301.419C32.9393 307.928 37.3754 309.708 39.0444 310.378C52.8834 315.044 69.0653 317.591 85.8223 317.738C88.0173 317.754 90.2313 317.735 92.4123 317.672C99.7103 317.095 105.316 313.057 107.394 306.87C109.055 301.925 108.011 296.556 104.736 293.189C102.721 291.117 98.9443 288.662 92.4243 288.716C90.2383 288.779 88.0173 288.799 85.8173 288.782C69.0023 288.634 52.7613 286.078 38.8513 281.388C37.4623 280.991 36.1733 280.793 34.9983 280.793Z" fill="#03A7D3"/>
<path d="M142.214 307.562C139.528 307.562 137.297 306.51 135.734 304.463C132.717 300.515 132.646 293.353 135.564 287.43C138.853 280.756 143.964 277.842 145.888 276.746C159.653 270.421 168.819 262.272 172.419 253.172C172.815 252.265 173.164 251.576 173.462 251.112L173.536 250.995L174.204 250.903L174.284 251.144C174.523 251.865 174.622 252.164 174.652 255.707V264.813C174.575 277.658 173.868 280.007 172.972 282.981C169.302 292.262 160.028 300.525 146.142 306.905C144.752 307.343 143.435 307.562 142.214 307.562ZM173.826 251.669C173.574 252.097 173.283 252.687 172.959 253.429C169.302 262.673 160.027 270.936 146.143 277.316C144.285 278.376 139.291 281.223 136.087 287.726C133.274 293.433 133.318 300.303 136.191 304.063C137.688 306.02 140.597 307.999 145.943 306.309C159.653 300.008 168.82 291.86 172.42 282.76C173.291 279.863 173.986 277.555 174.062 264.81V255.709C174.037 252.853 173.972 252.185 173.826 251.669Z" fill="#03A7D3"/>
</g>
<defs>
<linearGradient id="paint0_linear_2_5147" x1="318.513" y1="214.812" x2="426.924" y2="214.812" gradientUnits="userSpaceOnUse">
<stop stop-color="#01C8EF"/>
<stop offset="0.1297" stop-color="#04B1DD"/>
<stop offset="0.5466" stop-color="#0E6BA7"/>
<stop offset="0.8476" stop-color="#154085"/>
<stop offset="1" stop-color="#172F78"/>
</linearGradient>
<radialGradient id="paint1_radial_2_5147" cx="0" cy="0" r="1" gradientUnits="userSpaceOnUse" gradientTransform="translate(299.29 127.72) scale(242.104 259.375)">
<stop stop-color="#01C8EF"/>
<stop offset="0.1396" stop-color="#03BAE4"/>
<stop offset="0.4033" stop-color="#0895C8"/>
<stop offset="0.76" stop-color="#115A9A"/>
<stop offset="1" stop-color="#172F78"/>
</radialGradient>
<linearGradient id="paint2_linear_2_5147" x1="318.513" y1="153.141" x2="426.924" y2="153.141" gradientUnits="userSpaceOnUse">
<stop stop-color="#01C8EF"/>
<stop offset="0.1297" stop-color="#04B1DD"/>
<stop offset="0.5466" stop-color="#0E6BA7"/>
<stop offset="0.8476" stop-color="#154085"/>
<stop offset="1" stop-color="#172F78"/>
</linearGradient>
<radialGradient id="paint3_radial_2_5147" cx="0" cy="0" r="1" gradientUnits="userSpaceOnUse" gradientTransform="translate(299.29 66.0481) scale(242.104 259.375)">
<stop stop-color="#01C8EF"/>
<stop offset="0.1396" stop-color="#03BAE4"/>
<stop offset="0.4033" stop-color="#0895C8"/>
<stop offset="0.76" stop-color="#115A9A"/>
<stop offset="1" stop-color="#172F78"/>
</radialGradient>
<linearGradient id="paint4_linear_2_5147" x1="318.513" y1="91.4691" x2="426.924" y2="91.4691" gradientUnits="userSpaceOnUse">
<stop stop-color="#01C8EF"/>
<stop offset="0.1297" stop-color="#04B1DD"/>
<stop offset="0.5466" stop-color="#0E6BA7"/>
<stop offset="0.8476" stop-color="#154085"/>
<stop offset="1" stop-color="#172F78"/>
</linearGradient>
<radialGradient id="paint5_radial_2_5147" cx="0" cy="0" r="1" gradientUnits="userSpaceOnUse" gradientTransform="translate(299.29 4.37661) scale(242.104 259.375)">
<stop stop-color="#01C8EF"/>
<stop offset="0.1396" stop-color="#03BAE4"/>
<stop offset="0.4033" stop-color="#0895C8"/>
<stop offset="0.76" stop-color="#115A9A"/>
<stop offset="1" stop-color="#172F78"/>
</radialGradient>
<linearGradient id="paint6_linear_2_5147" x1="205.31" y1="284.98" x2="313.722" y2="284.98" gradientUnits="userSpaceOnUse">
<stop stop-color="#01C8EF"/>
<stop offset="0.1297" stop-color="#04B1DD"/>
<stop offset="0.5466" stop-color="#0E6BA7"/>
<stop offset="0.8476" stop-color="#154085"/>
<stop offset="1" stop-color="#172F78"/>
</linearGradient>
<radialGradient id="paint7_radial_2_5147" cx="0" cy="0" r="1" gradientUnits="userSpaceOnUse" gradientTransform="translate(186.087 197.887) scale(242.104 259.375)">
<stop stop-color="#01C8EF"/>
<stop offset="0.1396" stop-color="#03BAE4"/>
<stop offset="0.4033" stop-color="#0895C8"/>
<stop offset="0.76" stop-color="#115A9A"/>
<stop offset="1" stop-color="#172F78"/>
</radialGradient>
<linearGradient id="paint8_linear_2_5147" x1="205.31" y1="223.308" x2="313.722" y2="223.308" gradientUnits="userSpaceOnUse">
<stop stop-color="#01C8EF"/>
<stop offset="0.1297" stop-color="#04B1DD"/>
<stop offset="0.5466" stop-color="#0E6BA7"/>
<stop offset="0.8476" stop-color="#154085"/>
<stop offset="1" stop-color="#172F78"/>
</linearGradient>
<radialGradient id="paint9_radial_2_5147" cx="0" cy="0" r="1" gradientUnits="userSpaceOnUse" gradientTransform="translate(186.087 136.216) scale(242.104 259.375)">
<stop stop-color="#01C8EF"/>
<stop offset="0.1396" stop-color="#03BAE4"/>
<stop offset="0.4033" stop-color="#0895C8"/>
<stop offset="0.76" stop-color="#115A9A"/>
<stop offset="1" stop-color="#172F78"/>
</radialGradient>
<linearGradient id="paint10_linear_2_5147" x1="205.31" y1="161.636" x2="313.722" y2="161.636" gradientUnits="userSpaceOnUse">
<stop stop-color="#01C8EF"/>
<stop offset="0.1297" stop-color="#04B1DD"/>
<stop offset="0.5466" stop-color="#0E6BA7"/>
<stop offset="0.8476" stop-color="#154085"/>
<stop offset="1" stop-color="#172F78"/>
</linearGradient>
<radialGradient id="paint11_radial_2_5147" cx="0" cy="0" r="1" gradientUnits="userSpaceOnUse" gradientTransform="translate(186.087 74.544) scale(242.104 259.375)">
<stop stop-color="#01C8EF"/>
<stop offset="0.1396" stop-color="#03BAE4"/>
<stop offset="0.4033" stop-color="#0895C8"/>
<stop offset="0.76" stop-color="#115A9A"/>
<stop offset="1" stop-color="#172F78"/>
</radialGradient>
<linearGradient id="paint12_linear_2_5147" x1="353.878" y1="88.8265" x2="210.688" y2="164.416" gradientUnits="userSpaceOnUse">
<stop stop-color="#FFF49F"/>
<stop offset="0.495" stop-color="#FFCB39"/>
<stop offset="1" stop-color="#FFAF09"/>
</linearGradient>
<linearGradient id="paint13_linear_2_5147" x1="431.307" y1="284.91" x2="539.718" y2="284.91" gradientUnits="userSpaceOnUse">
<stop stop-color="#01C8EF"/>
<stop offset="0.1297" stop-color="#04B1DD"/>
<stop offset="0.5466" stop-color="#0E6BA7"/>
<stop offset="0.8476" stop-color="#154085"/>
<stop offset="1" stop-color="#172F78"/>
</linearGradient>
<radialGradient id="paint14_radial_2_5147" cx="0" cy="0" r="1" gradientUnits="userSpaceOnUse" gradientTransform="translate(412.083 197.818) scale(242.104 259.375)">
<stop stop-color="#01C8EF"/>
<stop offset="0.1396" stop-color="#03BAE4"/>
<stop offset="0.4033" stop-color="#0895C8"/>
<stop offset="0.76" stop-color="#115A9A"/>
<stop offset="1" stop-color="#172F78"/>
</radialGradient>
<linearGradient id="paint15_linear_2_5147" x1="431.307" y1="223.239" x2="539.718" y2="223.239" gradientUnits="userSpaceOnUse">
<stop stop-color="#01C8EF"/>
<stop offset="0.1297" stop-color="#04B1DD"/>
<stop offset="0.5466" stop-color="#0E6BA7"/>
<stop offset="0.8476" stop-color="#154085"/>
<stop offset="1" stop-color="#172F78"/>
</linearGradient>
<radialGradient id="paint16_radial_2_5147" cx="0" cy="0" r="1" gradientUnits="userSpaceOnUse" gradientTransform="translate(412.083 136.146) scale(242.104 259.375)">
<stop stop-color="#01C8EF"/>
<stop offset="0.1396" stop-color="#03BAE4"/>
<stop offset="0.4033" stop-color="#0895C8"/>
<stop offset="0.76" stop-color="#115A9A"/>
<stop offset="1" stop-color="#172F78"/>
</radialGradient>
<linearGradient id="paint17_linear_2_5147" x1="431.307" y1="161.567" x2="539.718" y2="161.567" gradientUnits="userSpaceOnUse">
<stop stop-color="#01C8EF"/>
<stop offset="0.1297" stop-color="#04B1DD"/>
<stop offset="0.5466" stop-color="#0E6BA7"/>
<stop offset="0.8476" stop-color="#154085"/>
<stop offset="1" stop-color="#172F78"/>
</linearGradient>
<radialGradient id="paint18_radial_2_5147" cx="0" cy="0" r="1" gradientUnits="userSpaceOnUse" gradientTransform="translate(412.083 74.4748) scale(242.104 259.375)">
<stop stop-color="#01C8EF"/>
<stop offset="0.1396" stop-color="#03BAE4"/>
<stop offset="0.4033" stop-color="#0895C8"/>
<stop offset="0.76" stop-color="#115A9A"/>
<stop offset="1" stop-color="#172F78"/>
</radialGradient>
<linearGradient id="paint19_linear_2_5147" x1="318.104" y1="355.078" x2="426.515" y2="355.078" gradientUnits="userSpaceOnUse">
<stop stop-color="#01C8EF"/>
<stop offset="0.1297" stop-color="#04B1DD"/>
<stop offset="0.5466" stop-color="#0E6BA7"/>
<stop offset="0.8476" stop-color="#154085"/>
<stop offset="1" stop-color="#172F78"/>
</linearGradient>
<radialGradient id="paint20_radial_2_5147" cx="0" cy="0" r="1" gradientUnits="userSpaceOnUse" gradientTransform="translate(298.881 267.986) scale(242.104 259.375)">
<stop stop-color="#01C8EF"/>
<stop offset="0.1396" stop-color="#03BAE4"/>
<stop offset="0.4033" stop-color="#0895C8"/>
<stop offset="0.76" stop-color="#115A9A"/>
<stop offset="1" stop-color="#172F78"/>
</radialGradient>
<linearGradient id="paint21_linear_2_5147" x1="318.104" y1="293.406" x2="426.515" y2="293.406" gradientUnits="userSpaceOnUse">
<stop stop-color="#01C8EF"/>
<stop offset="0.1297" stop-color="#04B1DD"/>
<stop offset="0.5466" stop-color="#0E6BA7"/>
<stop offset="0.8476" stop-color="#154085"/>
<stop offset="1" stop-color="#172F78"/>
</linearGradient>
<radialGradient id="paint22_radial_2_5147" cx="0" cy="0" r="1" gradientUnits="userSpaceOnUse" gradientTransform="translate(298.881 206.314) scale(242.104 259.375)">
<stop stop-color="#01C8EF"/>
<stop offset="0.1396" stop-color="#03BAE4"/>
<stop offset="0.4033" stop-color="#0895C8"/>
<stop offset="0.76" stop-color="#115A9A"/>
<stop offset="1" stop-color="#172F78"/>
</radialGradient>
<linearGradient id="paint23_linear_2_5147" x1="318.104" y1="231.735" x2="426.515" y2="231.735" gradientUnits="userSpaceOnUse">
<stop stop-color="#01C8EF"/>
<stop offset="0.1297" stop-color="#04B1DD"/>
<stop offset="0.5466" stop-color="#0E6BA7"/>
<stop offset="0.8476" stop-color="#154085"/>
<stop offset="1" stop-color="#172F78"/>
</linearGradient>
<radialGradient id="paint24_radial_2_5147" cx="0" cy="0" r="1" gradientUnits="userSpaceOnUse" gradientTransform="translate(298.881 144.642) scale(242.104 259.375)">
<stop stop-color="#01C8EF"/>
<stop offset="0.1396" stop-color="#03BAE4"/>
<stop offset="0.4033" stop-color="#0895C8"/>
<stop offset="0.76" stop-color="#115A9A"/>
<stop offset="1" stop-color="#172F78"/>
</radialGradient>
<linearGradient id="paint25_linear_2_5147" x1="657.09" y1="287.375" x2="713.399" y2="287.375" gradientUnits="userSpaceOnUse">
<stop stop-color="#01C8EF"/>
<stop offset="0.1297" stop-color="#04B1DD"/>
<stop offset="0.5466" stop-color="#0E6BA7"/>
<stop offset="0.8476" stop-color="#154085"/>
<stop offset="1" stop-color="#172F78"/>
</linearGradient>
<radialGradient id="paint26_radial_2_5147" cx="0" cy="0" r="1" gradientUnits="userSpaceOnUse" gradientTransform="translate(647.105 242.139) scale(125.75 134.721)">
<stop stop-color="#01C8EF"/>
<stop offset="0.1396" stop-color="#03BAE4"/>
<stop offset="0.4033" stop-color="#0895C8"/>
<stop offset="0.76" stop-color="#115A9A"/>
<stop offset="1" stop-color="#172F78"/>
</radialGradient>
<linearGradient id="paint27_linear_2_5147" x1="657.09" y1="255.342" x2="713.399" y2="255.342" gradientUnits="userSpaceOnUse">
<stop stop-color="#01C8EF"/>
<stop offset="0.1297" stop-color="#04B1DD"/>
<stop offset="0.5466" stop-color="#0E6BA7"/>
<stop offset="0.8476" stop-color="#154085"/>
<stop offset="1" stop-color="#172F78"/>
</linearGradient>
<radialGradient id="paint28_radial_2_5147" cx="0" cy="0" r="1" gradientUnits="userSpaceOnUse" gradientTransform="translate(647.105 210.106) scale(125.75 134.721)">
<stop stop-color="#01C8EF"/>
<stop offset="0.1396" stop-color="#03BAE4"/>
<stop offset="0.4033" stop-color="#0895C8"/>
<stop offset="0.76" stop-color="#115A9A"/>
<stop offset="1" stop-color="#172F78"/>
</radialGradient>
<linearGradient id="paint29_linear_2_5147" x1="657.09" y1="223.31" x2="713.399" y2="223.31" gradientUnits="userSpaceOnUse">
<stop stop-color="#01C8EF"/>
<stop offset="0.1297" stop-color="#04B1DD"/>
<stop offset="0.5466" stop-color="#0E6BA7"/>
<stop offset="0.8476" stop-color="#154085"/>
<stop offset="1" stop-color="#172F78"/>
</linearGradient>
<radialGradient id="paint30_radial_2_5147" cx="0" cy="0" r="1" gradientUnits="userSpaceOnUse" gradientTransform="translate(647.105 178.073) scale(125.75 134.721)">
<stop stop-color="#01C8EF"/>
<stop offset="0.1396" stop-color="#03BAE4"/>
<stop offset="0.4033" stop-color="#0895C8"/>
<stop offset="0.76" stop-color="#115A9A"/>
<stop offset="1" stop-color="#172F78"/>
</radialGradient>
<linearGradient id="paint31_linear_2_5147" x1="41.8245" y1="304.998" x2="98.2411" y2="304.998" gradientUnits="userSpaceOnUse">
<stop stop-color="#01C8EF"/>
<stop offset="0.1297" stop-color="#04B1DD"/>
<stop offset="0.5466" stop-color="#0E6BA7"/>
<stop offset="0.8476" stop-color="#154085"/>
<stop offset="1" stop-color="#172F78"/>
</linearGradient>
<radialGradient id="paint32_radial_2_5147" cx="0" cy="0" r="1" gradientUnits="userSpaceOnUse" gradientTransform="translate(31.8208 259.676) scale(125.989 134.977)">
<stop stop-color="#01C8EF"/>
<stop offset="0.1396" stop-color="#03BAE4"/>
<stop offset="0.4033" stop-color="#0895C8"/>
<stop offset="0.76" stop-color="#115A9A"/>
<stop offset="1" stop-color="#172F78"/>
</radialGradient>
<linearGradient id="paint33_linear_2_5147" x1="41.8245" y1="272.905" x2="98.2411" y2="272.905" gradientUnits="userSpaceOnUse">
<stop stop-color="#01C8EF"/>
<stop offset="0.1297" stop-color="#04B1DD"/>
<stop offset="0.5466" stop-color="#0E6BA7"/>
<stop offset="0.8476" stop-color="#154085"/>
<stop offset="1" stop-color="#172F78"/>
</linearGradient>
<radialGradient id="paint34_radial_2_5147" cx="0" cy="0" r="1" gradientUnits="userSpaceOnUse" gradientTransform="translate(31.8208 227.582) scale(125.989 134.977)">
<stop stop-color="#01C8EF"/>
<stop offset="0.1396" stop-color="#03BAE4"/>
<stop offset="0.4033" stop-color="#0895C8"/>
<stop offset="0.76" stop-color="#115A9A"/>
<stop offset="1" stop-color="#172F78"/>
</radialGradient>
<linearGradient id="paint35_linear_2_5147" x1="41.8245" y1="240.811" x2="98.2411" y2="240.811" gradientUnits="userSpaceOnUse">
<stop stop-color="#01C8EF"/>
<stop offset="0.1297" stop-color="#04B1DD"/>
<stop offset="0.5466" stop-color="#0E6BA7"/>
<stop offset="0.8476" stop-color="#154085"/>
<stop offset="1" stop-color="#172F78"/>
</linearGradient>
<radialGradient id="paint36_radial_2_5147" cx="0" cy="0" r="1" gradientUnits="userSpaceOnUse" gradientTransform="translate(31.8208 195.489) scale(125.989 134.977)">
<stop stop-color="#01C8EF"/>
<stop offset="0.1396" stop-color="#03BAE4"/>
<stop offset="0.4033" stop-color="#0895C8"/>
<stop offset="0.76" stop-color="#115A9A"/>
<stop offset="1" stop-color="#172F78"/>
</radialGradient>
<linearGradient id="paint37_linear_2_5147" x1="119.138" y1="202.922" x2="44.6223" y2="242.258" gradientUnits="userSpaceOnUse">
<stop stop-color="#FFF49F"/>
<stop offset="0.495" stop-color="#FFCB39"/>
<stop offset="1" stop-color="#FFAF09"/>
</linearGradient>
</defs>
</svg>
