<svg width="237" height="229" viewBox="0 0 237 229" fill="none" xmlns="http://www.w3.org/2000/svg">
<g opacity="0.8">
<path opacity="0.3" d="M52.5962 100.492L29.1963 86.9831L47.7902 76.248L71.1901 89.7565L52.5962 100.492Z" fill="#1B2036"/>
<path opacity="0.3" d="M53.5115 105.572L20.3947 86.4549L46.8738 71.166L79.9907 90.2845L53.5115 105.572ZM21.9935 86.4549L53.5115 104.649L78.3919 90.2857L46.8738 72.0909L21.9935 86.4549Z" fill="white"/>
<path d="M52.8671 79.6827L26.8226 64.6475L47.5181 52.6992L73.5626 67.7344L52.8671 79.6827Z" fill="#1B2036"/>
<path d="M73.5626 83.8627V67.7344L52.8672 79.6827V95.8124L73.5626 83.8627Z" fill="#3A405D"/>
<path d="M26.8226 64.6477V80.7774L52.8671 95.8125V79.6828L26.8226 64.6477Z" fill="#4B5067"/>
<path d="M42.8367 60.876L31.5626 67.3848V70.8746L34.9088 72.8057V69.3172L46.1828 62.8071L42.8367 60.876Z" fill="white"/>
<path d="M49.9996 65.0078L38.7242 71.5179V75.0064L42.0704 76.9388V73.449L53.3458 66.9402L49.9996 65.0078Z" fill="white"/>
<path d="M57.1694 69.147L45.894 75.6571V79.1469L49.2402 81.078V77.5882L60.5156 71.0794L57.1694 69.147Z" fill="white"/>
<path d="M42.8365 60.876V62.2804L44.9871 63.4973L46.1827 62.8071L42.8365 60.876Z" fill="#1B2036"/>
<path d="M32.7756 70.1536L31.5626 70.8744L34.9088 72.8055V71.3545L32.7756 70.1536Z" fill="#1B2036"/>
<path d="M42.8367 60.876L31.5626 67.3848V70.8746L32.7756 70.1538V68.0936L42.8433 62.2804L42.8367 60.876Z" fill="#3A405D"/>
<path d="M49.9998 65.0078V66.4136L52.149 67.6305L53.3459 66.9402L49.9998 65.0078Z" fill="#1B2036"/>
<path d="M39.9372 74.2856L38.7242 75.0065L42.0704 76.9389V75.4866L39.9372 74.2856Z" fill="#1B2036"/>
<path d="M49.9996 65.0078L38.7242 71.5179V75.0064L39.9372 74.2856V72.2268L50.0049 66.4136L49.9996 65.0078Z" fill="#3A405D"/>
<path d="M57.1693 69.147V70.5527L59.3185 71.7696L60.5155 71.0794L57.1693 69.147Z" fill="#1B2036"/>
<path d="M47.1071 78.4248L45.8942 79.147L49.2404 81.0781V79.6258L47.1071 78.4248Z" fill="#1B2036"/>
<path d="M57.1694 69.147L45.894 75.6571V79.1469L47.107 78.4247V76.366L57.1747 70.5527L57.1694 69.147Z" fill="#3A405D"/>
<path opacity="0.3" d="M174.092 228.597C146.646 228.598 119.207 222.567 98.3144 210.503C77.9973 198.774 66.8082 183.153 66.8082 166.521C66.8082 149.889 77.9961 134.271 98.3119 122.541C140.092 98.4186 208.079 98.4174 249.863 122.543C270.18 134.272 281.369 149.892 281.369 166.524C281.369 183.155 270.181 198.774 249.866 210.504C228.977 222.565 201.53 228.594 174.092 228.597ZM174.087 105.238C146.788 105.238 119.493 111.238 98.7122 123.236C78.6557 134.814 67.61 150.188 67.61 166.522C67.61 182.857 78.6557 198.23 98.7146 209.81C140.277 233.806 207.905 233.808 249.468 209.811C269.525 198.232 280.571 182.857 280.571 166.524C280.571 150.19 269.524 134.817 249.465 123.236C228.682 111.238 201.383 105.238 174.087 105.238Z" fill="white"/>
<path opacity="0.3" d="M173.164 221.1C224.552 221.1 266.211 197.048 266.211 167.379C266.211 137.71 224.552 113.658 173.164 113.658C121.776 113.658 80.1174 137.71 80.1174 167.379C80.1174 197.048 121.776 221.1 173.164 221.1Z" fill="#3A405D"/>
<path d="M212.633 28.2438L154.163 -5.54337C153.22 -6.08752 152.357 -6.13205 151.688 -5.76869L147.719 -3.45405L150.313 -1.88839V135.109C150.313 137.945 152.037 141.238 154.163 142.465L211.956 175.862L211.132 178.795L215.132 176.467L215.128 176.466C215.957 176.003 216.484 174.908 216.484 173.342V35.6C216.484 32.7653 214.76 29.471 212.633 28.2438Z" fill="#303341"/>
<path d="M208.576 178.615L150.105 144.828C147.978 143.601 146.255 140.306 146.255 137.472V-0.271277C146.255 -3.10691 147.979 -4.40984 150.105 -3.18172L208.576 30.6054C210.703 31.8336 212.426 35.1269 212.426 37.9617V175.705C212.426 178.54 210.702 179.843 208.576 178.615Z" fill="#12172E"/>
<path d="M212.426 175.801L146.255 137.568V-0.366455L212.426 37.8656V175.801Z" fill="#95999D"/>
<path opacity="0.4" d="M201.856 178.45L142.798 144.327C140.583 143.047 139.219 140.683 139.219 138.126V8.40511C139.219 6.59188 141.183 5.45816 142.753 6.36567L201.812 40.4886C204.027 41.7684 205.391 44.132 205.391 46.6897V176.41C205.39 178.223 203.426 179.357 201.856 178.45Z" fill="#1B2036"/>
<path d="M203.034 179.031C202.585 179.031 202.135 178.913 201.725 178.676L142.666 144.553C140.378 143.231 138.957 140.768 138.957 138.126V8.40507C138.957 7.45926 139.447 6.61232 140.266 6.13941C141.084 5.66651 142.062 5.66473 142.882 6.1403L201.941 40.2632C204.229 41.5848 205.65 44.0482 205.65 46.6897V176.41C205.65 177.356 205.16 178.203 204.341 178.676C203.932 178.913 203.483 179.031 203.034 179.031ZM141.574 6.30685C141.214 6.30685 140.855 6.40036 140.526 6.59006C139.871 6.96856 139.479 7.64718 139.479 8.40418V138.125C139.479 140.581 140.799 142.87 142.927 144.1L201.986 178.224C202.643 178.604 203.425 178.604 204.082 178.224C204.737 177.846 205.129 177.167 205.129 176.41V46.6897C205.129 44.2335 203.809 41.9446 201.681 40.7138L142.622 6.59095C142.294 6.40214 141.934 6.30685 141.574 6.30685Z" fill="white"/>
<path d="M183.711 19.4938L174.969 14.4469C174.673 14.275 174.432 13.8154 174.432 13.42C174.432 13.0246 174.672 12.842 174.969 13.0139L183.711 18.0609C184.008 18.2319 184.248 18.6923 184.248 19.0877C184.248 19.4831 184.008 19.6657 183.711 19.4938Z" fill="#9AA9B4"/>
<path opacity="0.2" d="M187.305 97.7847C188.502 98.4758 189.473 97.742 189.473 96.146V48.2457C189.473 46.6498 188.502 44.7947 187.305 44.1036L139.403 16.4473C139.284 16.9994 139.219 17.5765 139.219 18.1759V70.0215L187.305 97.7847Z" fill="#041860"/>
<path d="M151.309 80.0334L151.319 81.2233C150.298 80.7477 148.997 80.5339 147.457 80.6462C142.036 81.0425 135.723 85.3307 133.356 90.2235C132.7 91.5781 132.418 92.8374 132.464 93.9409L131.366 93.5775L132.549 95.3195L132.551 95.3142C133.532 96.8415 135.528 97.6903 138.29 97.4881C143.711 97.0918 150.024 92.8036 152.391 87.9107C153.575 85.4642 153.547 83.3295 152.547 81.8565L151.309 80.0334Z" fill="#12172E"/>
<path d="M151.153 86.0875C148.786 90.9804 142.473 95.2686 137.052 95.6649C131.631 96.0612 129.155 92.416 131.522 87.5231C133.889 82.6302 140.203 78.3421 145.624 77.9457C151.045 77.5494 153.521 81.1946 151.153 86.0875Z" fill="#12172E"/>
<path d="M151.153 86.0875C148.786 90.9804 142.473 95.2686 137.052 95.6649C131.631 96.0612 129.155 92.416 131.522 87.5231C133.889 82.6302 140.203 78.3421 145.624 77.9457C151.045 77.5494 153.521 81.1946 151.153 86.0875Z" fill="#4F4F4F"/>
<path d="M144.741 91.6742C142.567 93.165 140.059 94.1759 137.747 94.3442C135.508 94.508 133.78 93.8695 132.882 92.547C131.984 91.2244 132.028 89.3836 133.005 87.362C135.002 83.2323 140.351 79.5996 144.928 79.2647C147.167 79.1009 148.895 79.7394 149.793 81.061C150.691 82.3836 150.647 84.2253 149.669 86.2461C148.681 88.2908 146.871 90.2136 144.741 91.6742ZM138.048 82.1021C135.947 83.5431 134.164 85.4374 133.189 87.4528C132.244 89.405 132.195 91.1737 133.05 92.433C133.906 93.6932 135.568 94.2996 137.731 94.1411C142.243 93.8107 147.515 90.2306 149.485 86.1579C150.43 84.2057 150.479 82.437 149.623 81.1768C148.768 79.9175 147.105 79.311 144.943 79.4696C142.665 79.6361 140.192 80.6327 138.048 82.1021Z" fill="#12172E"/>
<path d="M149.579 86.2024C147.592 90.3098 142.291 93.9096 137.74 94.2427C133.189 94.5758 131.111 91.5157 133.097 87.4083C135.084 83.3009 140.385 79.7011 144.936 79.3681C149.487 79.035 151.566 82.095 149.579 86.2024Z" fill="#4D5062"/>
<path d="M133.37 87.809C135.357 83.7016 140.658 80.1019 145.208 79.7688C147.361 79.6112 148.96 80.2141 149.837 81.3264C149.045 79.9603 147.334 79.1926 144.936 79.368C140.385 79.7011 135.085 83.3009 133.097 87.4083C132.05 89.5733 132.133 91.4462 133.111 92.6859C132.401 91.4595 132.429 89.7514 133.37 87.809Z" fill="#12172E"/>
<path d="M150.896 85.7073C148.529 90.6002 142.215 94.8884 136.794 95.2847C134.2 95.4744 132.283 94.737 131.246 93.3815C132.202 94.9766 134.226 95.8707 137.053 95.6641C142.474 95.2678 148.787 90.9796 151.154 86.0867C152.389 83.5352 152.304 81.3247 151.173 79.8481C152.049 81.3123 152.028 83.366 150.896 85.7073Z" fill="#1C1F31"/>
<path d="M149.503 91.8746C150.711 90.6527 151.716 89.3079 152.392 87.9105C153.576 85.4641 153.548 83.3294 152.548 81.8563L151.309 80.0324C151.292 80.0075 151.269 79.9861 151.251 79.9612C151.225 79.9237 151.201 79.8846 151.172 79.848C151.179 79.8605 151.185 79.8748 151.192 79.8872C150.16 78.5104 148.239 77.7534 145.624 77.9449C142.556 78.1693 139.203 79.6414 136.441 81.7628L146.201 91.8737L149.503 91.8746Z" fill="#12172E"/>
<path d="M181.103 48.0568L111.581 7.91795C111.039 7.60535 110.544 7.58665 110.165 7.80573V7.80217L109.131 8.4051C109.131 8.4051 109.37 8.43983 109.609 8.47189C109.484 8.7649 109.412 9.12825 109.412 9.55574V57.456C109.412 59.052 110.383 60.9071 111.58 61.5982L181.102 101.737C181.233 101.813 181.361 101.869 181.486 101.911V102.454L182.524 101.848H182.518C182.978 101.584 183.269 100.971 183.269 100.097V52.1971C183.271 50.6021 182.3 48.7479 181.103 48.0568Z" fill="white"/>
<path d="M180.096 102.325L110.573 62.1858C109.376 61.4947 108.405 59.6405 108.405 58.0437V10.1434C108.405 8.54743 109.376 7.81358 110.573 8.50468L180.096 48.6435C181.293 49.3346 182.263 51.1888 182.263 52.7856V100.686C182.263 102.282 181.293 103.016 180.096 102.325Z" fill="#313548"/>
<path d="M159.371 51.13V44.293L160.822 45.1292C161.096 45.2878 161.334 45.4534 161.538 45.6271C161.742 45.8007 161.922 45.9993 162.081 46.222C162.239 46.4429 162.358 46.6931 162.439 46.971C162.52 47.2479 162.559 47.5507 162.557 47.8767C162.554 48.7183 162.264 49.0229 161.685 48.7878C162.035 49.0665 162.296 49.3943 162.468 49.771C162.642 50.1468 162.729 50.585 162.732 51.0882C162.734 51.7374 162.594 52.1489 162.31 52.3225C162.027 52.4953 161.613 52.4258 161.07 52.1132L159.371 51.13ZM160.45 47.703L160.786 47.8981C161.102 48.0806 161.32 48.1278 161.439 48.0397C161.558 47.9515 161.618 47.7226 161.618 47.3521C161.618 47.1589 161.597 46.9923 161.558 46.8499C161.519 46.7074 161.453 46.5791 161.36 46.4651C161.267 46.3511 161.164 46.2514 161.051 46.1677C160.938 46.0822 160.787 45.986 160.599 45.8773L160.449 45.79V47.703H160.45ZM160.45 50.8744L160.846 51.1033C161.167 51.2894 161.39 51.3313 161.514 51.2298C161.637 51.1282 161.7 50.878 161.7 50.479C161.7 50.0667 161.63 49.7273 161.49 49.4611C161.352 49.1948 161.118 48.9668 160.789 48.7771L160.45 48.5803V50.8744Z" fill="white"/>
<path d="M163.118 53.2934L164.322 47.1519L165.447 47.8011L166.647 55.331L165.644 54.7521L165.404 53.0262L164.38 52.4348L164.137 53.882L163.118 53.2934ZM164.493 51.6876L165.285 52.1454L164.89 49.1085L164.493 51.6876Z" fill="white"/>
<path d="M167.229 55.6666V48.8296L167.971 49.2571L169.421 53.9674V50.0942L170.315 50.6099V57.4478L169.607 57.039L168.142 52.123V56.193L167.229 55.6666Z" fill="white"/>
<path d="M171.2 57.96V51.1221L172.279 51.7446V54.7138L173.443 52.417L174.472 53.011L173.34 55.4165L174.589 59.9166L173.515 59.2959L172.494 55.4904L172.28 55.811V58.5825L171.2 57.96Z" fill="white"/>
<path d="M127.6 62.0816L114.403 54.4626V52.6992L127.6 60.3182V62.0816Z" fill="white"/>
<path d="M143.822 71.4479L130.624 63.8281V62.0647L143.822 69.6837V71.4479Z" fill="white"/>
<path d="M160.044 80.8134L146.846 73.1935V71.4302L160.044 79.0501V80.8134Z" fill="white"/>
<path d="M176.265 90.1789L163.068 82.559V80.7957L176.265 88.4155V90.1789Z" fill="white"/>
<path opacity="0.2" d="M180.096 48.6435L110.573 8.50468C109.376 7.81358 108.405 8.54743 108.405 10.1434V58.0437C108.405 58.3349 108.447 58.635 108.507 58.9352C112.206 56.2607 127.245 47.9916 155.976 63.8414C166.436 69.6115 175.18 68.8492 182.263 65.0704V52.7839C182.263 51.1897 181.293 49.3355 180.096 48.6435Z" fill="white"/>
<path opacity="0.2" d="M137.224 46.2078C146.982 44.9494 155.145 41.9606 161.921 38.1516L110.574 8.50566C109.377 7.81456 108.406 8.54841 108.406 10.1443V55.9856C113.531 51.9423 122.297 48.1315 137.224 46.2078Z" fill="white"/>
<path d="M153.006 162.124L152.341 163.111C151.768 162.142 150.816 161.229 149.482 160.452C144.787 157.713 137.156 157.679 132.437 160.375C131.13 161.122 130.185 161.999 129.599 162.937L128.899 162.016L128.889 164.122L128.894 164.118C128.84 165.933 130.005 167.762 132.397 169.157C137.093 171.896 144.724 171.93 149.443 169.234C151.802 167.885 152.988 166.11 152.996 164.328L153.006 162.124Z" fill="#12172E"/>
<path d="M149.454 167.029C144.735 169.726 137.103 169.692 132.408 166.952C127.713 164.214 127.733 159.807 132.452 157.11C137.171 154.414 144.802 154.447 149.498 157.187C154.193 159.926 154.173 164.332 149.454 167.029Z" fill="#12172E"/>
<path d="M149.454 167.029C144.735 169.726 137.103 169.692 132.408 166.952C127.713 164.214 127.733 159.807 132.452 157.11C137.171 154.414 144.802 154.447 149.498 157.187C154.193 159.926 154.173 164.332 149.454 167.029Z" fill="#4F4F4F"/>
<path d="M141.006 168.01C138.369 168.01 135.73 167.425 133.728 166.258C131.788 165.127 130.725 163.622 130.732 162.025C130.739 160.426 131.817 158.932 133.766 157.818C137.749 155.543 144.215 155.571 148.179 157.883C150.118 159.014 151.182 160.518 151.175 162.116C151.167 163.715 150.09 165.208 148.14 166.323C146.169 167.448 143.588 168.01 141.006 168.01ZM140.9 156.331C138.353 156.331 135.81 156.885 133.867 157.996C131.984 159.071 130.943 160.503 130.936 162.025C130.929 163.547 131.957 164.988 133.83 166.081C137.738 168.36 144.11 168.389 148.039 166.144C149.921 165.069 150.963 163.637 150.97 162.115C150.977 160.593 149.949 159.152 148.075 158.06C146.102 156.908 143.498 156.331 140.9 156.331Z" fill="#12172E"/>
<path d="M148.09 166.234C144.128 168.497 137.72 168.469 133.78 166.169C129.838 163.87 129.855 160.171 133.816 157.907C137.777 155.644 144.185 155.672 148.126 157.972C152.068 160.27 152.051 163.97 148.09 166.234Z" fill="#4D5062"/>
<path d="M133.813 158.392C137.776 156.128 144.183 156.157 148.124 158.456C149.988 159.543 150.966 160.944 151.061 162.359C151.18 160.784 150.204 159.184 148.126 157.972C144.184 155.672 137.777 155.644 133.815 157.907C131.728 159.101 130.736 160.692 130.842 162.268C130.949 160.854 131.94 159.462 133.813 158.392Z" fill="#12172E"/>
<path d="M149.456 166.57C144.737 169.267 137.105 169.233 132.41 166.494C130.163 165.183 128.999 163.491 128.91 161.787C128.796 163.643 129.959 165.525 132.408 166.953C137.103 169.692 144.735 169.726 149.454 167.03C151.915 165.624 153.095 163.752 152.998 161.896C152.893 163.598 151.713 165.28 149.456 166.57Z" fill="#1C1F31"/>
<path d="M155.075 159.17L154.411 160.157C153.838 159.187 152.886 158.275 151.552 157.498C146.857 154.759 139.226 154.725 134.506 157.421C133.2 158.168 132.255 159.045 131.669 159.983L130.969 159.062L130.959 161.168L130.964 161.164C130.909 162.979 132.075 164.807 134.467 166.203C139.162 168.942 146.794 168.975 151.513 166.28C153.873 164.931 155.058 163.155 155.066 161.374L155.075 159.17Z" fill="#12172E"/>
<path d="M151.523 164.075C146.804 166.772 139.172 166.738 134.477 163.999C129.782 161.26 129.801 156.854 134.521 154.157C139.24 151.46 146.871 151.494 151.567 154.234C156.262 156.973 156.242 161.379 151.523 164.075Z" fill="#12172E"/>
<path d="M151.523 164.075C146.804 166.772 139.172 166.738 134.477 163.999C129.782 161.26 129.801 156.854 134.521 154.157C139.24 151.46 146.871 151.494 151.567 154.234C156.262 156.973 156.242 161.379 151.523 164.075Z" fill="#4F4F4F"/>
<path d="M143.075 165.057C140.438 165.057 137.799 164.472 135.797 163.304C133.857 162.173 132.794 160.67 132.801 159.07C132.808 157.472 133.886 155.978 135.834 154.864C139.817 152.589 146.284 152.617 150.247 154.929C152.186 156.06 153.25 157.564 153.243 159.162C153.235 160.761 152.158 162.254 150.208 163.368C148.238 164.495 145.657 165.057 143.075 165.057ZM142.969 153.378C140.422 153.378 137.879 153.932 135.936 155.042C134.053 156.118 133.012 157.549 133.005 159.071C132.998 160.594 134.026 162.034 135.899 163.128C139.807 165.407 146.179 165.436 150.108 163.191C151.99 162.115 153.032 160.684 153.039 159.161C153.046 157.639 152.018 156.198 150.144 155.106C148.171 153.955 145.568 153.378 142.969 153.378Z" fill="#12172E"/>
<path d="M150.159 163.28C146.197 165.544 139.789 165.516 135.848 163.216C131.906 160.917 131.923 157.218 135.884 154.954C139.846 152.69 146.253 152.719 150.194 155.018C154.137 157.317 154.121 161.016 150.159 163.28Z" fill="#4D5062"/>
<path d="M135.882 155.439C139.845 153.175 146.252 153.203 150.193 155.503C152.057 156.59 153.035 157.991 153.13 159.405C153.249 157.831 152.273 156.23 150.195 155.018C146.253 152.719 139.846 152.69 135.885 154.954C133.798 156.147 132.806 157.739 132.911 159.314C133.019 157.901 134.009 156.509 135.882 155.439Z" fill="#12172E"/>
<path d="M151.525 163.617C146.805 166.314 139.174 166.28 134.479 163.54C132.232 162.229 131.068 160.537 130.979 158.833C130.865 160.689 132.028 162.571 134.477 164C139.172 166.738 146.804 166.773 151.523 164.076C153.984 162.67 155.164 160.799 155.067 158.942C154.962 160.645 153.783 162.326 151.525 163.617Z" fill="#4F4F4F"/>
<path d="M170.959 173.849L170.295 174.836C169.721 173.867 168.769 172.954 167.436 172.176C162.741 169.438 155.109 169.404 150.39 172.1C149.084 172.847 148.139 173.724 147.553 174.662L146.853 173.741L146.843 175.847L146.847 175.843C146.793 177.658 147.959 179.486 150.351 180.882C155.046 183.621 162.678 183.655 167.397 180.959C169.757 179.61 170.941 177.834 170.949 176.053L170.959 173.849Z" fill="#12172E"/>
<path d="M170.966 173.848C170.983 170.005 165.601 166.865 158.944 166.835C152.287 166.805 146.876 169.897 146.859 173.74C146.842 177.583 152.224 180.723 158.881 180.753C165.538 180.783 170.948 177.692 170.966 173.848Z" fill="#12172E"/>
<path d="M167.407 178.753C162.687 181.45 155.056 181.416 150.361 178.677C145.665 175.938 145.685 171.532 150.404 168.835C155.124 166.138 162.755 166.172 167.45 168.912C172.145 171.651 172.126 176.057 167.407 178.753Z" fill="#4F4F4F"/>
<path d="M158.958 179.735C156.321 179.735 153.682 179.149 151.68 177.982C149.741 176.851 148.677 175.347 148.684 173.749C148.692 172.15 149.769 170.657 151.718 169.543C155.701 167.267 162.167 167.296 166.13 169.608C168.07 170.739 169.133 172.242 169.126 173.841C169.119 175.439 168.041 176.933 166.093 178.047C164.122 179.173 161.541 179.735 158.958 179.735ZM158.852 168.055C156.305 168.055 153.763 168.609 151.819 169.72C149.937 170.796 148.896 172.227 148.888 173.749C148.881 175.272 149.909 176.712 151.783 177.806C155.691 180.085 162.063 180.113 165.991 177.869C167.874 176.793 168.915 175.362 168.922 173.839C168.929 172.317 167.902 170.876 166.028 169.784C164.054 168.633 161.451 168.055 158.852 168.055Z" fill="#12172E"/>
<path d="M166.042 177.958C162.08 180.222 155.673 180.193 151.731 177.894C147.789 175.594 147.806 171.896 151.768 169.632C155.73 167.368 162.137 167.396 166.079 169.696C170.02 171.995 170.004 175.694 166.042 177.958Z" fill="#4D5062"/>
<path d="M151.766 170.116C155.728 167.852 162.135 167.881 166.077 170.18C167.941 171.268 168.919 172.669 169.013 174.083C169.132 172.508 168.156 170.908 166.079 169.696C162.137 167.396 155.73 167.368 151.768 169.632C149.68 170.825 148.689 172.417 148.794 173.992C148.903 172.579 149.892 171.187 151.766 170.116Z" fill="#12172E"/>
<path d="M167.408 178.295C162.689 180.991 155.058 180.957 150.362 178.218C148.116 176.907 146.952 175.215 146.862 173.51C146.748 175.366 147.912 177.248 150.361 178.677C155.056 181.415 162.687 181.45 167.407 178.753C169.867 177.347 171.047 175.476 170.95 173.619C170.846 175.323 169.667 177.004 167.408 178.295Z" fill="#1C1F31"/>
<path d="M146.855 178.029L146.191 179.016C145.617 178.046 144.665 177.134 143.332 176.357C138.637 173.618 131.005 173.584 126.286 176.28C124.98 177.026 124.035 177.905 123.449 178.842L122.749 177.921L122.739 180.027L122.743 180.023C122.689 181.838 123.855 183.667 126.247 185.062C130.942 187.801 138.574 187.835 143.293 185.139C145.653 183.79 146.837 182.015 146.845 180.233L146.855 178.029Z" fill="#12172E"/>
<path d="M146.862 178.03C146.879 174.187 141.497 171.047 134.84 171.017C128.183 170.987 122.773 174.078 122.756 177.922C122.738 181.765 128.121 184.905 134.778 184.935C141.434 184.965 146.845 181.873 146.862 178.03Z" fill="#12172E"/>
<path d="M143.303 182.935C138.584 185.631 130.952 185.597 126.257 182.858C121.562 180.119 121.581 175.713 126.301 173.016C131.02 170.319 138.651 170.353 143.346 173.093C148.042 175.831 148.022 180.238 143.303 182.935Z" fill="#4F4F4F"/>
<path d="M134.855 183.916C132.219 183.916 129.579 183.331 127.577 182.163C125.637 181.032 124.574 179.528 124.581 177.93C124.588 176.331 125.666 174.837 127.615 173.723C131.598 171.448 138.064 171.476 142.027 173.788C143.967 174.919 145.031 176.423 145.023 178.021C145.016 179.62 143.939 181.113 141.99 182.228C140.017 183.353 137.437 183.916 134.855 183.916ZM134.749 172.237C132.202 172.237 129.66 172.791 127.716 173.901C125.833 174.977 124.792 176.408 124.785 177.93C124.778 179.453 125.805 180.893 127.679 181.987C131.587 184.266 137.959 184.295 141.888 182.05C143.771 180.975 144.811 179.543 144.819 178.02C144.826 176.498 143.798 175.057 141.924 173.966C139.951 172.813 137.347 172.237 134.749 172.237Z" fill="#12172E"/>
<path d="M141.938 182.139C137.976 184.402 131.569 184.374 127.628 182.074C123.686 179.775 123.703 176.076 127.664 173.812C131.626 171.549 138.033 171.577 141.974 173.877C145.917 176.176 145.901 179.875 141.938 182.139Z" fill="#4D5062"/>
<path d="M127.662 174.297C131.624 172.033 138.031 172.062 141.973 174.361C143.838 175.448 144.815 176.849 144.909 178.264C145.029 176.689 144.053 175.089 141.975 173.877C138.033 171.577 131.626 171.549 127.665 173.812C125.577 175.006 124.586 176.597 124.691 178.173C124.799 176.759 125.788 175.367 127.662 174.297Z" fill="#12172E"/>
<path d="M143.304 182.475C138.585 185.172 130.954 185.138 126.258 182.399C124.012 181.089 122.848 179.396 122.758 177.691C122.644 179.547 123.808 181.429 126.257 182.857C130.952 185.596 138.583 185.63 143.303 182.934C145.763 181.528 146.943 179.656 146.846 177.8C146.742 179.503 145.563 181.185 143.304 182.475Z" fill="#1C1F31"/>
<path d="M158.259 173.597L157.595 174.584C157.021 173.614 156.069 172.702 154.736 171.924C150.041 169.186 142.409 169.152 137.69 171.848C136.384 172.595 135.439 173.472 134.853 174.41L134.153 173.489L134.143 175.594L134.147 175.591C134.093 177.406 135.259 179.234 137.651 180.63C142.346 183.368 149.978 183.402 154.697 180.706C157.057 179.358 158.241 177.582 158.249 175.801L158.259 173.597Z" fill="#12172E"/>
<path d="M158.266 173.597C158.283 169.754 152.901 166.614 146.244 166.584C139.587 166.554 134.177 169.646 134.159 173.489C134.142 177.332 139.524 180.472 146.181 180.502C152.838 180.532 158.248 177.441 158.266 173.597Z" fill="#12172E"/>
<path d="M154.707 178.502C149.987 181.199 142.356 181.165 137.661 178.425C132.966 175.687 132.985 171.28 137.704 168.584C142.424 165.887 150.055 165.921 154.75 168.659C159.445 171.399 159.426 175.805 154.707 178.502Z" fill="#4F4F4F"/>
<path d="M146.258 179.484C143.622 179.484 140.983 178.898 138.981 177.731C137.041 176.6 135.978 175.096 135.985 173.497C135.992 171.898 137.069 170.405 139.018 169.291C143.001 167.015 149.467 167.044 153.43 169.356C155.37 170.487 156.433 171.99 156.426 173.589C156.419 175.187 155.342 176.681 153.393 177.795C151.421 178.921 148.841 179.484 146.258 179.484ZM146.153 167.804C143.605 167.804 141.063 168.358 139.12 169.469C137.236 170.545 136.196 171.976 136.189 173.498C136.181 175.021 137.209 176.461 139.083 177.555C142.991 179.834 149.364 179.862 153.291 177.618C155.175 176.542 156.215 175.111 156.222 173.588C156.23 172.066 155.202 170.625 153.328 169.533C151.354 168.381 148.751 167.804 146.153 167.804Z" fill="#12172E"/>
<path d="M153.342 177.706C149.38 179.97 142.973 179.941 139.031 177.642C135.09 175.342 135.107 171.644 139.068 169.38C143.03 167.116 149.437 167.144 153.379 169.444C157.32 171.743 157.304 175.442 153.342 177.706Z" fill="#4D5062"/>
<path d="M139.066 169.864C143.028 167.6 149.435 167.629 153.377 169.928C155.242 171.016 156.219 172.417 156.313 173.831C156.433 172.256 155.457 170.656 153.379 169.444C149.437 167.144 143.03 167.116 139.068 169.38C136.98 170.573 135.989 172.165 136.094 173.74C136.203 172.327 137.192 170.936 139.066 169.864Z" fill="#12172E"/>
<path d="M154.708 178.043C149.989 180.74 142.358 180.706 137.663 177.967C135.416 176.656 134.252 174.964 134.163 173.26C134.049 175.116 135.212 176.998 137.661 178.426C142.356 181.165 149.987 181.2 154.707 178.503C157.167 177.097 158.347 175.226 158.25 173.369C158.146 175.071 156.967 176.753 154.708 178.043Z" fill="#1C1F31"/>
<path d="M161.376 171.188L160.712 172.174C160.138 171.205 159.186 170.293 157.853 169.515C153.158 166.777 145.527 166.742 140.807 169.439C139.501 170.186 138.556 171.063 137.97 172.001L137.27 171.08L137.261 173.185L137.265 173.182C137.211 174.997 138.377 176.825 140.769 178.221C145.464 180.959 153.096 180.993 157.815 178.297C160.175 176.949 161.359 175.173 161.367 173.392L161.376 171.188Z" fill="#12172E"/>
<path d="M157.824 176.093C153.105 178.79 145.473 178.756 140.778 176.017C136.083 173.278 136.102 168.871 140.822 166.175C145.541 163.478 153.172 163.512 157.867 166.251C162.563 168.99 162.543 173.397 157.824 176.093Z" fill="#12172E"/>
<path d="M157.824 176.093C153.105 178.79 145.473 178.756 140.778 176.017C136.083 173.278 136.102 168.871 140.822 166.175C145.541 163.478 153.172 163.512 157.867 166.251C162.563 168.99 162.543 173.397 157.824 176.093Z" fill="#4F4F4F"/>
<path d="M149.376 177.075C146.74 177.075 144.1 176.489 142.098 175.322C140.158 174.191 139.095 172.687 139.102 171.088C139.109 169.489 140.187 167.996 142.135 166.882C146.118 164.606 152.584 164.635 156.548 166.947C158.487 168.078 159.551 169.581 159.544 171.18C159.536 172.778 158.459 174.272 156.509 175.386C154.539 176.513 151.958 177.075 149.376 177.075ZM149.27 165.395C146.723 165.395 144.18 165.949 142.237 167.06C140.354 168.136 139.313 169.567 139.306 171.089C139.299 172.612 140.326 174.052 142.2 175.146C146.108 177.425 152.48 177.453 156.409 175.209C158.292 174.133 159.332 172.702 159.34 171.179C159.347 169.657 158.319 168.216 156.445 167.124C154.472 165.973 151.868 165.395 149.27 165.395Z" fill="#12172E"/>
<path d="M156.459 175.297C152.497 177.561 146.09 177.532 142.149 175.233C138.207 172.933 138.224 169.235 142.185 166.971C146.147 164.707 152.554 164.736 156.496 167.035C160.438 169.335 160.422 173.033 156.459 175.297Z" fill="#4D5062"/>
<path d="M142.183 167.455C146.146 165.191 152.553 165.22 156.494 167.519C158.358 168.607 159.336 170.008 159.431 171.422C159.55 169.847 158.574 168.247 156.496 167.035C152.554 164.736 146.147 164.707 142.185 166.971C140.098 168.164 139.106 169.756 139.212 171.331C139.32 169.918 140.31 168.526 142.183 167.455Z" fill="#12172E"/>
<path d="M157.826 175.635C153.106 178.331 145.475 178.297 140.78 175.558C138.533 174.248 137.369 172.555 137.28 170.85C137.166 172.706 138.329 174.588 140.778 176.017C145.473 178.755 153.105 178.789 157.824 176.093C160.285 174.687 161.465 172.816 161.367 170.959C161.263 172.662 160.084 174.344 157.826 175.635Z" fill="#1C1F31"/>
<path d="M163.027 166.555L162.363 167.542C161.79 166.573 160.837 165.66 159.504 164.882C154.809 162.144 147.178 162.11 142.458 164.806C141.152 165.553 140.207 166.43 139.621 167.368L138.921 166.447L138.912 168.552L138.917 168.549C138.862 170.364 140.028 172.192 142.42 173.588C147.115 176.326 154.747 176.361 159.466 173.664C161.826 172.316 163.011 170.54 163.019 168.759L163.027 166.555Z" fill="#12172E"/>
<path d="M163.033 166.553C163.05 162.71 157.668 159.57 151.011 159.54C144.354 159.51 138.944 162.602 138.927 166.445C138.909 170.288 144.292 173.428 150.948 173.458C157.605 173.488 163.016 170.397 163.033 166.553Z" fill="#12172E"/>
<path d="M159.476 171.459C154.757 174.156 147.125 174.122 142.43 171.383C137.735 168.644 137.755 164.237 142.474 161.541C147.193 158.844 154.824 158.878 159.52 161.617C164.214 164.357 164.194 168.763 159.476 171.459Z" fill="#4F4F4F"/>
<path d="M151.027 172.441C148.391 172.441 145.751 171.856 143.749 170.688C141.809 169.557 140.746 168.053 140.753 166.454C140.76 164.856 141.838 163.362 143.787 162.248C147.769 159.973 154.236 160.001 158.199 162.313C160.139 163.444 161.202 164.947 161.195 166.546C161.188 168.145 160.11 169.638 158.161 170.752C156.191 171.879 153.611 172.441 151.027 172.441ZM150.922 160.762C148.375 160.762 145.832 161.316 143.889 162.426C142.006 163.502 140.965 164.933 140.958 166.455C140.951 167.978 141.979 169.418 143.852 170.512C147.76 172.791 154.133 172.819 158.061 170.575C159.944 169.499 160.985 168.068 160.992 166.545C160.999 165.023 159.971 163.582 158.097 162.49C156.124 161.339 153.52 160.762 150.922 160.762Z" fill="#12172E"/>
<path d="M158.112 170.664C154.149 172.928 147.743 172.9 143.801 170.6C139.859 168.301 139.876 164.602 143.837 162.338C147.8 160.074 154.206 160.103 158.148 162.402C162.09 164.701 162.073 168.4 158.112 170.664Z" fill="#4D5062"/>
<path d="M143.835 162.822C147.798 160.558 154.205 160.586 158.146 162.886C160.01 163.973 160.988 165.374 161.083 166.788C161.202 165.214 160.226 163.613 158.148 162.402C154.206 160.103 147.8 160.074 143.837 162.338C141.75 163.531 140.759 165.123 140.864 166.698C140.971 165.285 141.962 163.893 143.835 162.822Z" fill="#12172E"/>
<path d="M159.478 171.001C154.758 173.697 147.127 173.663 142.432 170.924C140.185 169.613 139.021 167.921 138.932 166.217C138.818 168.073 139.981 169.955 142.43 171.384C147.125 174.122 154.757 174.157 159.476 171.46C161.936 170.054 163.117 168.183 163.019 166.326C162.914 168.029 161.735 169.71 159.478 171.001Z" fill="#1C1F31"/>
<path d="M171.356 168.471L170.504 169.301C170.142 168.235 169.396 167.147 168.25 166.113C164.215 162.471 156.752 160.876 151.581 162.55C150.149 163.013 149.045 163.679 148.28 164.477L147.783 163.432L147.343 165.491L147.347 165.489C146.923 167.254 147.689 169.283 149.745 171.138C153.781 174.779 161.244 176.375 166.415 174.702C169 173.865 170.524 172.369 170.896 170.627L171.356 168.471Z" fill="#12172E"/>
<path d="M166.875 172.546C161.704 174.219 154.24 172.624 150.206 168.982C146.171 165.34 147.092 161.031 152.263 159.357C157.435 157.684 164.898 159.279 168.932 162.921C172.968 166.564 172.047 170.872 166.875 172.546Z" fill="#12172E"/>
<path d="M166.875 172.546C161.704 174.219 154.24 172.624 150.206 168.982C146.171 165.34 147.092 161.031 152.263 159.357C157.435 157.684 164.898 159.279 168.932 162.921C172.968 166.564 172.047 170.872 166.875 172.546Z" fill="#4F4F4F"/>
<path d="M158.405 171.777C155.824 171.237 153.36 170.124 151.64 168.572C149.973 167.068 149.24 165.378 149.574 163.815C149.908 162.252 151.268 161.011 153.404 160.319C157.769 158.906 164.092 160.258 167.498 163.333C169.166 164.837 169.899 166.526 169.565 168.089C169.23 169.652 167.87 170.895 165.734 171.586C163.574 172.284 160.933 172.306 158.405 171.777ZM160.692 160.323C158.198 159.802 155.597 159.824 153.466 160.513C151.403 161.18 150.091 162.368 149.773 163.857C149.454 165.346 150.166 166.966 151.776 168.421C155.134 171.451 161.367 172.783 165.671 171.391C167.734 170.724 169.046 169.536 169.364 168.046C169.682 166.557 168.972 164.937 167.361 163.485C165.666 161.953 163.235 160.856 160.692 160.323Z" fill="#12172E"/>
<path d="M165.703 171.488C161.361 172.893 155.096 171.554 151.708 168.496C148.321 165.439 149.094 161.821 153.435 160.417C157.777 159.012 164.042 160.351 167.43 163.408C170.818 166.466 170.044 170.082 165.703 171.488Z" fill="#4D5062"/>
<path d="M153.335 160.89C157.676 159.485 163.941 160.824 167.329 163.881C168.931 165.328 169.602 166.899 169.405 168.302C169.844 166.786 169.216 165.02 167.431 163.408C164.043 160.35 157.778 159.011 153.436 160.416C151.148 161.156 149.852 162.512 149.633 164.076C150.027 162.715 151.281 161.554 153.335 160.89Z" fill="#12172E"/>
<path d="M166.971 172.097C161.799 173.77 154.336 172.175 150.302 168.533C148.371 166.79 147.578 164.895 147.839 163.209C147.348 165.002 148.101 167.082 150.206 168.982C154.241 172.623 161.704 174.219 166.875 172.546C169.572 171.673 171.11 170.083 171.395 168.246C170.944 169.892 169.445 171.296 166.971 172.097Z" fill="#1C1F31"/>
<path d="M152.98 117.743L151.916 118.275C151.895 117.149 151.515 115.887 150.738 114.552C148 109.857 141.374 106.07 135.939 106.093C134.434 106.099 133.179 106.398 132.208 106.925L132.052 105.779L131.008 107.607L131.013 107.606C130.072 109.159 130.186 111.324 131.581 113.717C134.319 118.412 140.945 122.2 146.38 122.177C149.098 122.165 151.003 121.203 151.887 119.656L152.98 117.743Z" fill="#12172E"/>
<path d="M147.473 120.264C142.037 120.287 135.411 116.499 132.674 111.804C129.936 107.109 132.123 103.283 137.558 103.26C142.993 103.237 149.619 107.024 152.357 111.72C155.094 116.415 152.908 120.24 147.473 120.264Z" fill="#12172E"/>
<path d="M147.473 120.264C142.037 120.287 135.411 116.499 132.674 111.804C129.936 107.109 132.123 103.283 137.558 103.26C142.993 103.237 149.619 107.024 152.357 111.72C155.094 116.415 152.908 120.24 147.473 120.264Z" fill="#4F4F4F"/>
<path d="M139.636 116.958C137.341 115.66 135.332 113.851 134.165 111.849C133.034 109.909 132.848 108.077 133.641 106.689C134.435 105.301 136.108 104.531 138.352 104.522C142.94 104.502 148.553 107.711 150.865 111.675C151.996 113.615 152.181 115.447 151.389 116.834C150.595 118.222 148.922 118.992 146.677 119.001C144.407 119.011 141.884 118.23 139.636 116.958ZM145.295 106.74C143.079 105.486 140.593 104.716 138.354 104.726C136.185 104.735 134.575 105.468 133.819 106.789C133.063 108.112 133.248 109.871 134.341 111.745C136.62 115.653 142.152 118.816 146.677 118.796C148.845 118.787 150.456 118.054 151.211 116.732C151.967 115.41 151.781 113.65 150.689 111.777C149.538 109.804 147.556 108.02 145.295 106.74Z" fill="#12172E"/>
<path d="M146.677 118.899C142.114 118.919 136.552 115.74 134.254 111.797C131.955 107.855 133.791 104.644 138.354 104.624C142.917 104.605 148.479 107.784 150.778 111.727C153.076 115.667 151.24 118.88 146.677 118.899Z" fill="#4D5062"/>
<path d="M138.113 105.045C142.676 105.025 148.238 108.204 150.536 112.146C151.624 114.011 151.785 115.711 151.171 116.988C152.05 115.676 151.988 113.803 150.776 111.726C148.477 107.784 142.915 104.604 138.352 104.623C135.948 104.634 134.302 105.531 133.618 106.954C134.408 105.778 135.955 105.054 138.113 105.045Z" fill="#12172E"/>
<path d="M147.701 119.865C142.265 119.888 135.64 116.1 132.902 111.405C131.592 109.158 131.412 107.112 132.173 105.584C131.16 107.144 131.246 109.354 132.674 111.803C135.411 116.498 142.037 120.286 147.473 120.263C150.307 120.25 152.255 119.203 153.085 117.539C152.155 118.971 150.301 119.854 147.701 119.865Z" fill="#1C1F31"/>
<path d="M150.652 138.83L150.56 140.016C149.583 139.455 148.305 139.131 146.762 139.112C141.327 139.044 134.671 142.777 131.895 147.449C131.126 148.743 130.737 149.973 130.69 151.077L129.626 150.621L130.656 152.458L130.658 152.453C131.505 154.059 133.421 155.075 136.19 155.11C141.625 155.178 148.281 151.444 151.057 146.772C152.446 144.435 152.601 142.307 151.73 140.754L150.652 138.83Z" fill="#12172E"/>
<path d="M149.98 144.849C147.204 149.522 140.547 153.255 135.112 153.187C129.677 153.12 127.522 149.277 130.298 144.604C133.074 139.931 139.731 136.197 145.165 136.266C150.6 136.333 152.756 140.177 149.98 144.849Z" fill="#12172E"/>
<path d="M149.98 144.849C147.204 149.522 140.547 153.255 135.112 153.187C129.677 153.12 127.522 149.277 130.298 144.604C133.074 139.931 139.731 136.197 145.165 136.266C150.6 136.333 152.756 140.177 149.98 144.849Z" fill="#4F4F4F"/>
<path d="M143.113 149.868C140.819 151.168 138.235 151.96 135.917 151.931C133.672 151.904 132.006 151.12 131.223 149.725C130.441 148.331 130.642 146.501 131.789 144.571C134.132 140.627 139.771 137.464 144.359 137.521C146.604 137.548 148.271 138.332 149.053 139.726C149.835 141.121 149.633 142.951 148.487 144.881C147.329 146.834 145.361 148.594 143.113 149.868ZM137.263 139.76C135.047 141.015 133.108 142.75 131.965 144.676C130.857 146.54 130.657 148.299 131.401 149.627C132.146 150.954 133.751 151.702 135.919 151.728C140.442 151.784 146.001 148.667 148.312 144.778C149.42 142.914 149.62 141.155 148.875 139.827C148.13 138.5 146.525 137.753 144.357 137.727C142.073 137.696 139.524 138.478 137.263 139.76Z" fill="#12172E"/>
<path d="M148.401 144.829C146.07 148.752 140.481 151.886 135.919 151.829C131.356 151.772 129.547 148.545 131.877 144.623C134.208 140.7 139.797 137.566 144.359 137.623C148.922 137.68 150.731 140.906 148.401 144.829Z" fill="#4D5062"/>
<path d="M132.113 145.045C134.444 141.122 140.033 137.988 144.595 138.045C146.753 138.072 148.295 138.809 149.074 139.992C148.401 138.564 146.763 137.653 144.358 137.622C139.796 137.565 134.207 140.699 131.877 144.622C130.648 146.689 130.571 148.563 131.439 149.881C130.836 148.6 131.012 146.901 132.113 145.045Z" fill="#12172E"/>
<path d="M149.755 144.449C146.979 149.122 140.322 152.855 134.888 152.786C132.287 152.754 130.439 151.856 129.522 150.417C130.338 152.087 132.278 153.151 135.112 153.186C140.547 153.254 147.204 149.522 149.98 144.849C151.428 142.412 151.531 140.202 150.531 138.635C151.28 140.169 151.084 142.213 149.755 144.449Z" fill="#1C1F31"/>
<path opacity="0.3" d="M43.976 143.109C43.4251 143.109 42.8743 142.968 42.3844 142.685L0.519586 118.513C0.280605 118.376 0.137207 118.13 0.137207 117.853C0.137207 117.575 0.279401 117.328 0.518383 117.188L37.5462 95.8101L37.9178 96.4541L0.891208 117.832L42.7572 142.04C43.5076 142.474 44.4396 142.475 45.1924 142.041L70.1707 127.673C71.1589 127.103 72.3849 127.109 73.3635 127.684L83.5884 133.66L83.212 134.302L72.9871 128.326C72.2355 127.885 71.2975 127.883 70.5412 128.317L45.5628 142.686C45.0729 142.969 44.5245 143.109 43.976 143.109Z" fill="white"/>
<path d="M218.743 112.328L189.693 81.1339L160.643 78.7837C160.643 78.7837 155.974 118.165 189.693 159.934C223.411 157.099 218.743 112.328 218.743 112.328Z" fill="#3A405D"/>
<path d="M160.643 78.783L154.106 82.5573L183.157 84.9067L189.693 81.1332L160.643 78.783Z" fill="#1B2036"/>
<path d="M212.207 116.101L183.156 84.9075L171.212 83.7007L154.106 82.5581C154.106 82.5581 149.438 121.939 183.156 163.709C216.875 160.873 212.207 116.101 212.207 116.101Z" fill="#1B2036"/>
<path d="M212.207 116.101L183.157 84.9076L154.106 82.5573C154.928 82.0835 154.928 82.0835 154.928 82.0835L184.364 84.4649L213.414 115.659C213.414 115.659 217.312 153.086 192.201 161.663C215.977 152.315 212.207 116.101 212.207 116.101Z" fill="white"/>
<path opacity="0.2" d="M208.68 116.586L182.561 88.5394L171.821 87.4538L156.442 86.426C156.442 86.426 152.244 121.833 182.561 159.387C212.877 156.84 208.68 116.586 208.68 116.586Z" fill="white"/>
</g>
</svg>
