<svg width="919" height="171" viewBox="0 0 919 171" fill="none" xmlns="http://www.w3.org/2000/svg">
<g clip-path="url(#clip0_1384_1154)">
<path d="M918.26 17.32C864.36 44.69 815.6 76.52 774.7 119.29C796.82 104.56 818.94 89.83 842.2 74.34C852.47 95.45 862.19 115.43 872.8 137.22C860.04 136.56 848.89 136.05 837.74 135.3C836.48 135.22 834.56 134.06 834.21 132.99C830.96 123.07 819.41 114.18 830.25 101.75C788.67 118.51 753.11 144.46 716.3 170.86C745.06 116.25 869.71 21.21 918.26 17.31V17.32Z" fill="#36B54C"/>
<path d="M67.88 80.36H50.91L30.33 21.78H0L23.59 88.71L12.06 108.94H43.44V148.52H72.02V108.94H88.11L118.79 21.78H88.46L67.88 80.36Z" fill="url(#paint0_linear_1384_1154)"/>
<path d="M204.32 109.38C205.39 109.51 206.43 109.57 207.41 109.57C213.92 109.57 217.47 106.68 219.31 104.25C221.98 100.71 223.76 95.96 224.59 90.15L231.55 42.24C232.88 33.88 229.75 29.18 226.88 26.71C223.08 23.44 218 21.78 211.76 21.78H148.28C135.49 21.78 128.45 28.82 128.45 41.61V128.68C128.45 141.47 135.49 148.51 148.28 148.51H231.59V119.93H157.02V103.88L204.31 109.37L204.32 109.38ZM157.03 50.36H201.44L197.13 79.77L157.03 75.09V50.35V50.36Z" fill="url(#paint1_linear_1384_1154)"/>
<path d="M328.289 49.14L296.369 27.68C290.549 23.76 283.939 21.77 276.719 21.77H259.939C251.359 21.77 246.439 26.69 246.439 35.27V148.51H275.019V47.08L328.289 82.69V148.51H356.869V21.77H328.289V49.13V49.14Z" fill="url(#paint2_linear_1384_1154)"/>
<path d="M369.86 50.36H411.02V148.52H439.6V50.36H478.55V21.78H369.86V50.36Z" fill="url(#paint3_linear_1384_1154)"/>
<path d="M594.68 70.11V41.61C594.68 28.82 587.64 21.78 574.85 21.78H491.54V50.36H566.11V61.36H511.38C498.59 61.36 491.55 68.4 491.55 81.19V148.51H520.13V89.93H545.43L566.01 148.51H596.34L575.76 89.92C587.98 89.6 594.7 82.59 594.7 70.1L594.68 70.11Z" fill="url(#paint4_linear_1384_1154)"/>
<path d="M811.18 48.99C812.36 46.07 814.01 43.84 815.38 41.45C818.56 35.89 809.99 18.42 803.64 18.18C793.22 17.79 782.77 18.07 771.06 18.07C779.27 37.14 787.22 55.59 795.58 75C830.34 42.32 869.98 19.48 911.83 0C875.06 9.72 842.25 27.51 811.17 48.98L811.18 48.99Z" fill="url(#paint5_linear_1384_1154)"/>
<path d="M630.57 50.48H734.55L742.24 21.78H638.26L630.57 50.48Z" fill="url(#paint6_linear_1384_1154)"/>
<path d="M701.429 70.79L625.069 71.02L617.439 99.5H708.089L701.429 70.79Z" fill="#36B54C"/>
<path d="M604.3 148.52H711.84L734.94 119.82H611.99L604.3 148.52Z" fill="url(#paint7_linear_1384_1154)"/>
</g>
<defs>
<linearGradient id="paint0_linear_1384_1154" x1="-10.88" y1="51.66" x2="94.94" y2="90.18" gradientUnits="userSpaceOnUse">
<stop stop-color="#FF3500"/>
<stop offset="1" stop-color="#AE000E"/>
</linearGradient>
<linearGradient id="paint1_linear_1384_1154" x1="118.92" y1="62.87" x2="245.94" y2="109.11" gradientUnits="userSpaceOnUse">
<stop stop-color="#FF3500"/>
<stop offset="1" stop-color="#AE000E"/>
</linearGradient>
<linearGradient id="paint2_linear_1384_1154" x1="235.829" y1="61.19" x2="370.779" y2="110.31" gradientUnits="userSpaceOnUse">
<stop stop-color="#FF3500"/>
<stop offset="1" stop-color="#AE000E"/>
</linearGradient>
<linearGradient id="paint3_linear_1384_1154" x1="358.26" y1="53.65" x2="463.42" y2="91.93" gradientUnits="userSpaceOnUse">
<stop stop-color="#FF3500"/>
<stop offset="1" stop-color="#AE000E"/>
</linearGradient>
<linearGradient id="paint4_linear_1384_1154" x1="476.32" y1="63.56" x2="609.59" y2="112.06" gradientUnits="userSpaceOnUse">
<stop stop-color="#FF3500"/>
<stop offset="1" stop-color="#AE000E"/>
</linearGradient>
<linearGradient id="paint5_linear_1384_1154" x1="774.5" y1="8.67" x2="892.99" y2="51.8" gradientUnits="userSpaceOnUse">
<stop stop-color="#FF3500"/>
<stop offset="1" stop-color="#AE000E"/>
</linearGradient>
<linearGradient id="paint6_linear_1384_1154" x1="639.28" y1="18.98" x2="733.53" y2="53.28" gradientUnits="userSpaceOnUse">
<stop stop-color="#FF3500"/>
<stop offset="1" stop-color="#AE000E"/>
</linearGradient>
<linearGradient id="paint7_linear_1384_1154" x1="614.12" y1="113.97" x2="722.69" y2="153.48" gradientUnits="userSpaceOnUse">
<stop stop-color="#FF3500"/>
<stop offset="1" stop-color="#AE000E"/>
</linearGradient>
<clipPath id="clip0_1384_1154">
<rect width="918.26" height="170.86" fill="white"/>
</clipPath>
</defs>
</svg>
