<svg width="1440" height="763" viewBox="0 0 1440 763" fill="none" xmlns="http://www.w3.org/2000/svg">
<g opacity="0.5">
<path opacity="0.05" d="M683.198 762.72C1169.82 762.72 1564.31 367.685 1564.31 -119.614C1564.31 -606.914 1169.82 -1001.95 683.198 -1001.95C196.574 -1001.95 -197.913 -606.914 -197.913 -119.614C-197.913 367.685 196.574 762.72 683.198 762.72Z" fill="url(#paint0_radial_1_2989)"/>
<path opacity="0.15" d="M683.198 682.507C1125.58 682.507 1484.21 323.385 1484.21 -119.614C1484.21 -562.614 1125.58 -921.736 683.198 -921.736C240.812 -921.736 -117.812 -562.614 -117.812 -119.614C-117.812 323.385 240.812 682.507 683.198 682.507Z" fill="url(#paint1_radial_1_2989)"/>
<path opacity="0.24" d="M683.198 602.295C1081.34 602.295 1404.11 279.085 1404.11 -119.615C1404.11 -518.314 1081.34 -841.524 683.198 -841.524C285.051 -841.524 -37.7109 -518.314 -37.7109 -119.615C-37.7109 279.085 285.051 602.295 683.198 602.295Z" fill="url(#paint2_radial_1_2989)"/>
<path opacity="0.33" d="M683.197 522.083C1037.11 522.083 1324 234.785 1324 -119.615C1324 -474.014 1037.11 -761.312 683.197 -761.312C329.289 -761.312 42.39 -474.014 42.39 -119.615C42.39 234.785 329.289 522.083 683.197 522.083Z" fill="url(#paint3_radial_1_2989)"/>
<path opacity="0.43" d="M683.197 441.871C992.867 441.871 1243.9 190.486 1243.9 -119.614C1243.9 -429.714 992.867 -681.1 683.197 -681.1C373.528 -681.1 122.491 -429.714 122.491 -119.614C122.491 190.486 373.528 441.871 683.197 441.871Z" fill="url(#paint4_radial_1_2989)"/>
<path opacity="0.53" d="M683.198 361.659C948.629 361.659 1163.8 146.185 1163.8 -119.615C1163.8 -385.414 948.629 -600.888 683.198 -600.888C417.766 -600.888 202.592 -385.414 202.592 -119.615C202.592 146.185 417.766 361.659 683.198 361.659Z" fill="url(#paint5_radial_1_2989)"/>
<path opacity="0.62" d="M683.198 281.447C904.39 281.447 1083.7 101.885 1083.7 -119.614C1083.7 -341.114 904.39 -520.675 683.198 -520.675C462.005 -520.675 282.693 -341.114 282.693 -119.614C282.693 101.885 462.005 281.447 683.198 281.447Z" fill="url(#paint6_radial_1_2989)"/>
<path opacity="0.71" d="M683.198 201.235C860.152 201.235 1003.6 57.5858 1003.6 -119.614C1003.6 -296.814 860.152 -440.463 683.198 -440.463C506.243 -440.463 362.794 -296.814 362.794 -119.614C362.794 57.5858 506.243 201.235 683.198 201.235Z" fill="url(#paint7_radial_1_2989)"/>
<path opacity="0.81" d="M683.198 121.022C815.913 121.022 923.5 13.2855 923.5 -119.614C923.5 -252.514 815.913 -360.251 683.198 -360.251C550.482 -360.251 442.895 -252.514 442.895 -119.614C442.895 13.2855 550.482 121.022 683.198 121.022Z" fill="url(#paint8_radial_1_2989)"/>
<path opacity="0.91" d="M683.197 40.8102C771.675 40.8102 843.399 -31.0143 843.399 -119.614C843.399 -208.214 771.675 -280.039 683.197 -280.039C594.72 -280.039 522.996 -208.214 522.996 -119.614C522.996 -31.0143 594.72 40.8102 683.197 40.8102Z" fill="url(#paint9_radial_1_2989)"/>
</g>
<defs>
<radialGradient id="paint0_radial_1_2989" cx="0" cy="0" r="1" gradientUnits="userSpaceOnUse" gradientTransform="translate(87913.1 87231.5) scale(88111 88233.4)">
<stop stop-color="#001B6F" stop-opacity="0.5"/>
<stop offset="0.5" stop-color="#2E419E" stop-opacity="0"/>
<stop offset="1" stop-color="#656CD0" stop-opacity="0.5"/>
</radialGradient>
<radialGradient id="paint1_radial_1_2989" cx="0" cy="0" r="1" gradientUnits="userSpaceOnUse" gradientTransform="translate(79983.1 79290.5) scale(80100.9 80212.2)">
<stop stop-color="#001B6F" stop-opacity="0.5"/>
<stop offset="0.5" stop-color="#2E419E" stop-opacity="0"/>
<stop offset="1" stop-color="#656CD0" stop-opacity="0.5"/>
</radialGradient>
<radialGradient id="paint2_radial_1_2989" cx="0" cy="0" r="1" gradientUnits="userSpaceOnUse" gradientTransform="translate(72053.1 71349.5) scale(72090.8 72191)">
<stop stop-color="#001B6F" stop-opacity="0.5"/>
<stop offset="0.5" stop-color="#2E419E" stop-opacity="0"/>
<stop offset="1" stop-color="#656CD0" stop-opacity="0.5"/>
</radialGradient>
<radialGradient id="paint3_radial_1_2989" cx="0" cy="0" r="1" gradientUnits="userSpaceOnUse" gradientTransform="translate(64123.1 63408.4) scale(64080.8 64169.8)">
<stop stop-color="#001B6F" stop-opacity="0.5"/>
<stop offset="0.5" stop-color="#2E419E" stop-opacity="0"/>
<stop offset="1" stop-color="#656CD0" stop-opacity="0.5"/>
</radialGradient>
<radialGradient id="paint4_radial_1_2989" cx="0" cy="0" r="1" gradientUnits="userSpaceOnUse" gradientTransform="translate(56193.1 55467.4) scale(56070.7 56148.5)">
<stop stop-color="#001B6F" stop-opacity="0.5"/>
<stop offset="0.5" stop-color="#2E419E" stop-opacity="0"/>
<stop offset="1" stop-color="#656CD0" stop-opacity="0.5"/>
</radialGradient>
<radialGradient id="paint5_radial_1_2989" cx="0" cy="0" r="1" gradientUnits="userSpaceOnUse" gradientTransform="translate(48263.2 47526.4) scale(48060.6 48127.3)">
<stop stop-color="#001B6F" stop-opacity="0.5"/>
<stop offset="0.5" stop-color="#2E419E" stop-opacity="0"/>
<stop offset="1" stop-color="#656CD0" stop-opacity="0.5"/>
</radialGradient>
<radialGradient id="paint6_radial_1_2989" cx="0" cy="0" r="1" gradientUnits="userSpaceOnUse" gradientTransform="translate(40333.2 39585.4) scale(40050.5 40106.1)">
<stop stop-color="#001B6F" stop-opacity="0.5"/>
<stop offset="0.5" stop-color="#2E419E" stop-opacity="0"/>
<stop offset="1" stop-color="#656CD0" stop-opacity="0.5"/>
</radialGradient>
<radialGradient id="paint7_radial_1_2989" cx="0" cy="0" r="1" gradientUnits="userSpaceOnUse" gradientTransform="translate(32403.2 31644.4) scale(32040.4 32084.9)">
<stop stop-color="#001B6F" stop-opacity="0.5"/>
<stop offset="0.5" stop-color="#2E419E" stop-opacity="0"/>
<stop offset="1" stop-color="#656CD0" stop-opacity="0.5"/>
</radialGradient>
<radialGradient id="paint8_radial_1_2989" cx="0" cy="0" r="1" gradientUnits="userSpaceOnUse" gradientTransform="translate(24473.2 23703.4) scale(24030.3 24063.7)">
<stop stop-color="#001B6F" stop-opacity="0.5"/>
<stop offset="0.5" stop-color="#2E419E" stop-opacity="0"/>
<stop offset="1" stop-color="#656CD0" stop-opacity="0.5"/>
</radialGradient>
<radialGradient id="paint9_radial_1_2989" cx="0" cy="0" r="1" gradientUnits="userSpaceOnUse" gradientTransform="translate(16543.2 15762.4) scale(16020.2 16042.4)">
<stop stop-color="#001B6F" stop-opacity="0.5"/>
<stop offset="0.5" stop-color="#2E419E" stop-opacity="0"/>
<stop offset="1" stop-color="#656CD0" stop-opacity="0.5"/>
</radialGradient>
</defs>
</svg>
